<svg version="1.1" xmlns="http://www.w3.org/2000/svg" viewBox="0 0 1940.0555555555552 688" width="1940.0555555555552" height="688">
  <!-- svg-source:excalidraw -->

  <defs>
    <style class="style-fonts">
      @font-face {
        font-family: "Virgil";
        src: url("https://excalidraw.com/Virgil.woff2");
      }
      @font-face {
        font-family: "Cascadia";
        src: url("https://excalidraw.com/Cascadia.woff2");
      }
    </style>
  </defs>
  <rect x="0" y="0" width="1940.0555555555552" height="688" fill="#ffffff"></rect><g stroke-linecap="round" transform="translate(10 10) rotate(0 271.5 334)"><path d="M7.86 8.16 C7.86 8.16, 7.86 8.16, 7.86 8.16 M7.86 8.16 C7.86 8.16, 7.86 8.16, 7.86 8.16 M3.66 19.09 C7.34 14.85, 11.02 10.62, 18.1 2.48 M3.66 19.09 C9.06 12.88, 14.45 6.68, 18.1 2.48 M2.75 26.24 C11.65 15.99, 20.56 5.75, 25.05 0.58 M2.75 26.24 C11.43 16.25, 20.11 6.27, 25.05 0.58 M1.83 33.39 C10.44 23.48, 19.06 13.57, 30.7 0.18 M1.83 33.39 C8.76 25.42, 15.69 17.45, 30.7 0.18 M1.57 39.79 C9.55 30.6, 17.54 21.41, 34.37 2.05 M1.57 39.79 C10.93 29.02, 20.29 18.25, 34.37 2.05 M1.96 45.43 C15.13 30.29, 28.29 15.14, 39.36 2.41 M1.96 45.43 C16.14 29.12, 30.32 12.81, 39.36 2.41 M1.7 51.83 C17.93 33.16, 34.15 14.5, 45 2.02 M1.7 51.83 C17.48 33.68, 33.26 15.53, 45 2.02 M1.44 58.23 C16.08 41.38, 30.72 24.54, 49.99 2.38 M1.44 58.23 C19.24 37.75, 37.04 17.27, 49.99 2.38 M1.83 63.87 C21.63 41.09, 41.43 18.32, 55.63 1.98 M1.83 63.87 C17.32 46.05, 32.81 28.23, 55.63 1.98 M1.57 70.27 C17 52.52, 32.43 34.78, 60.62 2.34 M1.57 70.27 C19.3 49.87, 37.03 29.48, 60.62 2.34 M1.97 75.91 C22.96 51.76, 43.95 27.61, 66.26 1.95 M1.97 75.91 C23.8 50.8, 45.63 25.68, 66.26 1.95 M1.71 82.31 C27.66 52.45, 53.62 22.59, 71.25 2.31 M1.71 82.31 C29.48 50.36, 57.25 18.41, 71.25 2.31 M1.44 88.71 C22.68 64.27, 43.92 39.84, 76.89 1.91 M1.44 88.71 C18.39 69.21, 35.33 49.72, 76.89 1.91 M1.84 94.35 C18.49 75.2, 35.13 56.05, 81.88 2.27 M1.84 94.35 C18.27 75.44, 34.71 56.54, 81.88 2.27 M1.58 100.75 C35.3 61.95, 69.03 23.15, 87.52 1.88 M1.58 100.75 C24.82 74.01, 48.06 47.28, 87.52 1.88 M1.97 106.39 C34.92 68.49, 67.86 30.59, 92.51 2.24 M1.97 106.39 C36.5 66.67, 71.03 26.94, 92.51 2.24 M1.71 112.79 C35.16 74.31, 68.61 35.83, 98.15 1.85 M1.71 112.79 C23.52 87.7, 45.33 62.61, 98.15 1.85 M1.45 119.19 C28.66 87.89, 55.87 56.59, 103.14 2.21 M1.45 119.19 C33.25 82.61, 65.05 46.03, 103.14 2.21 M1.84 124.83 C40.38 80.5, 78.92 36.16, 108.78 1.81 M1.84 124.83 C29.96 92.49, 58.07 60.15, 108.78 1.81 M1.58 131.23 C43.52 82.99, 85.45 34.75, 113.77 2.17 M1.58 131.23 C35.93 91.71, 70.29 52.19, 113.77 2.17 M1.98 136.87 C46.23 85.96, 90.49 35.04, 119.41 1.78 M1.98 136.87 C45.84 86.41, 89.7 35.95, 119.41 1.78 M1.72 143.27 C46.54 91.7, 91.37 40.13, 124.4 2.14 M1.72 143.27 C49.65 88.12, 97.59 32.97, 124.4 2.14 M1.45 149.67 C35.95 109.99, 70.44 70.31, 130.04 1.74 M1.45 149.67 C49.39 94.52, 97.33 39.37, 130.04 1.74 M1.85 155.31 C48.92 101.16, 95.98 47.02, 135.03 2.1 M1.85 155.31 C44.08 106.72, 86.31 58.14, 135.03 2.1 M1.59 161.71 C34.21 124.18, 66.82 86.66, 140.67 1.71 M1.59 161.71 C42.96 114.11, 84.34 66.51, 140.67 1.71 M1.98 167.35 C41.77 121.58, 81.55 75.81, 145.66 2.07 M1.98 167.35 C53.4 108.2, 104.81 49.06, 145.66 2.07 M1.72 173.75 C32.09 138.81, 62.45 103.88, 150.65 2.43 M1.72 173.75 C32.41 138.45, 63.09 103.15, 150.65 2.43 M1.46 180.14 C48.39 126.15, 95.33 72.16, 156.29 2.03 M1.46 180.14 C49.07 125.38, 96.67 70.61, 156.29 2.03 M1.85 185.79 C38.95 143.11, 76.04 100.44, 161.28 2.39 M1.85 185.79 C62.26 116.29, 122.68 46.8, 161.28 2.39 M1.59 192.19 C39.19 148.93, 76.8 105.67, 166.92 2 M1.59 192.19 C48.27 138.49, 94.95 84.79, 166.92 2 M1.99 197.83 C53.86 138.16, 105.73 78.48, 171.91 2.36 M1.99 197.83 C56.1 135.58, 110.21 73.33, 171.91 2.36 M1.72 204.23 C49.78 148.94, 97.84 93.66, 177.55 1.96 M1.72 204.23 C58.11 139.37, 114.49 74.51, 177.55 1.96 M1.46 210.62 C61.99 141, 122.51 71.38, 182.54 2.32 M1.46 210.62 C64.61 137.98, 127.76 65.33, 182.54 2.32 M1.86 216.27 C56.34 153.59, 110.82 90.92, 188.18 1.93 M1.86 216.27 C73.14 134.27, 144.42 52.26, 188.18 1.93 M1.6 222.66 C70.61 143.28, 139.62 63.89, 193.17 2.29 M1.6 222.66 C42.96 175.09, 84.31 127.51, 193.17 2.29 M1.99 228.31 C73.71 145.8, 145.44 63.29, 198.81 1.9 M1.99 228.31 C70.89 149.05, 139.78 69.8, 198.81 1.9 M1.73 234.71 C72.87 152.86, 144.02 71.02, 203.8 2.26 M1.73 234.71 C59.88 167.81, 118.03 100.91, 203.8 2.26 M1.47 241.1 C84.07 146.08, 166.68 51.05, 209.44 1.86 M1.47 241.1 C48.66 186.81, 95.86 132.52, 209.44 1.86 M1.86 246.75 C45.8 196.2, 89.73 145.66, 214.43 2.22 M1.86 246.75 C77.16 160.13, 152.45 73.51, 214.43 2.22 M1.6 253.14 C72.99 171.02, 144.38 88.9, 220.07 1.83 M1.6 253.14 C75.66 167.95, 149.71 82.76, 220.07 1.83 M2 258.79 C79.87 169.2, 157.74 79.62, 225.06 2.19 M2 258.79 C52.6 200.57, 103.21 142.35, 225.06 2.19 M1.73 265.19 C74.36 181.63, 146.99 98.08, 230.7 1.79 M1.73 265.19 C78.15 177.27, 154.57 89.36, 230.7 1.79 M1.47 271.58 C79.35 181.99, 157.23 92.4, 235.69 2.15 M1.47 271.58 C80.94 180.16, 160.41 88.75, 235.69 2.15 M1.87 277.23 C88.26 177.85, 174.65 78.46, 241.33 1.76 M1.87 277.23 C93.05 172.33, 184.24 67.43, 241.33 1.76 M1.61 283.62 C59.9 216.57, 118.19 149.51, 246.32 2.12 M1.61 283.62 C86.5 185.97, 171.39 88.31, 246.32 2.12 M2 289.27 C71.44 209.38, 140.88 129.5, 251.96 1.72 M2 289.27 C94.84 182.47, 187.68 75.67, 251.96 1.72 M1.74 295.66 C72.07 214.75, 142.41 133.84, 256.95 2.08 M1.74 295.66 C85.19 199.67, 168.64 103.67, 256.95 2.08 M1.48 302.06 C84.2 206.9, 166.93 111.73, 262.59 1.69 M1.48 302.06 C84.74 206.28, 168 110.5, 262.59 1.69 M1.87 307.71 C103.44 190.87, 205.01 74.03, 267.58 2.05 M1.87 307.71 C102.5 191.95, 203.13 76.19, 267.58 2.05 M1.61 314.1 C97.64 203.63, 193.67 93.16, 272.56 2.41 M1.61 314.1 C98.69 202.43, 195.76 90.76, 272.56 2.41 M2.01 319.75 C63.83 248.62, 125.66 177.5, 278.21 2.01 M2.01 319.75 C63.64 248.85, 125.27 177.94, 278.21 2.01 M1.74 326.14 C84.86 230.53, 167.98 134.91, 283.19 2.37 M1.74 326.14 C99.29 213.93, 196.84 101.72, 283.19 2.37 M1.48 332.54 C114.75 202.25, 228.01 71.96, 288.84 1.98 M1.48 332.54 C59.87 265.38, 118.26 198.21, 288.84 1.98 M1.88 338.19 C81.4 246.7, 160.93 155.21, 293.82 2.34 M1.88 338.19 C78.56 249.97, 155.25 161.75, 293.82 2.34 M1.62 344.58 C65.69 270.87, 129.77 197.16, 299.47 1.94 M1.62 344.58 C86.1 247.4, 170.58 150.22, 299.47 1.94 M2.01 350.23 C76.61 264.41, 151.2 178.6, 304.45 2.3 M2.01 350.23 C64.7 278.11, 127.39 206, 304.45 2.3 M1.75 356.62 C105.6 237.16, 209.45 117.69, 310.1 1.91 M1.75 356.62 C79.19 267.53, 156.64 178.45, 310.1 1.91 M1.49 363.02 C66.45 288.29, 131.42 213.55, 315.08 2.27 M1.49 363.02 C65.14 289.79, 128.8 216.57, 315.08 2.27 M1.88 368.66 C109.44 244.93, 217 121.2, 320.73 1.88 M1.88 368.66 C102.1 253.38, 202.31 138.1, 320.73 1.88 M1.62 375.06 C121.92 236.67, 242.22 98.28, 325.71 2.24 M1.62 375.06 C129.41 228.06, 257.2 81.05, 325.71 2.24 M2.02 380.71 C108.42 258.31, 214.82 135.91, 331.36 1.84 M2.02 380.71 C101.97 265.72, 201.92 150.74, 331.36 1.84 M1.75 387.1 C130.27 239.26, 258.78 91.43, 336.34 2.2 M1.75 387.1 C84.59 291.82, 167.42 196.53, 336.34 2.2 M1.49 393.5 C113.31 264.87, 225.12 136.24, 341.99 1.81 M1.49 393.5 C93.77 287.34, 186.06 181.18, 341.99 1.81 M1.89 399.14 C112.09 272.37, 222.3 145.59, 346.97 2.17 M1.89 399.14 C123.02 259.8, 244.15 120.45, 346.97 2.17 M1.63 405.54 C112.49 278.01, 223.36 150.47, 352.62 1.77 M1.63 405.54 C103.79 288.02, 205.95 170.5, 352.62 1.77 M2.02 411.18 C101.08 297.23, 200.14 183.28, 357.6 2.13 M2.02 411.18 C78.39 323.33, 154.76 235.48, 357.6 2.13 M1.76 417.58 C137.73 261.16, 273.71 104.74, 363.25 1.74 M1.76 417.58 C95.62 309.61, 189.48 201.63, 363.25 1.74 M1.5 423.98 C145.08 258.81, 288.66 93.64, 368.23 2.1 M1.5 423.98 C100.81 309.73, 200.12 195.49, 368.23 2.1 M1.89 429.62 C123.93 289.24, 245.97 148.85, 373.88 1.7 M1.89 429.62 C111.52 303.51, 221.15 177.4, 373.88 1.7 M1.63 436.02 C83.12 342.28, 164.6 248.54, 378.86 2.06 M1.63 436.02 C104.6 317.56, 207.58 199.11, 378.86 2.06 M2.02 441.66 C123.65 301.75, 245.27 161.84, 383.85 2.42 M2.02 441.66 C130.33 294.06, 258.64 146.46, 383.85 2.42 M1.76 448.06 C132.84 297.27, 263.92 146.49, 389.49 2.03 M1.76 448.06 C116.92 315.59, 232.08 183.11, 389.49 2.03 M1.5 454.46 C88.97 353.84, 176.44 253.22, 394.48 2.39 M1.5 454.46 C137.2 298.36, 272.9 142.25, 394.48 2.39 M1.9 460.1 C149.95 289.79, 298 119.47, 400.12 1.99 M1.9 460.1 C137.5 304.11, 273.1 148.12, 400.12 1.99 M1.64 466.5 C99.84 353.53, 198.04 240.56, 405.11 2.35 M1.64 466.5 C125.12 324.45, 248.61 182.39, 405.11 2.35 M2.03 472.14 C148.93 303.16, 295.82 134.18, 410.75 1.96 M2.03 472.14 C134.04 320.28, 266.05 168.42, 410.75 1.96 M1.77 478.54 C131.04 329.83, 260.32 181.11, 415.74 2.32 M1.77 478.54 C94.38 372.01, 186.99 265.47, 415.74 2.32 M1.51 484.94 C157.4 305.61, 313.29 126.27, 421.38 1.93 M1.51 484.94 C121.49 346.91, 241.48 208.88, 421.38 1.93 M1.9 490.58 C124.43 349.63, 246.95 208.68, 426.37 2.29 M1.9 490.58 C140.09 331.61, 278.28 172.65, 426.37 2.29 M1.64 496.98 C133.3 345.53, 264.95 194.07, 432.01 1.89 M1.64 496.98 C170.39 302.86, 339.14 108.73, 432.01 1.89 M2.03 502.62 C158.65 322.46, 315.27 142.29, 437 2.25 M2.03 502.62 C115.46 372.14, 228.89 241.66, 437 2.25 M1.77 509.02 C129.58 361.99, 257.39 214.97, 442.64 1.86 M1.77 509.02 C145.97 343.14, 290.18 177.25, 442.64 1.86 M1.51 515.42 C109.56 391.13, 217.6 266.83, 447.63 2.22 M1.51 515.42 C135.53 361.25, 269.54 207.09, 447.63 2.22 M1.91 521.06 C127.38 376.72, 252.85 232.38, 453.27 1.82 M1.91 521.06 C136.28 366.48, 270.66 211.9, 453.27 1.82 M1.64 527.46 C174.62 328.47, 347.6 129.48, 458.26 2.18 M1.64 527.46 C155.69 350.25, 309.73 173.04, 458.26 2.18 M2.04 533.1 C118.9 398.67, 235.77 264.23, 463.9 1.79 M2.04 533.1 C109.57 409.4, 217.11 285.69, 463.9 1.79 M1.78 539.5 C161.48 355.78, 321.19 172.06, 468.89 2.15 M1.78 539.5 C135.58 385.58, 269.38 231.65, 468.89 2.15 M1.52 545.9 C108.43 422.91, 215.33 299.93, 474.53 1.75 M1.52 545.9 C182.76 337.4, 364.01 128.89, 474.53 1.75 M1.91 551.54 C112.46 424.37, 223 297.21, 479.52 2.11 M1.91 551.54 C137.71 395.32, 273.51 239.1, 479.52 2.11 M1.65 557.94 C115.79 426.64, 229.92 295.34, 485.17 1.72 M1.65 557.94 C157.03 379.19, 312.41 200.45, 485.17 1.72 M2.04 563.58 C136.6 408.79, 271.15 254.01, 490.15 2.08 M2.04 563.58 C143.38 401, 284.71 238.41, 490.15 2.08 M1.78 569.98 C174.88 370.85, 347.98 171.73, 495.8 1.68 M1.78 569.98 C170.66 375.71, 339.54 181.43, 495.8 1.68 M1.52 576.38 C116.77 443.8, 232.02 311.22, 500.78 2.04 M1.52 576.38 C142.58 414.1, 283.65 251.83, 500.78 2.04 M1.92 582.02 C135.12 428.78, 268.33 275.55, 505.77 2.4 M1.92 582.02 C133.44 430.72, 264.96 279.43, 505.77 2.4 M1.65 588.42 C196.32 364.48, 390.98 140.55, 512.07 1.25 M1.65 588.42 C137.21 432.48, 272.77 276.53, 512.07 1.25 M2.05 594.06 C157.32 415.44, 312.6 236.81, 517.06 1.61 M2.05 594.06 C113.86 465.44, 225.67 336.81, 517.06 1.61 M1.79 600.46 C178.38 397.31, 354.98 194.16, 521.39 2.73 M1.79 600.46 C138.37 443.34, 274.95 286.23, 521.39 2.73 M1.53 606.86 C113.52 478.03, 225.51 349.2, 526.37 3.09 M1.53 606.86 C143.34 443.72, 285.16 280.58, 526.37 3.09 M1.92 612.5 C132.34 462.47, 262.76 312.44, 530.05 4.96 M1.92 612.5 C171.13 417.85, 340.34 223.19, 530.05 4.96 M1.66 618.9 C203.71 386.47, 405.75 154.04, 533.72 6.83 M1.66 618.9 C109.29 495.08, 216.93 371.26, 533.72 6.83 M2.05 624.54 C200.65 396.08, 399.25 167.61, 536.74 9.45 M2.05 624.54 C165.74 436.24, 329.42 247.95, 536.74 9.45 M1.79 630.94 C113.8 502.09, 225.8 373.25, 539.1 12.83 M1.79 630.94 C172.25 434.85, 342.71 238.76, 539.1 12.83 M1.53 637.34 C168.84 444.87, 336.15 252.41, 540.81 16.97 M1.53 637.34 C168.63 445.11, 335.72 252.89, 540.81 16.97 M1.27 643.73 C183.08 434.59, 364.89 225.44, 543.17 20.34 M1.27 643.73 C131.75 493.64, 262.23 343.54, 543.17 20.34 M2.32 648.62 C212.56 406.78, 422.79 164.93, 543.57 25.99 M2.32 648.62 C133.97 497.18, 265.61 345.74, 543.57 25.99 M4.68 652 C125.87 512.59, 247.05 373.19, 543.31 32.39 M4.68 652 C177.32 453.41, 349.95 254.82, 543.31 32.39 M5.73 656.89 C144.98 496.7, 284.23 336.51, 543.05 38.78 M5.73 656.89 C134.58 508.67, 263.43 360.44, 543.05 38.78 M8.1 660.27 C205.73 432.92, 403.35 205.58, 543.44 44.43 M8.1 660.27 C129.04 521.14, 249.98 382.02, 543.44 44.43 M11.12 662.89 C172.72 476.98, 334.33 291.08, 543.18 50.82 M11.12 662.89 C146.79 506.82, 282.47 350.74, 543.18 50.82 M14.13 665.52 C166.81 489.88, 319.49 314.24, 543.57 56.47 M14.13 665.52 C198.56 453.35, 383 241.19, 543.57 56.47 M18.46 666.63 C140.01 526.81, 261.56 386.98, 543.31 62.87 M18.46 666.63 C158.13 505.96, 297.8 345.29, 543.31 62.87 M22.8 667.75 C195.07 469.57, 367.34 271.4, 543.05 69.26 M22.8 667.75 C127.4 547.42, 232 427.09, 543.05 69.26 M26.47 669.62 C171.36 502.94, 316.25 336.27, 543.45 74.91 M26.47 669.62 C167.25 507.67, 308.03 345.72, 543.45 74.91 M32.77 668.47 C172.63 507.58, 312.49 346.68, 543.18 81.3 M32.77 668.47 C144.62 539.8, 256.47 411.13, 543.18 81.3 M37.76 668.83 C146.72 543.48, 255.69 418.12, 543.58 86.95 M37.76 668.83 C186.79 497.38, 335.83 325.93, 543.58 86.95 M43.4 668.43 C204.26 483.38, 365.13 298.33, 543.32 93.34 M43.4 668.43 C223.16 461.65, 402.91 254.86, 543.32 93.34 M48.39 668.79 C212.06 480.5, 375.74 292.22, 543.06 99.74 M48.39 668.79 C234.4 454.82, 420.4 240.84, 543.06 99.74 M54.03 668.4 C204.42 495.39, 354.81 322.39, 543.45 105.39 M54.03 668.4 C201.45 498.81, 348.88 329.21, 543.45 105.39 M59.02 668.76 C179.36 530.32, 299.7 391.88, 543.19 111.78 M59.02 668.76 C243.61 456.41, 428.2 244.06, 543.19 111.78 M64.66 668.36 C204.27 507.76, 343.89 347.15, 543.58 117.43 M64.66 668.36 C181.91 533.48, 299.16 398.6, 543.58 117.43 M69.65 668.72 C220.51 495.18, 371.37 321.63, 543.32 123.82 M69.65 668.72 C257.69 452.4, 445.74 236.08, 543.32 123.82 M75.29 668.33 C245.36 472.68, 415.43 277.04, 543.06 130.22 M75.29 668.33 C221.69 499.92, 368.09 331.51, 543.06 130.22 M80.28 668.69 C181.65 552.07, 283.03 435.45, 543.46 135.86 M80.28 668.69 C233.96 491.9, 387.64 315.11, 543.46 135.86 M85.92 668.3 C195.99 541.67, 306.07 415.04, 543.19 142.26 M85.92 668.3 C246.04 484.1, 406.15 299.91, 543.19 142.26 M90.91 668.66 C252.06 483.28, 413.2 297.9, 543.59 147.91 M90.91 668.66 C233.99 504.06, 377.08 339.46, 543.59 147.91 M96.55 668.26 C216.42 530.37, 336.28 392.48, 543.33 154.3 M96.55 668.26 C240.74 502.39, 384.93 336.52, 543.33 154.3 M101.54 668.62 C218.22 534.4, 334.9 400.17, 543.07 160.7 M101.54 668.62 C234.94 515.16, 368.34 361.7, 543.07 160.7 M107.18 668.23 C203.07 557.92, 298.96 447.61, 543.46 166.34 M107.18 668.23 C246.33 508.16, 385.47 348.09, 543.46 166.34 M112.17 668.59 C201.07 566.32, 289.97 464.05, 543.2 172.74 M112.17 668.59 C226.02 537.61, 339.88 406.64, 543.2 172.74 M117.15 668.95 C243.73 523.34, 370.3 377.74, 543.59 178.39 M117.15 668.95 C265.93 497.8, 414.71 326.65, 543.59 178.39 M122.8 668.55 C279.5 488.29, 436.2 308.03, 543.33 184.78 M122.8 668.55 C290.23 475.94, 457.66 283.34, 543.33 184.78 M127.78 668.91 C264.46 511.69, 401.13 354.47, 543.07 191.18 M127.78 668.91 C270.86 504.32, 413.94 339.72, 543.07 191.18 M133.43 668.52 C249.13 535.42, 364.83 402.31, 543.46 196.82 M133.43 668.52 C265.48 516.61, 397.53 364.71, 543.46 196.82 M138.41 668.88 C290.02 494.48, 441.62 320.08, 543.2 203.22 M138.41 668.88 C284.04 501.35, 429.67 333.83, 543.2 203.22 M144.06 668.48 C296.62 492.98, 449.18 317.48, 543.6 208.86 M144.06 668.48 C254.19 541.79, 364.33 415.09, 543.6 208.86 M149.04 668.84 C274.85 524.12, 400.65 379.4, 543.34 215.26 M149.04 668.84 C295.05 500.88, 441.05 332.93, 543.34 215.26 M154.69 668.45 C250.49 558.25, 346.28 448.04, 543.07 221.66 M154.69 668.45 C279.22 525.19, 403.75 381.94, 543.07 221.66 M159.68 668.81 C265.92 546.59, 372.17 424.37, 543.47 227.3 M159.68 668.81 C264.74 547.95, 369.8 427.09, 543.47 227.3 M165.32 668.41 C308.84 503.31, 452.37 338.2, 543.21 233.7 M165.32 668.41 C294.01 520.38, 422.69 372.34, 543.21 233.7 M170.31 668.77 C315.91 501.27, 461.52 333.77, 543.6 239.34 M170.31 668.77 C278.41 544.42, 386.51 420.06, 543.6 239.34 M175.95 668.38 C254.05 578.54, 332.15 488.69, 543.34 245.74 M175.95 668.38 C264.41 566.61, 352.87 464.85, 543.34 245.74 M180.94 668.74 C263.91 573.29, 346.88 477.84, 543.08 252.14 M180.94 668.74 C311.01 519.11, 441.08 369.47, 543.08 252.14 M186.58 668.34 C295.22 543.37, 403.86 418.39, 543.47 257.78 M186.58 668.34 C311.02 525.2, 435.45 382.05, 543.47 257.78 M191.57 668.71 C329.58 509.94, 467.59 351.17, 543.21 264.18 M191.57 668.71 C313.15 528.84, 434.74 388.97, 543.21 264.18 M197.21 668.31 C315.97 531.69, 434.73 395.08, 543.61 269.82 M197.21 668.31 C271.11 583.29, 345.02 498.28, 543.61 269.82 M202.2 668.67 C306.85 548.28, 411.5 427.89, 543.35 276.22 M202.2 668.67 C282.17 576.67, 362.15 484.67, 543.35 276.22 M207.84 668.28 C323.01 535.79, 438.18 403.3, 543.08 282.62 M207.84 668.28 C276.86 588.88, 345.88 509.48, 543.08 282.62 M212.83 668.64 C287.79 582.4, 362.75 496.17, 543.48 288.26 M212.83 668.64 C322.66 542.28, 432.5 415.93, 543.48 288.26 M218.47 668.24 C299.76 574.73, 381.05 481.21, 543.22 294.66 M218.47 668.24 C322.12 549, 425.78 429.76, 543.22 294.66 M223.46 668.6 C298.75 581.99, 374.04 495.37, 543.61 300.3 M223.46 668.6 C309.21 569.95, 394.97 471.3, 543.61 300.3 M229.1 668.21 C334.4 547.07, 439.71 425.93, 543.35 306.7 M229.1 668.21 C344.76 535.15, 460.42 402.1, 543.35 306.7 M234.09 668.57 C309.22 582.14, 384.35 495.7, 543.09 313.1 M234.09 668.57 C355.28 529.15, 476.47 389.73, 543.09 313.1 M239.07 668.93 C360.2 529.58, 481.33 390.24, 543.48 318.74 M239.07 668.93 C357.53 532.65, 476 396.38, 543.48 318.74 M244.72 668.53 C361.05 534.7, 477.39 400.87, 543.22 325.14 M244.72 668.53 C357.5 538.79, 470.28 409.05, 543.22 325.14 M249.7 668.89 C357.56 544.82, 465.41 420.75, 543.62 330.78 M249.7 668.89 C320.55 587.4, 391.39 505.9, 543.62 330.78 M255.35 668.5 C325.1 588.26, 394.85 508.02, 543.36 337.18 M255.35 668.5 C318.48 595.87, 381.61 523.25, 543.36 337.18 M260.33 668.86 C344.74 571.76, 429.15 474.65, 543.09 343.58 M260.33 668.86 C318.05 602.46, 375.76 536.07, 543.09 343.58 M265.98 668.46 C375.83 542.09, 485.68 415.73, 543.49 349.22 M265.98 668.46 C330.55 594.18, 395.12 519.9, 543.49 349.22 M270.96 668.82 C373.61 550.74, 476.26 432.65, 543.23 355.62 M270.96 668.82 C374.61 549.59, 478.26 430.36, 543.23 355.62 M276.61 668.43 C349.82 584.2, 423.04 499.98, 543.62 361.26 M276.61 668.43 C345.1 589.64, 413.59 510.84, 543.62 361.26 M281.59 668.79 C364.05 573.93, 446.52 479.07, 543.36 367.66 M281.59 668.79 C358.79 579.98, 436 491.17, 543.36 367.66 M287.24 668.39 C371.38 571.59, 455.53 474.79, 543.1 374.06 M287.24 668.39 C351.41 594.58, 415.57 520.76, 543.1 374.06 M292.22 668.75 C380.97 566.67, 469.71 464.58, 543.49 379.7 M292.22 668.75 C365.81 584.1, 439.4 499.44, 543.49 379.7 M297.87 668.36 C356.66 600.73, 415.44 533.1, 543.23 386.1 M297.87 668.36 C370.87 584.38, 443.86 500.41, 543.23 386.1 M302.85 668.72 C365.53 596.62, 428.2 524.52, 543.63 391.74 M302.85 668.72 C385.31 573.87, 467.76 479.02, 543.63 391.74 M308.5 668.33 C382.3 583.42, 456.1 498.52, 543.37 398.14 M308.5 668.33 C355.59 614.15, 402.69 559.97, 543.37 398.14 M313.48 668.69 C390.02 580.64, 466.56 492.59, 543.1 404.54 M313.48 668.69 C367.09 607.02, 420.69 545.36, 543.1 404.54 M319.13 668.29 C383.92 593.76, 448.71 519.23, 543.5 410.18 M319.13 668.29 C383.2 594.59, 447.27 520.88, 543.5 410.18 M324.11 668.65 C411.16 568.51, 498.22 468.37, 543.24 416.58 M324.11 668.65 C406.84 573.48, 489.57 478.32, 543.24 416.58 M329.76 668.26 C399.76 587.73, 469.76 507.2, 543.63 422.22 M329.76 668.26 C372.58 619, 415.4 569.73, 543.63 422.22 M334.74 668.62 C377.58 619.34, 420.42 570.06, 543.37 428.62 M334.74 668.62 C378.19 618.63, 421.65 568.65, 543.37 428.62 M340.39 668.22 C385.41 616.43, 430.43 564.64, 543.11 435.02 M340.39 668.22 C404.04 595, 467.7 521.77, 543.11 435.02 M345.37 668.58 C392.69 614.15, 440 559.72, 543.5 440.66 M345.37 668.58 C420.87 581.73, 496.37 494.88, 543.5 440.66 M350.36 668.94 C426.25 581.64, 502.15 494.33, 543.24 447.06 M350.36 668.94 C411.74 598.33, 473.13 527.71, 543.24 447.06 M356 668.55 C413.63 602.26, 471.25 535.97, 543.64 452.7 M356 668.55 C426.03 587.99, 496.06 507.44, 543.64 452.7 M360.99 668.91 C413.87 608.07, 466.76 547.24, 543.38 459.1 M360.99 668.91 C402.25 621.45, 443.5 573.99, 543.38 459.1 M366.63 668.51 C428.01 597.9, 489.39 527.3, 543.11 465.5 M366.63 668.51 C416.73 610.88, 466.83 553.25, 543.11 465.5 M371.62 668.87 C438.34 592.12, 505.06 515.37, 543.51 471.14 M371.62 668.87 C435.73 595.12, 499.84 521.38, 543.51 471.14 M377.26 668.48 C414.87 625.22, 452.47 581.97, 543.25 477.54 M377.26 668.48 C416.12 623.78, 454.98 579.08, 543.25 477.54 M382.25 668.84 C445.64 595.92, 509.03 523, 543.64 483.18 M382.25 668.84 C417.04 628.82, 451.82 588.81, 543.64 483.18 M387.89 668.44 C440.31 608.14, 492.73 547.84, 543.38 489.58 M387.89 668.44 C444.93 602.83, 501.97 537.22, 543.38 489.58 M392.88 668.8 C428.44 627.9, 464 586.99, 543.12 495.98 M392.88 668.8 C442.87 611.3, 492.86 553.79, 543.12 495.98 M398.52 668.41 C427.74 634.8, 456.96 601.19, 543.51 501.62 M398.52 668.41 C434.31 627.24, 470.1 586.07, 543.51 501.62 M403.51 668.77 C442.77 623.61, 482.02 578.45, 543.25 508.02 M403.51 668.77 C435 632.55, 466.49 596.32, 543.25 508.02 M409.15 668.38 C445.43 626.65, 481.7 584.92, 543.65 513.66 M409.15 668.38 C444.23 628.03, 479.31 587.68, 543.65 513.66 M414.14 668.74 C454.79 621.97, 495.44 575.21, 543.38 520.06 M414.14 668.74 C454.97 621.76, 495.8 574.79, 543.38 520.06 M419.78 668.34 C459.24 622.95, 498.7 577.55, 543.12 526.46 M419.78 668.34 C446.58 637.51, 473.38 606.69, 543.12 526.46 M424.77 668.7 C466.9 620.24, 509.03 571.77, 543.52 532.1 M424.77 668.7 C466.21 621.03, 507.65 573.36, 543.52 532.1 M430.41 668.31 C459.58 634.76, 488.74 601.21, 543.26 538.5 M430.41 668.31 C469.53 623.31, 508.64 578.31, 543.26 538.5 M435.4 668.67 C462.14 637.91, 488.88 607.14, 543.65 544.14 M435.4 668.67 C477.71 619.99, 520.03 571.32, 543.65 544.14 M441.04 668.27 C473.76 630.64, 506.48 593, 543.39 550.54 M441.04 668.27 C471.87 632.81, 502.7 597.34, 543.39 550.54 M446.03 668.63 C471.74 639.06, 497.44 609.49, 543.13 556.93 M446.03 668.63 C468.35 642.96, 490.66 617.29, 543.13 556.93 M451.67 668.24 C476.12 640.11, 500.57 611.99, 543.52 562.58 M451.67 668.24 C484.3 630.71, 516.92 593.18, 543.52 562.58 M456.66 668.6 C483.47 637.76, 510.28 606.92, 543.26 568.98 M456.66 668.6 C489.22 631.14, 521.78 593.69, 543.26 568.98 M461.65 668.96 C493.52 632.3, 525.39 595.63, 543.66 574.62 M461.65 668.96 C478.43 649.66, 495.21 630.35, 543.66 574.62 M467.29 668.56 C490.98 641.32, 514.66 614.07, 543.39 581.02 M467.29 668.56 C487.17 645.69, 507.05 622.82, 543.39 581.02 M472.28 668.92 C493.95 644, 515.62 619.07, 543.13 587.41 M472.28 668.92 C498.31 638.98, 524.33 609.04, 543.13 587.41 M477.92 668.53 C492.85 651.35, 507.78 634.18, 543.53 593.06 M477.92 668.53 C493.64 650.45, 509.35 632.37, 543.53 593.06 M482.91 668.89 C504.92 643.57, 526.93 618.25, 543.27 599.46 M482.91 668.89 C506.04 642.28, 529.17 615.67, 543.27 599.46 M488.55 668.49 C502.03 652.99, 515.51 637.48, 543.66 605.1 M488.55 668.49 C509.85 643.99, 531.16 619.48, 543.66 605.1 M493.54 668.85 C505.52 655.07, 517.5 641.29, 543.4 611.5 M493.54 668.85 C504.21 656.58, 514.87 644.31, 543.4 611.5 M499.18 668.46 C515.73 649.43, 532.27 630.39, 543.14 617.89 M499.18 668.46 C512.37 653.29, 525.55 638.13, 543.14 617.89 M504.17 668.82 C517.38 653.62, 530.6 638.41, 543.53 623.54 M504.17 668.82 C513.73 657.82, 523.3 646.81, 543.53 623.54 M509.81 668.42 C518.69 658.22, 527.56 648.01, 543.27 629.93 M509.81 668.42 C519.82 656.91, 529.83 645.4, 543.27 629.93 M513.49 670.29 C524.78 657.31, 536.07 644.32, 543.01 636.33 M513.49 670.29 C521.63 660.93, 529.77 651.56, 543.01 636.33 M519.79 669.15 C528.55 659.07, 537.3 648.99, 542.75 642.73 M519.79 669.15 C524.97 663.19, 530.14 657.23, 542.75 642.73 M526.74 667.24 C530.2 663.26, 533.66 659.28, 541.17 650.64 M526.74 667.24 C531.64 661.6, 536.55 655.96, 541.17 650.64" stroke="#ced4da" stroke-width="0.5" fill="none"></path><path d="M32 0 M32 0 C139.09 0, 246.18 0, 511 0 M32 0 C148.1 0, 264.21 0, 511 0 M511 0 C532.33 0, 543 10.67, 543 32 M511 0 C532.33 0, 543 10.67, 543 32 M543 32 C543 234.31, 543 436.63, 543 636 M543 32 C543 197.14, 543 362.28, 543 636 M543 636 C543 657.33, 532.33 668, 511 668 M543 636 C543 657.33, 532.33 668, 511 668 M511 668 C337.79 668, 164.57 668, 32 668 M511 668 C361.9 668, 212.8 668, 32 668 M32 668 C10.67 668, 0 657.33, 0 636 M32 668 C10.67 668, 0 657.33, 0 636 M0 636 C0 456.94, 0 277.88, 0 32 M0 636 C0 515.15, 0 394.31, 0 32 M0 32 C0 10.67, 10.67 0, 32 0 M0 32 C0 10.67, 10.67 0, 32 0" stroke="#000000" stroke-width="1" fill="none"></path></g><g transform="translate(235.75 39.25) rotate(0 38 18)"><text x="38" y="25" font-family="Virgil, Segoe UI Emoji" font-size="28px" fill="#000000" text-anchor="middle" style="white-space: pre;" direction="ltr">Input</text></g><g stroke-linecap="round" transform="translate(61.75 105.5) rotate(0 218 47.5)"><path d="M23.75 0 M23.75 0 C113.65 0, 203.55 0, 412.25 0 M23.75 0 C155.3 0, 286.86 0, 412.25 0 M412.25 0 C428.08 0, 436 7.92, 436 23.75 M412.25 0 C428.08 0, 436 7.92, 436 23.75 M436 23.75 C436 37.06, 436 50.37, 436 71.25 M436 23.75 C436 35.8, 436 47.85, 436 71.25 M436 71.25 C436 87.08, 428.08 95, 412.25 95 M436 71.25 C436 87.08, 428.08 95, 412.25 95 M412.25 95 C301.04 95, 189.83 95, 23.75 95 M412.25 95 C319.72 95, 227.2 95, 23.75 95 M23.75 95 C7.92 95, 0 87.08, 0 71.25 M23.75 95 C7.92 95, 0 87.08, 0 71.25 M0 71.25 C0 52.54, 0 33.84, 0 23.75 M0 71.25 C0 57.45, 0 43.65, 0 23.75 M0 23.75 C0 7.92, 7.92 0, 23.75 0 M0 23.75 C0 7.92, 7.92 0, 23.75 0" stroke="#c92a2a" stroke-width="1" fill="none"></path></g><g transform="translate(152.25 365.75) rotate(0 115.5 13)"><text x="115.5" y="18" font-family="Virgil, Segoe UI Emoji" font-size="20px" fill="#5c940d" text-anchor="middle" style="white-space: pre;" direction="ltr">Context of the session</text></g><g stroke-linecap="round" transform="translate(59.5 332.75) rotate(0 218 47.5)"><path d="M23.75 0 M23.75 0 C159.89 0, 296.04 0, 412.25 0 M23.75 0 C137.74 0, 251.73 0, 412.25 0 M412.25 0 C428.08 0, 436 7.92, 436 23.75 M412.25 0 C428.08 0, 436 7.92, 436 23.75 M436 23.75 C436 33.55, 436 43.34, 436 71.25 M436 23.75 C436 37.58, 436 51.4, 436 71.25 M436 71.25 C436 87.08, 428.08 95, 412.25 95 M436 71.25 C436 87.08, 428.08 95, 412.25 95 M412.25 95 C305.57 95, 198.88 95, 23.75 95 M412.25 95 C294.47 95, 176.69 95, 23.75 95 M23.75 95 C7.92 95, 0 87.08, 0 71.25 M23.75 95 C7.92 95, 0 87.08, 0 71.25 M0 71.25 C0 54.77, 0 38.29, 0 23.75 M0 71.25 C0 58.05, 0 44.86, 0 23.75 M0 23.75 C0 7.92, 7.92 0, 23.75 0 M0 23.75 C0 7.92, 7.92 0, 23.75 0" stroke="#5c940d" stroke-width="1" fill="none"></path></g><g stroke-linecap="round" transform="translate(60.75 219.5) rotate(0 218 47.5)"><path d="M23.75 0 M23.75 0 C154.63 0, 285.51 0, 412.25 0 M23.75 0 C129.21 0, 234.67 0, 412.25 0 M412.25 0 C428.08 0, 436 7.92, 436 23.75 M412.25 0 C428.08 0, 436 7.92, 436 23.75 M436 23.75 C436 38.61, 436 53.48, 436 71.25 M436 23.75 C436 36.16, 436 48.57, 436 71.25 M436 71.25 C436 87.08, 428.08 95, 412.25 95 M436 71.25 C436 87.08, 428.08 95, 412.25 95 M412.25 95 C272.09 95, 131.93 95, 23.75 95 M412.25 95 C264.31 95, 116.37 95, 23.75 95 M23.75 95 C7.92 95, 0 87.08, 0 71.25 M23.75 95 C7.92 95, 0 87.08, 0 71.25 M0 71.25 C0 53.27, 0 35.3, 0 23.75 M0 71.25 C0 52.82, 0 34.4, 0 23.75 M0 23.75 C0 7.92, 7.92 0, 23.75 0 M0 23.75 C0 7.92, 7.92 0, 23.75 0" stroke="#e67700" stroke-width="1" fill="none"></path></g><g transform="translate(165.5 253.25000000000006) rotate(0 100.5 13)"><text x="100.5" y="18" font-family="Virgil, Segoe UI Emoji" font-size="20px" fill="#e67700" text-anchor="middle" style="white-space: pre;" direction="ltr">Title of the session</text></g><g transform="translate(137 126.25) rotate(0 143.5 26)"><text x="143.5" y="18" font-family="Virgil, Segoe UI Emoji" font-size="20px" fill="#c92a2a" text-anchor="middle" style="white-space: pre;" direction="ltr">Interventions of the deputy </text><text x="143.5" y="44" font-family="Virgil, Segoe UI Emoji" font-size="20px" fill="#c92a2a" text-anchor="middle" style="white-space: pre;" direction="ltr">during the session</text></g><g stroke-linecap="round"><g transform="translate(496.1388888888889 153.83333333333331) rotate(0 68.125 0)"><path d="M0 0 C22.71 0, 113.54 0, 136.25 0 M0 0 C22.71 0, 113.54 0, 136.25 0" stroke="#d9480f" stroke-width="1" fill="none"></path></g></g><mask></mask><g stroke-linecap="round"><g transform="translate(498.6388888888889 268.8333333333333) rotate(0 66.875 0)"><path d="M0 0 C22.29 0, 111.46 0, 133.75 0 M0 0 C22.29 0, 111.46 0, 133.75 0" stroke="#e67700" stroke-width="1" fill="none"></path></g></g><mask></mask><g stroke-linecap="round"><g transform="translate(496.1388888888889 382.58333333333326) rotate(0 70 0)"><path d="M0 0 C23.33 0, 116.67 0, 140 0 M0 0 C23.33 0, 116.67 0, 140 0" stroke="#5c940d" stroke-width="1" fill="none"></path></g></g><mask></mask><g transform="translate(1841.0555555555552 167.20833333333331) rotate(0 35.5 18)"><text x="35.5" y="25" font-family="Virgil, Segoe UI Emoji" font-size="28px" fill="#000000" text-anchor="middle" style="white-space: pre;" direction="ltr">Right</text></g><g transform="translate(1838.0555555555552 250.45833333333326) rotate(0 46 18)"><text x="46" y="25" font-family="Virgil, Segoe UI Emoji" font-size="28px" fill="#000000" text-anchor="middle" style="white-space: pre;" direction="ltr">Center</text></g><g transform="translate(1849.5555555555552 342.95833333333326) rotate(0 32 18)"><text x="32" y="25" font-family="Virgil, Segoe UI Emoji" font-size="28px" fill="#000000" text-anchor="middle" style="white-space: pre;" direction="ltr">Left</text></g><g stroke-linecap="round" transform="translate(1299.0555555555552 236.95833333333331) rotate(0 26.25 28)"><path d="M52.5 28 C52.5 29.62, 52.37 31.27, 52.1 32.86 C51.84 34.46, 51.44 36.05, 50.92 37.58 C50.4 39.1, 49.74 40.6, 48.98 42 C48.22 43.4, 47.34 44.76, 46.36 46 C45.38 47.24, 44.29 48.41, 43.12 49.45 C41.96 50.49, 40.69 51.44, 39.38 52.25 C38.06 53.06, 36.66 53.76, 35.23 54.31 C33.8 54.87, 32.3 55.29, 30.81 55.57 C29.31 55.86, 27.77 56, 26.25 56 C24.73 56, 23.19 55.86, 21.69 55.57 C20.2 55.29, 18.7 54.87, 17.27 54.31 C15.84 53.76, 14.44 53.06, 13.13 52.25 C11.81 51.44, 10.54 50.49, 9.38 49.45 C8.21 48.41, 7.12 47.24, 6.14 46 C5.16 44.76, 4.28 43.4, 3.52 42 C2.76 40.6, 2.1 39.1, 1.58 37.58 C1.06 36.05, 0.66 34.46, 0.4 32.86 C0.13 31.27, 0 29.62, 0 28 C0 26.38, 0.13 24.73, 0.4 23.14 C0.66 21.54, 1.06 19.95, 1.58 18.42 C2.1 16.9, 2.76 15.4, 3.52 14 C4.28 12.6, 5.16 11.24, 6.14 10 C7.12 8.76, 8.21 7.59, 9.38 6.55 C10.54 5.51, 11.81 4.56, 13.12 3.75 C14.44 2.94, 15.84 2.24, 17.27 1.69 C18.7 1.13, 20.2 0.71, 21.69 0.43 C23.19 0.14, 24.73 0, 26.25 0 C27.77 0, 29.31 0.14, 30.81 0.43 C32.3 0.71, 33.8 1.13, 35.23 1.69 C36.66 2.24, 38.06 2.94, 39.37 3.75 C40.69 4.56, 41.96 5.51, 43.12 6.55 C44.29 7.59, 45.38 8.76, 46.36 10 C47.34 11.24, 48.22 12.6, 48.98 14 C49.74 15.4, 50.4 16.9, 50.92 18.42 C51.44 19.95, 51.84 21.54, 52.1 23.14 C52.37 24.73, 52.43 27.19, 52.5 28 C52.57 28.81, 52.57 27.19, 52.5 28" stroke="#000000" stroke-width="1" fill="none"></path></g><g transform="translate(1313.8055555555552 243.45833333333326) rotate(0 11.5 21.5)"><text x="11.5" y="30" font-family="Helvetica, Segoe UI Emoji" font-size="36px" fill="#000000" text-anchor="middle" style="white-space: pre;" direction="ltr">+</text></g><g stroke-linecap="round" transform="translate(61.0555555555552 556.9583333333333) rotate(0 218 47.5)"><path d="M23.75 0 M23.75 0 C165.93 0, 308.12 0, 412.25 0 M23.75 0 C167.52 0, 311.28 0, 412.25 0 M412.25 0 C428.08 0, 436 7.92, 436 23.75 M412.25 0 C428.08 0, 436 7.92, 436 23.75 M436 23.75 C436 38.67, 436 53.59, 436 71.25 M436 23.75 C436 35.4, 436 47.04, 436 71.25 M436 71.25 C436 87.08, 428.08 95, 412.25 95 M436 71.25 C436 87.08, 428.08 95, 412.25 95 M412.25 95 C331.71 95, 251.17 95, 23.75 95 M412.25 95 C278.99 95, 145.72 95, 23.75 95 M23.75 95 C7.92 95, 0 87.08, 0 71.25 M23.75 95 C7.92 95, 0 87.08, 0 71.25 M0 71.25 C0 57.47, 0 43.68, 0 23.75 M0 71.25 C0 55.67, 0 40.1, 0 23.75 M0 23.75 C0 7.92, 7.92 0, 23.75 0 M0 23.75 C0 7.92, 7.92 0, 23.75 0" stroke="#862e9c" stroke-width="1" fill="none"></path></g><g stroke-linecap="round" transform="translate(61.0555555555552 445.70833333333326) rotate(0 218 47.5)"><path d="M23.75 0 M23.75 0 C104.29 0, 184.83 0, 412.25 0 M23.75 0 C157.01 0, 290.28 0, 412.25 0 M412.25 0 C428.08 0, 436 7.92, 436 23.75 M412.25 0 C428.08 0, 436 7.92, 436 23.75 M436 23.75 C436 37.53, 436 51.32, 436 71.25 M436 23.75 C436 39.33, 436 54.9, 436 71.25 M436 71.25 C436 87.08, 428.08 95, 412.25 95 M436 71.25 C436 87.08, 428.08 95, 412.25 95 M412.25 95 C279.03 95, 145.8 95, 23.75 95 M412.25 95 C282.73 95, 153.2 95, 23.75 95 M23.75 95 C7.92 95, 0 87.08, 0 71.25 M23.75 95 C7.92 95, 0 87.08, 0 71.25 M0 71.25 C0 60.12, 0 48.99, 0 23.75 M0 71.25 C0 54.21, 0 37.16, 0 23.75 M0 23.75 C0 7.92, 7.92 0, 23.75 0 M0 23.75 C0 7.92, 7.92 0, 23.75 0" stroke="#087f5b" stroke-width="1" fill="none"></path></g><g transform="translate(143.3055555555552 476.45833333333326) rotate(0 124.5 13)"><text x="124.5" y="18" font-family="Virgil, Segoe UI Emoji" font-size="20px" fill="#087f5b" text-anchor="middle" style="white-space: pre;" direction="ltr">Profession of the deputy</text></g><g transform="translate(117.8055555555552 586.4583333333333) rotate(0 150 26)"><text x="150" y="18" font-family="Virgil, Segoe UI Emoji" font-size="20px" fill="#862e9c" text-anchor="middle" style="white-space: pre;" direction="ltr">Other features on the deputy</text><text x="150" y="44" font-family="Virgil, Segoe UI Emoji" font-size="20px" fill="#862e9c" text-anchor="middle" style="white-space: pre;" direction="ltr">(gender, age, mandates, ...)</text></g><g stroke-linecap="round" transform="translate(631.5555555555552 332.58333333333326) rotate(0 135.625 50.625)"><path d="M25.31 0 L245.94 0 L257.01 1.58 L261.36 3.56 L264.92 6.33 L267.69 9.89 L269.67 14.24 L270.85 19.38 L271.25 75.94 L269.67 87.01 L267.69 91.36 L264.92 94.92 L261.36 97.69 L257.01 99.67 L245.94 101.25 L25.31 101.25 L14.24 99.67 L9.89 97.69 L6.33 94.92 L3.56 91.36 L1.58 87.01 L0.4 81.87 L0.4 19.38 L1.58 14.24 L3.56 9.89 L6.33 6.33 L9.89 3.56 L14.24 1.58 L25.31 0" stroke="none" stroke-width="0" fill="#15aabf"></path><path d="M25.31 0 M25.31 0 C109.27 0, 193.24 0, 245.94 0 M25.31 0 C83.29 0, 141.27 0, 245.94 0 M245.94 0 C262.81 0, 271.25 8.44, 271.25 25.31 M245.94 0 C262.81 0, 271.25 8.44, 271.25 25.31 M271.25 25.31 C271.25 40.35, 271.25 55.38, 271.25 75.94 M271.25 25.31 C271.25 43.22, 271.25 61.12, 271.25 75.94 M271.25 75.94 C271.25 92.81, 262.81 101.25, 245.94 101.25 M271.25 75.94 C271.25 92.81, 262.81 101.25, 245.94 101.25 M245.94 101.25 C174.53 101.25, 103.12 101.25, 25.31 101.25 M245.94 101.25 C160.8 101.25, 75.66 101.25, 25.31 101.25 M25.31 101.25 C8.44 101.25, 0 92.81, 0 75.94 M25.31 101.25 C8.44 101.25, 0 92.81, 0 75.94 M0 75.94 C0 58.64, 0 41.33, 0 25.31 M0 75.94 C0 59.41, 0 42.89, 0 25.31 M0 25.31 C0 8.44, 8.44 0, 25.31 0 M0 25.31 C0 8.44, 8.44 0, 25.31 0" stroke="#000000" stroke-width="1" fill="none"></path></g><g transform="translate(724.1805555555552 343.95833333333326) rotate(0 43 22)"><text x="43" y="35" font-family="Cascadia, Segoe UI Emoji" font-size="36px" fill="#000000" text-anchor="middle" style="white-space: pre;" direction="ltr">BERT</text></g><g transform="translate(736.6805555555552 390.20833333333326) rotate(0 30.5 12.5)"><text x="30.5" y="20" font-family="Cascadia, Segoe UI Emoji" font-size="20px" fill="#000000" text-anchor="middle" style="white-space: pre;" direction="ltr">[768]</text></g><g stroke-linecap="round" transform="translate(631.5555555555552 217.58333333333331) rotate(0 137.5 50.62499999999997)"><path d="M25.31 0 L249.69 0 L260.76 1.58 L265.11 3.56 L268.67 6.33 L271.44 9.89 L273.42 14.24 L274.6 19.38 L275 75.94 L273.42 87.01 L271.44 91.36 L268.67 94.92 L265.11 97.69 L260.76 99.67 L249.69 101.25 L25.31 101.25 L14.24 99.67 L9.89 97.69 L6.33 94.92 L3.56 91.36 L1.58 87.01 L0.4 81.87 L0.4 19.38 L1.58 14.24 L3.56 9.89 L6.33 6.33 L9.89 3.56 L14.24 1.58 L25.31 0" stroke="none" stroke-width="0" fill="#15aabf"></path><path d="M25.31 0 M25.31 0 C90.27 0, 155.23 0, 249.69 0 M25.31 0 C77.93 0, 130.54 0, 249.69 0 M249.69 0 C266.56 0, 275 8.44, 275 25.31 M249.69 0 C266.56 0, 275 8.44, 275 25.31 M275 25.31 C275 36.41, 275 47.5, 275 75.94 M275 25.31 C275 42.01, 275 58.7, 275 75.94 M275 75.94 C275 92.81, 266.56 101.25, 249.69 101.25 M275 75.94 C275 92.81, 266.56 101.25, 249.69 101.25 M249.69 101.25 C193.98 101.25, 138.28 101.25, 25.31 101.25 M249.69 101.25 C194.79 101.25, 139.89 101.25, 25.31 101.25 M25.31 101.25 C8.44 101.25, 0 92.81, 0 75.94 M25.31 101.25 C8.44 101.25, 0 92.81, 0 75.94 M0 75.94 C0 63.25, 0 50.57, 0 25.31 M0 75.94 C0 64.84, 0 53.74, 0 25.31 M0 25.31 C0 8.44, 8.44 0, 25.31 0 M0 25.31 C0 8.44, 8.44 0, 25.31 0" stroke="#000000" stroke-width="1" fill="none"></path></g><g transform="translate(726.0555555555552 234.83333333333331) rotate(0 43 22)"><text x="43" y="35" font-family="Cascadia, Segoe UI Emoji" font-size="36px" fill="#000000" text-anchor="middle" style="white-space: pre;" direction="ltr">BERT</text></g><g transform="translate(738.5555555555552 279.4583333333333) rotate(0 30.5 12.499999999999972)"><text x="30.5" y="20" font-family="Cascadia, Segoe UI Emoji" font-size="20px" fill="#000000" text-anchor="middle" style="white-space: pre;" direction="ltr">[768]</text></g><g stroke-linecap="round" transform="translate(631.5555555555552 101.33333333333343) rotate(0 138.125 50.62499999999997)"><path d="M25.31 0 L250.94 0 L262.01 1.58 L266.36 3.56 L269.92 6.33 L272.69 9.89 L274.67 14.24 L275.85 19.38 L276.25 75.94 L274.67 87.01 L272.69 91.36 L269.92 94.92 L266.36 97.69 L262.01 99.67 L250.94 101.25 L25.31 101.25 L14.24 99.67 L9.89 97.69 L6.33 94.92 L3.56 91.36 L1.58 87.01 L0.4 81.87 L0.4 19.38 L1.58 14.24 L3.56 9.89 L6.33 6.33 L9.89 3.56 L14.24 1.58 L25.31 0" stroke="none" stroke-width="0" fill="#15aabf"></path><path d="M25.31 0 M25.31 0 C100.28 0, 175.25 0, 250.94 0 M25.31 0 C94.48 0, 163.64 0, 250.94 0 M250.94 0 C267.81 0, 276.25 8.44, 276.25 25.31 M250.94 0 C267.81 0, 276.25 8.44, 276.25 25.31 M276.25 25.31 C276.25 35.64, 276.25 45.97, 276.25 75.94 M276.25 25.31 C276.25 41.45, 276.25 57.59, 276.25 75.94 M276.25 75.94 C276.25 92.81, 267.81 101.25, 250.94 101.25 M276.25 75.94 C276.25 92.81, 267.81 101.25, 250.94 101.25 M250.94 101.25 C177.18 101.25, 103.43 101.25, 25.31 101.25 M250.94 101.25 C179.91 101.25, 108.89 101.25, 25.31 101.25 M25.31 101.25 C8.44 101.25, 0 92.81, 0 75.94 M25.31 101.25 C8.44 101.25, 0 92.81, 0 75.94 M0 75.94 C0 65.01, 0 54.09, 0 25.31 M0 75.94 C0 65.13, 0 54.32, 0 25.31 M0 25.31 C0 8.44, 8.44 0, 25.31 0 M0 25.31 C0 8.44, 8.44 0, 25.31 0" stroke="#000000" stroke-width="1" fill="none"></path></g><g transform="translate(726.6805555555552 120.20833333333326) rotate(0 43 22)"><text x="43" y="35" font-family="Cascadia, Segoe UI Emoji" font-size="36px" fill="#000000" text-anchor="middle" style="white-space: pre;" direction="ltr">BERT</text></g><g transform="translate(739.1805555555552 169.45833333333331) rotate(0 30.5 12.5)"><text x="30.5" y="20" font-family="Cascadia, Segoe UI Emoji" font-size="20px" fill="#000000" text-anchor="middle" style="white-space: pre;" direction="ltr">[768]</text></g><g stroke-linecap="round"><g transform="translate(496.5555555555552 153.20833333333331) rotate(0 66.25 0.625)"><path d="M0 0 C22.08 0.21, 110.42 1.04, 132.5 1.25 M0 0 C22.08 0.21, 110.42 1.04, 132.5 1.25" stroke="#d9480f" stroke-width="1" fill="none"></path></g><g transform="translate(496.5555555555552 153.20833333333331) rotate(0 66.25 0.625)"><path d="M104.21 11.24 C114.19 7.72, 124.16 4.2, 132.5 1.25 M104.21 11.24 C113.26 8.05, 122.3 4.85, 132.5 1.25" stroke="#d9480f" stroke-width="1" fill="none"></path></g><g transform="translate(496.5555555555552 153.20833333333331) rotate(0 66.25 0.625)"><path d="M104.41 -9.28 C114.31 -5.56, 124.22 -1.85, 132.5 1.25 M104.41 -9.28 C113.39 -5.91, 122.37 -2.54, 132.5 1.25" stroke="#d9480f" stroke-width="1" fill="none"></path></g></g><mask></mask><g stroke-linecap="round"><g transform="translate(495.3055555555552 269.4583333333333) rotate(0 67.5 0)"><path d="M0 0 C22.5 0, 112.5 0, 135 0 M0 0 C22.5 0, 112.5 0, 135 0" stroke="#e67700" stroke-width="1" fill="none"></path></g><g transform="translate(495.3055555555552 269.4583333333333) rotate(0 67.5 0)"><path d="M106.81 10.26 C115.63 7.05, 124.45 3.84, 135 0 M106.81 10.26 C117.28 6.45, 127.74 2.64, 135 0" stroke="#e67700" stroke-width="1" fill="none"></path></g><g transform="translate(495.3055555555552 269.4583333333333) rotate(0 67.5 0)"><path d="M106.81 -10.26 C115.63 -7.05, 124.45 -3.84, 135 0 M106.81 -10.26 C117.28 -6.45, 127.74 -2.64, 135 0" stroke="#e67700" stroke-width="1" fill="none"></path></g></g><mask></mask><g stroke-linecap="round"><g transform="translate(494.0555555555552 383.20833333333326) rotate(0 68.125 0)"><path d="M0 0 C22.71 0, 113.54 0, 136.25 0 M0 0 C22.71 0, 113.54 0, 136.25 0" stroke="#5c940d" stroke-width="1" fill="none"></path></g><g transform="translate(494.0555555555552 383.20833333333326) rotate(0 68.125 0)"><path d="M108.06 10.26 C114.8 7.81, 121.53 5.36, 136.25 0 M108.06 10.26 C114.37 7.96, 120.68 5.67, 136.25 0" stroke="#5c940d" stroke-width="1" fill="none"></path></g><g transform="translate(494.0555555555552 383.20833333333326) rotate(0 68.125 0)"><path d="M108.06 -10.26 C114.8 -7.81, 121.53 -5.36, 136.25 0 M108.06 -10.26 C114.37 -7.96, 120.68 -5.67, 136.25 0" stroke="#5c940d" stroke-width="1" fill="none"></path></g></g><mask></mask><g stroke-linecap="round"><g transform="translate(909.0555555555552 148.83333333333331) rotate(0 38.75 0)"><path d="M0 0 C12.92 0, 64.58 0, 77.5 0 M0 0 C12.92 0, 64.58 0, 77.5 0" stroke="#d9480f" stroke-width="1" fill="none"></path></g><g transform="translate(909.0555555555552 148.83333333333331) rotate(0 38.75 0)"><path d="M49.31 10.26 C59.59 6.52, 69.86 2.78, 77.5 0 M49.31 10.26 C57.36 7.33, 65.41 4.4, 77.5 0" stroke="#d9480f" stroke-width="1" fill="none"></path></g><g transform="translate(909.0555555555552 148.83333333333331) rotate(0 38.75 0)"><path d="M49.31 -10.26 C59.59 -6.52, 69.86 -2.78, 77.5 0 M49.31 -10.26 C57.36 -7.33, 65.41 -4.4, 77.5 0" stroke="#d9480f" stroke-width="1" fill="none"></path></g></g><mask></mask><g stroke-linecap="round"><g transform="translate(904.0555555555552 383.75402230775967) rotate(0 41.25 0.12521084899083235)"><path d="M0 0 C13.75 0.04, 68.75 0.21, 82.5 0.25 M0 0 C13.75 0.04, 68.75 0.21, 82.5 0.25" stroke="#5c940d" stroke-width="1" fill="none"></path></g><g transform="translate(904.0555555555552 383.75402230775967) rotate(0 41.25 0.12521084899083235)"><path d="M54.28 10.43 C64.04 6.9, 73.81 3.38, 82.5 0.25 M54.28 10.43 C63.91 6.95, 73.53 3.48, 82.5 0.25" stroke="#5c940d" stroke-width="1" fill="none"></path></g><g transform="translate(904.0555555555552 383.75402230775967) rotate(0 41.25 0.12521084899083235)"><path d="M54.34 -10.1 C64.09 -6.52, 73.83 -2.93, 82.5 0.25 M54.34 -10.1 C63.95 -6.57, 73.55 -3.04, 82.5 0.25" stroke="#5c940d" stroke-width="1" fill="none"></path></g></g><mask></mask><g stroke-linecap="round"><g transform="translate(909.0555555555552 266.9583333333333) rotate(0 38.75 0)"><path d="M0 0 C12.92 0, 64.58 0, 77.5 0 M0 0 C12.92 0, 64.58 0, 77.5 0" stroke="#e67700" stroke-width="1" fill="none"></path></g><g transform="translate(909.0555555555552 266.9583333333333) rotate(0 38.75 0)"><path d="M49.31 10.26 C58.4 6.95, 67.49 3.64, 77.5 0 M49.31 10.26 C58.36 6.97, 67.41 3.67, 77.5 0" stroke="#e67700" stroke-width="1" fill="none"></path></g><g transform="translate(909.0555555555552 266.9583333333333) rotate(0 38.75 0)"><path d="M49.31 -10.26 C58.4 -6.95, 67.49 -3.64, 77.5 0 M49.31 -10.26 C58.36 -6.97, 67.41 -3.67, 77.5 0" stroke="#e67700" stroke-width="1" fill="none"></path></g></g><mask></mask><g stroke-linecap="round" transform="translate(988.4305555555552 96.33333333333331) rotate(0 138.125 50.62499999999997)"><path d="M25.31 0 L250.94 0 L262.01 1.58 L266.36 3.56 L269.92 6.33 L272.69 9.89 L274.67 14.24 L275.85 19.38 L276.25 75.94 L274.67 87.01 L272.69 91.36 L269.92 94.92 L266.36 97.69 L262.01 99.67 L250.94 101.25 L25.31 101.25 L14.24 99.67 L9.89 97.69 L6.33 94.92 L3.56 91.36 L1.58 87.01 L0.4 81.87 L0.4 19.38 L1.58 14.24 L3.56 9.89 L6.33 6.33 L9.89 3.56 L14.24 1.58 L25.31 0" stroke="none" stroke-width="0" fill="#fa5252"></path><path d="M25.31 0 M25.31 0 C103.42 0, 181.53 0, 250.94 0 M25.31 0 C75.76 0, 126.21 0, 250.94 0 M250.94 0 C267.81 0, 276.25 8.44, 276.25 25.31 M250.94 0 C267.81 0, 276.25 8.44, 276.25 25.31 M276.25 25.31 C276.25 39.66, 276.25 54, 276.25 75.94 M276.25 25.31 C276.25 38.79, 276.25 52.28, 276.25 75.94 M276.25 75.94 C276.25 92.81, 267.81 101.25, 250.94 101.25 M276.25 75.94 C276.25 92.81, 267.81 101.25, 250.94 101.25 M250.94 101.25 C183.52 101.25, 116.11 101.25, 25.31 101.25 M250.94 101.25 C171.98 101.25, 93.03 101.25, 25.31 101.25 M25.31 101.25 C8.44 101.25, 0 92.81, 0 75.94 M25.31 101.25 C8.44 101.25, 0 92.81, 0 75.94 M0 75.94 C0 55.79, 0 35.65, 0 25.31 M0 75.94 C0 59.25, 0 42.56, 0 25.31 M0 25.31 C0 8.44, 8.44 0, 25.31 0 M0 25.31 C0 8.44, 8.44 0, 25.31 0" stroke="#000000" stroke-width="1" fill="none"></path></g><g transform="translate(1019.0555555555552 119.7083333333332) rotate(0 107.5 17.5)"><text x="107.5" y="28" font-family="Cascadia, Segoe UI Emoji" font-size="28px" fill="#000000" text-anchor="middle" style="white-space: pre;" direction="ltr">Linear + GELU</text></g><g transform="translate(1096.0555555555552 164.45833333333331) rotate(0 30.5 12.5)"><text x="30.5" y="20" font-family="Cascadia, Segoe UI Emoji" font-size="20px" fill="#000000" text-anchor="middle" style="white-space: pre;" direction="ltr">[768]</text></g><g stroke-linecap="round" transform="translate(990.9305555555552 333.83333333333337) rotate(0 138.125 50.62499999999994)"><path d="M25.31 0 L250.94 0 L262.01 1.58 L266.36 3.56 L269.92 6.33 L272.69 9.89 L274.67 14.24 L275.85 19.38 L276.25 75.94 L274.67 87.01 L272.69 91.36 L269.92 94.92 L266.36 97.69 L262.01 99.67 L250.94 101.25 L25.31 101.25 L14.24 99.67 L9.89 97.69 L6.33 94.92 L3.56 91.36 L1.58 87.01 L0.4 81.87 L0.4 19.38 L1.58 14.24 L3.56 9.89 L6.33 6.33 L9.89 3.56 L14.24 1.58 L25.31 0" stroke="none" stroke-width="0" fill="#fa5252"></path><path d="M25.31 0 M25.31 0 C76.75 0, 128.19 0, 250.94 0 M25.31 0 C74.81 0, 124.3 0, 250.94 0 M250.94 0 C267.81 0, 276.25 8.44, 276.25 25.31 M250.94 0 C267.81 0, 276.25 8.44, 276.25 25.31 M276.25 25.31 C276.25 40.38, 276.25 55.45, 276.25 75.94 M276.25 25.31 C276.25 43.03, 276.25 60.74, 276.25 75.94 M276.25 75.94 C276.25 92.81, 267.81 101.25, 250.94 101.25 M276.25 75.94 C276.25 92.81, 267.81 101.25, 250.94 101.25 M250.94 101.25 C176.62 101.25, 102.31 101.25, 25.31 101.25 M250.94 101.25 C161.43 101.25, 71.92 101.25, 25.31 101.25 M25.31 101.25 C8.44 101.25, 0 92.81, 0 75.94 M25.31 101.25 C8.44 101.25, 0 92.81, 0 75.94 M0 75.94 C0 60.5, 0 45.06, 0 25.31 M0 75.94 C0 62.75, 0 49.57, 0 25.31 M0 25.31 C0 8.44, 8.44 0, 25.31 0 M0 25.31 C0 8.44, 8.44 0, 25.31 0" stroke="#000000" stroke-width="1" fill="none"></path></g><g transform="translate(1021.5555555555552 357.20833333333314) rotate(0 107.5 17.5)"><text x="107.5" y="28" font-family="Cascadia, Segoe UI Emoji" font-size="28px" fill="#000000" text-anchor="middle" style="white-space: pre;" direction="ltr">Linear + GELU</text></g><g transform="translate(1098.5555555555552 401.9583333333335) rotate(0 30.5 12.5)"><text x="30.5" y="20" font-family="Cascadia, Segoe UI Emoji" font-size="20px" fill="#000000" text-anchor="middle" style="white-space: pre;" direction="ltr">[768]</text></g><g stroke-linecap="round" transform="translate(989.6805555555552 217.58333333333343) rotate(0 138.125 50.62499999999997)"><path d="M25.31 0 L250.94 0 L262.01 1.58 L266.36 3.56 L269.92 6.33 L272.69 9.89 L274.67 14.24 L275.85 19.38 L276.25 75.94 L274.67 87.01 L272.69 91.36 L269.92 94.92 L266.36 97.69 L262.01 99.67 L250.94 101.25 L25.31 101.25 L14.24 99.67 L9.89 97.69 L6.33 94.92 L3.56 91.36 L1.58 87.01 L0.4 81.87 L0.4 19.38 L1.58 14.24 L3.56 9.89 L6.33 6.33 L9.89 3.56 L14.24 1.58 L25.31 0" stroke="none" stroke-width="0" fill="#fa5252"></path><path d="M25.31 0 M25.31 0 C101.85 0, 178.39 0, 250.94 0 M25.31 0 C111.87 0, 198.44 0, 250.94 0 M250.94 0 C267.81 0, 276.25 8.44, 276.25 25.31 M250.94 0 C267.81 0, 276.25 8.44, 276.25 25.31 M276.25 25.31 C276.25 41.76, 276.25 58.21, 276.25 75.94 M276.25 25.31 C276.25 45.19, 276.25 65.06, 276.25 75.94 M276.25 75.94 C276.25 92.81, 267.81 101.25, 250.94 101.25 M276.25 75.94 C276.25 92.81, 267.81 101.25, 250.94 101.25 M250.94 101.25 C184.97 101.25, 119.01 101.25, 25.31 101.25 M250.94 101.25 C189.88 101.25, 128.82 101.25, 25.31 101.25 M25.31 101.25 C8.44 101.25, 0 92.81, 0 75.94 M25.31 101.25 C8.44 101.25, 0 92.81, 0 75.94 M0 75.94 C0 56.63, 0 37.32, 0 25.31 M0 75.94 C0 58.97, 0 42, 0 25.31 M0 25.31 C0 8.44, 8.44 0, 25.31 0 M0 25.31 C0 8.44, 8.44 0, 25.31 0" stroke="#000000" stroke-width="1" fill="none"></path></g><g transform="translate(1020.3055555555552 240.9583333333332) rotate(0 107.5 17.5)"><text x="107.5" y="28" font-family="Cascadia, Segoe UI Emoji" font-size="28px" fill="#000000" text-anchor="middle" style="white-space: pre;" direction="ltr">Linear + GELU</text></g><g transform="translate(1097.3055555555552 285.7083333333335) rotate(0 30.5 12.5)"><text x="30.5" y="20" font-family="Cascadia, Segoe UI Emoji" font-size="20px" fill="#000000" text-anchor="middle" style="white-space: pre;" direction="ltr">[768]</text></g><g stroke-linecap="round"><g transform="translate(1266.5555555555552 153.20833333333331) rotate(0 22.5 44.375)"><path d="M0 0 C7.5 14.79, 37.5 73.96, 45 88.75 M0 0 C7.5 14.79, 37.5 73.96, 45 88.75" stroke="#d9480f" stroke-width="1" fill="none"></path></g><g transform="translate(1266.5555555555552 153.20833333333331) rotate(0 22.5 44.375)"><path d="M23.1 68.25 C30.7 75.37, 38.31 82.49, 45 88.75 M23.1 68.25 C29.27 74.02, 35.44 79.8, 45 88.75" stroke="#d9480f" stroke-width="1" fill="none"></path></g><g transform="translate(1266.5555555555552 153.20833333333331) rotate(0 22.5 44.375)"><path d="M41.4 58.97 C42.65 69.31, 43.9 79.65, 45 88.75 M41.4 58.97 C42.42 67.36, 43.43 75.74, 45 88.75" stroke="#d9480f" stroke-width="1" fill="none"></path></g></g><mask></mask><g stroke-linecap="round"><g transform="translate(1269.0555555555552 264.4583333333333) rotate(0 13.125 0)"><path d="M0 0 C4.38 0, 21.88 0, 26.25 0 M0 0 C4.38 0, 21.88 0, 26.25 0" stroke="#e67700" stroke-width="1" fill="none"></path></g><g transform="translate(1269.0555555555552 264.4583333333333) rotate(0 13.125 0)"><path d="M13.92 4.49 C17.64 3.13, 21.36 1.78, 26.25 0 M13.92 4.49 C17.41 3.22, 20.9 1.95, 26.25 0" stroke="#e67700" stroke-width="1" fill="none"></path></g><g transform="translate(1269.0555555555552 264.4583333333333) rotate(0 13.125 0)"><path d="M13.92 -4.49 C17.64 -3.13, 21.36 -1.78, 26.25 0 M13.92 -4.49 C17.41 -3.22, 20.9 -1.95, 26.25 0" stroke="#e67700" stroke-width="1" fill="none"></path></g></g><mask></mask><g stroke-linecap="round"><g transform="translate(1267.8055555555552 381.95833333333326) rotate(0 19.375 -46.87499999999997)"><path d="M0 0 C6.46 -15.62, 32.29 -78.12, 38.75 -93.75 M0 0 C6.46 -15.62, 32.29 -78.12, 38.75 -93.75" stroke="#5c940d" stroke-width="1" fill="none"></path></g><g transform="translate(1267.8055555555552 381.95833333333326) rotate(0 19.375 -46.87499999999997)"><path d="M37.46 -63.78 C37.73 -70.01, 38 -76.24, 38.75 -93.75 M37.46 -63.78 C37.91 -74.12, 38.35 -84.46, 38.75 -93.75" stroke="#5c940d" stroke-width="1" fill="none"></path></g><g transform="translate(1267.8055555555552 381.95833333333326) rotate(0 19.375 -46.87499999999997)"><path d="M18.5 -71.62 C22.71 -76.22, 26.92 -80.82, 38.75 -93.75 M18.5 -71.62 C25.49 -79.25, 32.47 -86.89, 38.75 -93.75" stroke="#5c940d" stroke-width="1" fill="none"></path></g></g><mask></mask><g stroke-linecap="round"><g transform="translate(1354.0555555555552 264.4583333333333) rotate(0 21.875 0)"><path d="M0 0 C7.29 0, 36.46 0, 43.75 0 M0 0 C7.29 0, 36.46 0, 43.75 0" stroke="#5c940d" stroke-width="1" fill="none"></path></g><g transform="translate(1354.0555555555552 264.4583333333333) rotate(0 21.875 0)"><path d="M23.19 7.48 C28.11 5.69, 33.03 3.9, 43.75 0 M23.19 7.48 C30.92 4.67, 38.64 1.86, 43.75 0" stroke="#5c940d" stroke-width="1" fill="none"></path></g><g transform="translate(1354.0555555555552 264.4583333333333) rotate(0 21.875 0)"><path d="M23.19 -7.48 C28.11 -5.69, 33.03 -3.9, 43.75 0 M23.19 -7.48 C30.92 -4.67, 38.64 -1.86, 43.75 0" stroke="#5c940d" stroke-width="1" fill="none"></path></g></g><mask></mask><g stroke-linecap="round" transform="translate(1395.3055555555552 208.20833333333331) rotate(0 165 56.87499999999997)"><path d="M28.44 0 L301.56 0 L308.23 0.44 L314 1.78 L318.89 4 L322.89 7.11 L326 11.11 L328.22 16 L329.56 21.77 L330 85.31 L329.56 91.98 L328.22 97.75 L326 102.64 L322.89 106.64 L318.89 109.75 L314 111.97 L308.23 113.31 L301.56 113.75 L28.44 113.75 L21.77 113.31 L16 111.97 L11.11 109.75 L7.11 106.64 L4 102.64 L1.78 97.75 L0.44 91.98 L0.44 21.77 L1.78 16 L4 11.11 L7.11 7.11 L11.11 4 L16 1.78 L21.77 0.44 L28.44 0" stroke="none" stroke-width="0" fill="#fa5252"></path><path d="M28.44 0 M28.44 0 C86.13 0, 143.82 0, 301.56 0 M28.44 0 C107.93 0, 187.43 0, 301.56 0 M301.56 0 C320.52 0, 330 9.48, 330 28.44 M301.56 0 C320.52 0, 330 9.48, 330 28.44 M330 28.44 C330 43.62, 330 58.79, 330 85.31 M330 28.44 C330 50.05, 330 71.65, 330 85.31 M330 85.31 C330 104.27, 320.52 113.75, 301.56 113.75 M330 85.31 C330 104.27, 320.52 113.75, 301.56 113.75 M301.56 113.75 C243 113.75, 184.44 113.75, 28.44 113.75 M301.56 113.75 C206.38 113.75, 111.21 113.75, 28.44 113.75 M28.44 113.75 C9.48 113.75, 0 104.27, 0 85.31 M28.44 113.75 C9.48 113.75, 0 104.27, 0 85.31 M0 85.31 C0 66.68, 0 48.05, 0 28.44 M0 85.31 C0 67.67, 0 50.03, 0 28.44 M0 28.44 C0 9.48, 9.48 0, 28.44 0 M0 28.44 C0 9.48, 9.48 0, 28.44 0" stroke="#000000" stroke-width="1" fill="none"></path></g><g transform="translate(1469.3055555555552 230.08333333333326) rotate(0 91 35)"><text x="91" y="28" font-family="Cascadia, Segoe UI Emoji" font-size="28px" fill="#000000" text-anchor="middle" style="white-space: pre;" direction="ltr">MLP</text><text x="91" y="63" font-family="Cascadia, Segoe UI Emoji" font-size="28px" fill="#000000" text-anchor="middle" style="white-space: pre;" direction="ltr">[768*768*2]</text></g><g stroke-linecap="round"><g transform="translate(1724.0555555555552 250.70833333333331) rotate(0 50.625 -30.625)"><path d="M0 0 C16.88 -10.21, 84.38 -51.04, 101.25 -61.25 M0 0 C16.88 -10.21, 84.38 -51.04, 101.25 -61.25" stroke="#000000" stroke-width="1" fill="none"></path></g><g transform="translate(1724.0555555555552 250.70833333333331) rotate(0 50.625 -30.625)"><path d="M82.44 -37.88 C89.78 -47, 97.13 -56.13, 101.25 -61.25 M82.44 -37.88 C87.41 -44.05, 92.38 -50.23, 101.25 -61.25" stroke="#000000" stroke-width="1" fill="none"></path></g><g transform="translate(1724.0555555555552 250.70833333333331) rotate(0 50.625 -30.625)"><path d="M71.82 -55.44 C83.31 -57.71, 94.8 -59.98, 101.25 -61.25 M71.82 -55.44 C79.59 -56.97, 87.37 -58.51, 101.25 -61.25" stroke="#000000" stroke-width="1" fill="none"></path></g></g><mask></mask><g stroke-linecap="round"><g transform="translate(1725.3055555555552 265.7083333333333) rotate(0 50.625 1.25)"><path d="M0 0 C16.88 0.42, 84.38 2.08, 101.25 2.5" stroke="#000000" stroke-width="1.5" fill="none" stroke-dasharray="1.5 7"></path></g><g transform="translate(1725.3055555555552 265.7083333333333) rotate(0 50.625 1.25)"><path d="M72.81 12.06 C80.16 9.59, 87.5 7.12, 101.25 2.5" stroke="#000000" stroke-width="1.5" fill="none" stroke-dasharray="1.5 5"></path></g><g transform="translate(1725.3055555555552 265.7083333333333) rotate(0 50.625 1.25)"><path d="M73.32 -8.45 C80.53 -5.63, 87.74 -2.8, 101.25 2.5" stroke="#000000" stroke-width="1.5" fill="none" stroke-dasharray="1.5 5"></path></g></g><mask></mask><g stroke-linecap="round"><g transform="translate(1726.5555555555552 273.2083333333333) rotate(0 54.375 39.99999999999997)"><path d="M0 0 C18.13 13.33, 90.63 66.67, 108.75 80 M0 0 C18.13 13.33, 90.63 66.67, 108.75 80" stroke="#000000" stroke-width="1" fill="none"></path></g><g transform="translate(1726.5555555555552 273.2083333333333) rotate(0 54.375 39.99999999999997)"><path d="M79.96 71.56 C87.01 73.63, 94.06 75.69, 108.75 80 M79.96 71.56 C88.17 73.97, 96.37 76.37, 108.75 80" stroke="#000000" stroke-width="1" fill="none"></path></g><g transform="translate(1726.5555555555552 273.2083333333333) rotate(0 54.375 39.99999999999997)"><path d="M92.12 55.03 C96.19 61.14, 100.27 67.26, 108.75 80 M92.12 55.03 C96.86 62.15, 101.6 69.26, 108.75 80" stroke="#000000" stroke-width="1" fill="none"></path></g></g><mask></mask></svg>
