<svg version="1.1" xmlns="http://www.w3.org/2000/svg" viewBox="0 0 1945.8055555555552 528" width="1945.8055555555552" height="528">
  <!-- svg-source:excalidraw -->

  <defs>
    <style class="style-fonts">
      @font-face {
        font-family: "Virgil";
        src: url("https://excalidraw.com/Virgil.woff2");
      }
      @font-face {
        font-family: "Cascadia";
        src: url("https://excalidraw.com/Cascadia.woff2");
      }
    </style>
  </defs>
  <g stroke-linecap="round" transform="translate(10 10) rotate(0 271.5 254)"><path d="M7.86 8.16 C7.86 8.16, 7.86 8.16, 7.86 8.16 M7.86 8.16 C7.86 8.16, 7.86 8.16, 7.86 8.16 M3.66 19.09 C7.34 14.85, 11.02 10.62, 18.1 2.48 M3.66 19.09 C9.06 12.88, 14.45 6.68, 18.1 2.48 M2.75 26.24 C11.65 15.99, 20.56 5.75, 25.05 0.58 M2.75 26.24 C11.43 16.25, 20.11 6.27, 25.05 0.58 M1.83 33.39 C10.44 23.48, 19.06 13.57, 30.7 0.18 M1.83 33.39 C8.76 25.42, 15.69 17.45, 30.7 0.18 M1.57 39.79 C9.55 30.6, 17.54 21.41, 34.37 2.05 M1.57 39.79 C10.93 29.02, 20.29 18.25, 34.37 2.05 M1.96 45.43 C15.13 30.29, 28.29 15.14, 39.36 2.41 M1.96 45.43 C16.14 29.12, 30.32 12.81, 39.36 2.41 M1.7 51.83 C17.93 33.16, 34.15 14.5, 45 2.02 M1.7 51.83 C17.48 33.68, 33.26 15.53, 45 2.02 M1.44 58.23 C16.08 41.38, 30.72 24.54, 49.99 2.38 M1.44 58.23 C19.24 37.75, 37.04 17.27, 49.99 2.38 M1.83 63.87 C21.63 41.09, 41.43 18.32, 55.63 1.98 M1.83 63.87 C17.32 46.05, 32.81 28.23, 55.63 1.98 M1.57 70.27 C17 52.52, 32.43 34.78, 60.62 2.34 M1.57 70.27 C19.3 49.87, 37.03 29.48, 60.62 2.34 M1.97 75.91 C22.96 51.76, 43.95 27.61, 66.26 1.95 M1.97 75.91 C23.8 50.8, 45.63 25.68, 66.26 1.95 M1.71 82.31 C27.66 52.45, 53.62 22.59, 71.25 2.31 M1.71 82.31 C29.48 50.36, 57.25 18.41, 71.25 2.31 M1.44 88.71 C22.68 64.27, 43.92 39.84, 76.89 1.91 M1.44 88.71 C18.39 69.21, 35.33 49.72, 76.89 1.91 M1.84 94.35 C18.49 75.2, 35.13 56.05, 81.88 2.27 M1.84 94.35 C18.27 75.44, 34.71 56.54, 81.88 2.27 M1.58 100.75 C35.3 61.95, 69.03 23.15, 87.52 1.88 M1.58 100.75 C24.82 74.01, 48.06 47.28, 87.52 1.88 M1.97 106.39 C34.92 68.49, 67.86 30.59, 92.51 2.24 M1.97 106.39 C36.5 66.67, 71.03 26.94, 92.51 2.24 M1.71 112.79 C35.16 74.31, 68.61 35.83, 98.15 1.85 M1.71 112.79 C23.52 87.7, 45.33 62.61, 98.15 1.85 M1.45 119.19 C28.66 87.89, 55.87 56.59, 103.14 2.21 M1.45 119.19 C33.25 82.61, 65.05 46.03, 103.14 2.21 M1.84 124.83 C40.38 80.5, 78.92 36.16, 108.78 1.81 M1.84 124.83 C29.96 92.49, 58.07 60.15, 108.78 1.81 M1.58 131.23 C43.52 82.99, 85.45 34.75, 113.77 2.17 M1.58 131.23 C35.93 91.71, 70.29 52.19, 113.77 2.17 M1.98 136.87 C46.23 85.96, 90.49 35.04, 119.41 1.78 M1.98 136.87 C45.84 86.41, 89.7 35.95, 119.41 1.78 M1.72 143.27 C46.54 91.7, 91.37 40.13, 124.4 2.14 M1.72 143.27 C49.65 88.12, 97.59 32.97, 124.4 2.14 M1.45 149.67 C35.95 109.99, 70.44 70.31, 130.04 1.74 M1.45 149.67 C49.39 94.52, 97.33 39.37, 130.04 1.74 M1.85 155.31 C48.92 101.16, 95.98 47.02, 135.03 2.1 M1.85 155.31 C44.08 106.72, 86.31 58.14, 135.03 2.1 M1.59 161.71 C34.21 124.18, 66.82 86.66, 140.67 1.71 M1.59 161.71 C42.96 114.11, 84.34 66.51, 140.67 1.71 M1.98 167.35 C41.77 121.58, 81.55 75.81, 145.66 2.07 M1.98 167.35 C53.4 108.2, 104.81 49.06, 145.66 2.07 M1.72 173.75 C32.09 138.81, 62.45 103.88, 150.65 2.43 M1.72 173.75 C32.41 138.45, 63.09 103.15, 150.65 2.43 M1.46 180.14 C48.39 126.15, 95.33 72.16, 156.29 2.03 M1.46 180.14 C49.07 125.38, 96.67 70.61, 156.29 2.03 M1.85 185.79 C38.95 143.11, 76.04 100.44, 161.28 2.39 M1.85 185.79 C62.26 116.29, 122.68 46.8, 161.28 2.39 M1.59 192.19 C39.19 148.93, 76.8 105.67, 166.92 2 M1.59 192.19 C48.27 138.49, 94.95 84.79, 166.92 2 M1.99 197.83 C53.86 138.16, 105.73 78.48, 171.91 2.36 M1.99 197.83 C56.1 135.58, 110.21 73.33, 171.91 2.36 M1.72 204.23 C49.78 148.94, 97.84 93.66, 177.55 1.96 M1.72 204.23 C58.11 139.37, 114.49 74.51, 177.55 1.96 M1.46 210.62 C61.99 141, 122.51 71.38, 182.54 2.32 M1.46 210.62 C64.61 137.98, 127.76 65.33, 182.54 2.32 M1.86 216.27 C56.34 153.59, 110.82 90.92, 188.18 1.93 M1.86 216.27 C73.14 134.27, 144.42 52.26, 188.18 1.93 M1.6 222.66 C70.61 143.28, 139.62 63.89, 193.17 2.29 M1.6 222.66 C42.96 175.09, 84.31 127.51, 193.17 2.29 M1.99 228.31 C73.71 145.8, 145.44 63.29, 198.81 1.9 M1.99 228.31 C70.89 149.05, 139.78 69.8, 198.81 1.9 M1.73 234.71 C72.87 152.86, 144.02 71.02, 203.8 2.26 M1.73 234.71 C59.88 167.81, 118.03 100.91, 203.8 2.26 M1.47 241.1 C84.07 146.08, 166.68 51.05, 209.44 1.86 M1.47 241.1 C48.66 186.81, 95.86 132.52, 209.44 1.86 M1.86 246.75 C45.8 196.2, 89.73 145.66, 214.43 2.22 M1.86 246.75 C77.16 160.13, 152.45 73.51, 214.43 2.22 M1.6 253.14 C72.99 171.02, 144.38 88.9, 220.07 1.83 M1.6 253.14 C75.66 167.95, 149.71 82.76, 220.07 1.83 M2 258.79 C79.87 169.2, 157.74 79.62, 225.06 2.19 M2 258.79 C52.6 200.57, 103.21 142.35, 225.06 2.19 M1.73 265.19 C74.36 181.63, 146.99 98.08, 230.7 1.79 M1.73 265.19 C78.15 177.27, 154.57 89.36, 230.7 1.79 M1.47 271.58 C79.35 181.99, 157.23 92.4, 235.69 2.15 M1.47 271.58 C80.94 180.16, 160.41 88.75, 235.69 2.15 M1.87 277.23 C88.26 177.85, 174.65 78.46, 241.33 1.76 M1.87 277.23 C93.05 172.33, 184.24 67.43, 241.33 1.76 M1.61 283.62 C59.9 216.57, 118.19 149.51, 246.32 2.12 M1.61 283.62 C86.5 185.97, 171.39 88.31, 246.32 2.12 M2 289.27 C71.44 209.38, 140.88 129.5, 251.96 1.72 M2 289.27 C94.84 182.47, 187.68 75.67, 251.96 1.72 M1.74 295.66 C72.07 214.75, 142.41 133.84, 256.95 2.08 M1.74 295.66 C85.19 199.67, 168.64 103.67, 256.95 2.08 M1.48 302.06 C84.2 206.9, 166.93 111.73, 262.59 1.69 M1.48 302.06 C84.74 206.28, 168 110.5, 262.59 1.69 M1.87 307.71 C103.44 190.87, 205.01 74.03, 267.58 2.05 M1.87 307.71 C102.5 191.95, 203.13 76.19, 267.58 2.05 M1.61 314.1 C97.64 203.63, 193.67 93.16, 272.56 2.41 M1.61 314.1 C98.69 202.43, 195.76 90.76, 272.56 2.41 M2.01 319.75 C63.83 248.62, 125.66 177.5, 278.21 2.01 M2.01 319.75 C63.64 248.85, 125.27 177.94, 278.21 2.01 M1.74 326.14 C84.86 230.53, 167.98 134.91, 283.19 2.37 M1.74 326.14 C99.29 213.93, 196.84 101.72, 283.19 2.37 M1.48 332.54 C114.75 202.25, 228.01 71.96, 288.84 1.98 M1.48 332.54 C59.87 265.38, 118.26 198.21, 288.84 1.98 M1.88 338.19 C81.4 246.7, 160.93 155.21, 293.82 2.34 M1.88 338.19 C78.56 249.97, 155.25 161.75, 293.82 2.34 M1.62 344.58 C65.69 270.87, 129.77 197.16, 299.47 1.94 M1.62 344.58 C86.1 247.4, 170.58 150.22, 299.47 1.94 M2.01 350.23 C76.61 264.41, 151.2 178.6, 304.45 2.3 M2.01 350.23 C64.7 278.11, 127.39 206, 304.45 2.3 M1.75 356.62 C105.6 237.16, 209.45 117.69, 310.1 1.91 M1.75 356.62 C79.19 267.53, 156.64 178.45, 310.1 1.91 M1.49 363.02 C66.45 288.29, 131.42 213.55, 315.08 2.27 M1.49 363.02 C65.14 289.79, 128.8 216.57, 315.08 2.27 M1.88 368.66 C109.44 244.93, 217 121.2, 320.73 1.88 M1.88 368.66 C102.1 253.38, 202.31 138.1, 320.73 1.88 M1.62 375.06 C121.92 236.67, 242.22 98.28, 325.71 2.24 M1.62 375.06 C129.41 228.06, 257.2 81.05, 325.71 2.24 M2.02 380.71 C108.42 258.31, 214.82 135.91, 331.36 1.84 M2.02 380.71 C101.97 265.72, 201.92 150.74, 331.36 1.84 M1.75 387.1 C130.27 239.26, 258.78 91.43, 336.34 2.2 M1.75 387.1 C84.59 291.82, 167.42 196.53, 336.34 2.2 M1.49 393.5 C113.31 264.87, 225.12 136.24, 341.99 1.81 M1.49 393.5 C93.77 287.34, 186.06 181.18, 341.99 1.81 M1.89 399.14 C112.09 272.37, 222.3 145.59, 346.97 2.17 M1.89 399.14 C123.02 259.8, 244.15 120.45, 346.97 2.17 M1.63 405.54 C112.49 278.01, 223.36 150.47, 352.62 1.77 M1.63 405.54 C103.79 288.02, 205.95 170.5, 352.62 1.77 M2.02 411.18 C101.08 297.23, 200.14 183.28, 357.6 2.13 M2.02 411.18 C78.39 323.33, 154.76 235.48, 357.6 2.13 M1.76 417.58 C137.73 261.16, 273.71 104.74, 363.25 1.74 M1.76 417.58 C95.62 309.61, 189.48 201.63, 363.25 1.74 M1.5 423.98 C145.08 258.81, 288.66 93.64, 368.23 2.1 M1.5 423.98 C100.81 309.73, 200.12 195.49, 368.23 2.1 M1.89 429.62 C123.93 289.24, 245.97 148.85, 373.88 1.7 M1.89 429.62 C111.52 303.51, 221.15 177.4, 373.88 1.7 M1.63 436.02 C83.12 342.28, 164.6 248.54, 378.86 2.06 M1.63 436.02 C104.6 317.56, 207.58 199.11, 378.86 2.06 M2.02 441.66 C123.65 301.75, 245.27 161.84, 383.85 2.42 M2.02 441.66 C130.33 294.06, 258.64 146.46, 383.85 2.42 M1.76 448.06 C132.84 297.27, 263.92 146.49, 389.49 2.03 M1.76 448.06 C116.92 315.59, 232.08 183.11, 389.49 2.03 M1.5 454.46 C88.97 353.84, 176.44 253.22, 394.48 2.39 M1.5 454.46 C137.2 298.36, 272.9 142.25, 394.48 2.39 M1.9 460.1 C149.95 289.79, 298 119.47, 400.12 1.99 M1.9 460.1 C137.5 304.11, 273.1 148.12, 400.12 1.99 M1.64 466.5 C99.84 353.53, 198.04 240.56, 405.11 2.35 M1.64 466.5 C125.12 324.45, 248.61 182.39, 405.11 2.35 M2.03 472.14 C148.93 303.16, 295.82 134.18, 410.75 1.96 M2.03 472.14 C134.04 320.28, 266.05 168.42, 410.75 1.96 M2.42 477.79 C131.5 329.31, 260.57 180.83, 415.74 2.32 M2.42 477.79 C94.89 371.42, 187.35 265.06, 415.74 2.32 M1.51 484.94 C157.4 305.61, 313.29 126.27, 421.38 1.93 M1.51 484.94 C121.49 346.91, 241.48 208.88, 421.38 1.93 M2.56 489.83 C124.89 349.1, 247.23 208.37, 426.37 2.29 M2.56 489.83 C140.53 331.11, 278.51 172.38, 426.37 2.29 M4.26 493.96 C135.12 343.43, 265.97 192.9, 432.01 1.89 M4.26 493.96 C171.98 301.02, 339.7 108.08, 432.01 1.89 M6.63 497.34 C161.59 319.08, 316.55 140.81, 437 2.25 M6.63 497.34 C118.86 368.23, 231.09 239.13, 437 2.25 M8.99 500.72 C134.71 356.1, 260.42 211.48, 442.64 1.86 M8.99 500.72 C150.83 337.55, 292.67 174.38, 442.64 1.86 M12.01 503.34 C117.51 381.97, 223.02 260.61, 447.63 2.22 M12.01 503.34 C142.87 352.81, 273.73 202.27, 447.63 2.22 M15.03 505.97 C136.85 365.82, 258.68 225.68, 453.27 1.82 M15.03 505.97 C145.5 355.88, 275.97 205.79, 453.27 1.82 M19.36 507.08 C185.63 315.81, 351.9 124.54, 458.26 2.18 M19.36 507.08 C167.43 336.75, 315.5 166.42, 458.26 2.18 M23.69 508.2 C135.08 380.06, 246.46 251.93, 463.9 1.79 M23.69 508.2 C126.18 390.29, 228.68 272.39, 463.9 1.79 M27.36 510.07 C178.32 336.41, 329.28 162.75, 468.89 2.15 M27.36 510.07 C153.84 364.58, 280.31 219.08, 468.89 2.15 M33.66 508.92 C133.31 394.29, 232.95 279.66, 474.53 1.75 M33.66 508.92 C202.59 314.59, 371.52 120.25, 474.53 1.75 M38.65 509.28 C140.69 391.89, 242.73 274.51, 479.52 2.11 M38.65 509.28 C164 365.08, 289.36 220.87, 479.52 2.11 M44.29 508.88 C148.36 389.16, 252.43 269.44, 485.17 1.72 M44.29 508.88 C185.97 345.9, 327.65 182.92, 485.17 1.72 M49.28 509.24 C170.81 369.43, 292.35 229.63, 490.15 2.08 M49.28 509.24 C176.94 362.39, 304.59 215.54, 490.15 2.08 M54.92 508.85 C209.4 331.14, 363.88 153.44, 495.8 1.68 M54.92 508.85 C205.64 335.47, 356.35 162.1, 495.8 1.68 M59.91 509.21 C161.68 392.14, 263.45 275.06, 500.78 2.04 M59.91 509.21 C184.48 365.91, 309.04 222.62, 500.78 2.04 M64.9 509.57 C181.45 375.49, 298.01 241.4, 505.77 2.4 M64.9 509.57 C179.98 377.18, 295.06 244.8, 505.77 2.4 M70.54 509.17 C238.93 315.46, 407.33 121.75, 512.07 1.25 M70.54 509.17 C187.8 374.28, 305.07 239.38, 512.07 1.25 M75.53 509.53 C208.65 356.4, 341.77 203.26, 517.06 1.61 M75.53 509.53 C171.39 399.26, 267.25 288.99, 517.06 1.61 M81.17 509.14 C230.78 337.03, 380.4 164.92, 521.39 2.73 M81.17 509.14 C196.88 376.03, 312.6 242.91, 521.39 2.73 M86.16 509.5 C180.09 401.44, 274.02 293.39, 526.37 3.09 M86.16 509.5 C205.11 372.67, 324.05 235.83, 526.37 3.09 M91.8 509.11 C200.03 384.61, 308.25 260.11, 530.05 4.96 M91.8 509.11 C232.21 347.58, 372.63 186.05, 530.05 4.96 M96.79 509.47 C262.71 318.59, 428.63 127.72, 533.72 6.83 M96.79 509.47 C185.18 407.78, 273.57 306.1, 533.72 6.83 M102.43 509.07 C263.75 323.5, 425.06 137.92, 536.74 9.45 M102.43 509.07 C235.39 356.12, 368.34 203.17, 536.74 9.45 M107.42 509.43 C197.4 405.91, 287.39 302.4, 539.1 12.83 M107.42 509.43 C244.37 351.89, 381.32 194.34, 539.1 12.83 M113.06 509.04 C245.77 356.38, 378.47 203.71, 540.81 16.97 M113.06 509.04 C245.6 356.57, 378.14 204.1, 540.81 16.97 M118.05 509.4 C260.68 345.32, 403.31 181.24, 543.17 20.34 M118.05 509.4 C220.41 391.64, 322.77 273.89, 543.17 20.34 M123.69 509 C286.78 321.39, 449.87 133.77, 543.57 25.99 M123.69 509 C225.82 391.52, 327.94 274.04, 543.57 25.99 M128.68 509.36 C221.97 402.05, 315.25 294.73, 543.31 32.39 M128.68 509.36 C261.57 356.49, 394.46 203.61, 543.31 32.39 M134.32 508.97 C240.25 387.12, 346.17 265.26, 543.05 38.78 M134.32 508.97 C232.33 396.22, 330.35 283.46, 543.05 38.78 M139.31 509.33 C288.5 337.7, 437.69 166.08, 543.44 44.43 M139.31 509.33 C230.61 404.3, 321.9 299.27, 543.44 44.43 M144.95 508.93 C265.91 369.79, 386.87 230.64, 543.18 50.82 M144.95 508.93 C246.5 392.11, 348.05 275.3, 543.18 50.82 M149.94 509.29 C263.45 378.71, 376.97 248.12, 543.57 56.47 M149.94 509.29 C287.06 351.55, 424.19 193.81, 543.57 56.47 M155.58 508.9 C245.38 405.6, 335.17 302.31, 543.31 62.87 M155.58 508.9 C258.76 390.2, 361.94 271.51, 543.31 62.87 M160.57 509.26 C287.22 363.56, 413.87 217.87, 543.05 69.26 M160.57 509.26 C237.47 420.79, 314.37 332.33, 543.05 69.26 M166.21 508.86 C271.94 387.24, 377.66 265.62, 543.45 74.91 M166.21 508.86 C268.94 390.69, 371.66 272.52, 543.45 74.91 M171.2 509.22 C273.13 391.97, 375.06 274.71, 543.18 81.3 M171.2 509.22 C252.71 415.45, 334.23 321.68, 543.18 81.3 M176.19 509.58 C255.33 418.54, 334.48 327.49, 543.58 86.95 M176.19 509.58 C284.44 385.06, 392.69 260.53, 543.58 86.95 M181.83 509.19 C298.15 375.38, 414.47 241.57, 543.32 93.34 M181.83 509.19 C311.81 359.66, 441.79 210.14, 543.32 93.34 M186.82 509.55 C304.69 373.95, 422.56 238.35, 543.06 99.74 M186.82 509.55 C320.77 355.45, 454.73 201.35, 543.06 99.74 M192.46 509.16 C300.31 385.08, 408.17 261.01, 543.45 105.39 M192.46 509.16 C298.19 387.53, 403.91 265.91, 543.45 105.39 M197.45 509.52 C283.38 410.66, 369.32 311.8, 543.19 111.78 M197.45 509.52 C329.26 357.88, 461.08 206.24, 543.19 111.78 M203.09 509.12 C302.35 394.94, 401.61 280.75, 543.58 117.43 M203.09 509.12 C286.45 413.23, 369.81 317.33, 543.58 117.43 M208.08 509.48 C314.85 386.65, 421.62 263.82, 543.32 123.82 M208.08 509.48 C341.17 356.38, 474.26 203.27, 543.32 123.82 M213.72 509.09 C333.46 371.34, 453.2 233.59, 543.06 130.22 M213.72 509.09 C316.79 390.51, 419.87 271.94, 543.06 130.22 M218.71 509.45 C289.78 427.68, 360.86 345.91, 543.46 135.86 M218.71 509.45 C326.46 385.49, 434.21 261.54, 543.46 135.86 M224.35 509.05 C301.1 420.76, 377.85 332.47, 543.19 142.26 M224.35 509.05 C335.99 380.62, 447.64 252.19, 543.19 142.26 M229.34 509.41 C341.21 380.72, 453.07 252.03, 543.59 147.91 M229.34 509.41 C328.67 395.15, 427.99 280.88, 543.59 147.91 M234.98 509.02 C317.71 413.85, 400.43 318.68, 543.33 154.3 M234.98 509.02 C334.49 394.54, 434.01 280.06, 543.33 154.3 M239.97 509.38 C320.06 417.23, 400.16 325.09, 543.07 160.7 M239.97 509.38 C331.54 404.03, 423.12 298.68, 543.07 160.7 M245.61 508.98 C311.07 433.68, 376.54 358.37, 543.46 166.34 M245.61 508.98 C340.61 399.7, 435.6 290.42, 543.46 166.34 M250.6 509.34 C310.95 439.92, 371.3 370.49, 543.2 172.74 M250.6 509.34 C327.89 420.43, 405.17 331.52, 543.2 172.74 M256.24 508.95 C341.53 410.83, 426.82 312.72, 543.59 178.39 M256.24 508.95 C356.49 393.62, 456.74 278.3, 543.59 178.39 M261.23 509.31 C366.34 388.38, 471.46 267.46, 543.33 184.78 M261.23 509.31 C373.54 380.1, 485.86 250.9, 543.33 184.78 M266.87 508.91 C357.77 404.35, 448.67 299.78, 543.07 191.18 M266.87 508.91 C362.03 399.44, 457.19 289.97, 543.07 191.18 M271.86 509.27 C348.5 421.11, 425.14 332.94, 543.46 196.82 M271.86 509.27 C359.33 408.65, 446.8 308.03, 543.46 196.82 M277.5 508.88 C377.01 394.4, 476.53 279.93, 543.2 203.22 M277.5 508.88 C373.09 398.92, 468.68 288.95, 543.2 203.22 M282.49 509.24 C382.19 394.54, 481.89 279.85, 543.6 208.86 M282.49 509.24 C354.46 426.44, 426.44 343.64, 543.6 208.86 M288.13 508.84 C369.56 415.17, 450.98 321.5, 543.34 215.26 M288.13 508.84 C382.63 400.13, 477.13 291.42, 543.34 215.26 M293.12 509.2 C354.77 438.28, 416.42 367.36, 543.07 221.66 M293.12 509.2 C373.26 417.01, 453.41 324.81, 543.07 221.66 M298.1 509.56 C366.03 431.43, 433.95 353.29, 543.47 227.3 M298.1 509.56 C365.27 432.3, 432.44 355.03, 543.47 227.3 M303.75 509.17 C394.7 404.55, 485.64 299.92, 543.21 233.7 M303.75 509.17 C385.29 415.36, 466.84 321.55, 543.21 233.7 M308.73 509.53 C400.35 404.14, 491.96 298.75, 543.6 239.34 M308.73 509.53 C376.75 431.29, 444.76 353.05, 543.6 239.34 M314.38 509.14 C363.05 453.14, 411.72 397.15, 543.34 245.74 M314.38 509.14 C369.51 445.71, 424.64 382.29, 543.34 245.74 M319.36 509.5 C370.62 450.53, 421.88 391.57, 543.08 252.14 M319.36 509.5 C399.72 417.06, 480.07 324.62, 543.08 252.14 M325.01 509.1 C391.51 432.6, 458.01 356.09, 543.47 257.78 M325.01 509.1 C401.18 421.48, 477.35 333.85, 543.47 257.78 M329.99 509.46 C413.68 413.19, 497.36 316.93, 543.21 264.18 M329.99 509.46 C403.72 424.65, 477.44 339.85, 543.21 264.18 M335.64 509.07 C406.94 427.05, 478.24 345.02, 543.61 269.82 M335.64 509.07 C380.01 458.02, 424.38 406.98, 543.61 269.82 M340.62 509.43 C402.81 437.89, 465 366.35, 543.35 276.22 M340.62 509.43 C388.15 454.76, 435.67 400.09, 543.35 276.22 M346.27 509.03 C413.88 431.25, 481.5 353.47, 543.08 282.62 M346.27 509.03 C386.79 462.42, 427.31 415.8, 543.08 282.62 M351.25 509.39 C394.83 459.26, 438.41 409.13, 543.48 288.26 M351.25 509.39 C415.11 435.94, 478.96 362.48, 543.48 288.26 M356.9 509 C403.54 455.35, 450.18 401.69, 543.22 294.66 M356.9 509 C416.37 440.58, 475.84 372.17, 543.22 294.66 M361.88 509.36 C404.62 460.19, 447.36 411.03, 543.61 300.3 M361.88 509.36 C410.56 453.36, 459.24 397.36, 543.61 300.3 M367.53 508.96 C426.44 441.19, 485.36 373.41, 543.35 306.7 M367.53 508.96 C432.24 434.52, 496.95 360.08, 543.35 306.7 M372.51 509.32 C413.99 461.61, 455.46 413.9, 543.09 313.1 M372.51 509.32 C439.41 432.36, 506.32 355.4, 543.09 313.1 M378.16 508.93 C443.94 433.25, 509.73 357.57, 543.48 318.74 M378.16 508.93 C442.49 434.92, 506.83 360.91, 543.48 318.74 M383.14 509.29 C445.53 437.52, 507.92 365.75, 543.22 325.14 M383.14 509.29 C443.63 439.71, 504.11 370.14, 543.22 325.14 M388.79 508.89 C445.6 443.53, 502.42 378.18, 543.62 330.78 M388.79 508.89 C426.11 465.96, 463.43 423.03, 543.62 330.78 M393.77 509.25 C430 467.58, 466.23 425.91, 543.36 337.18 M393.77 509.25 C426.56 471.54, 459.35 433.82, 543.36 337.18 M399.42 508.86 C442.31 459.52, 485.2 410.18, 543.09 343.58 M399.42 508.86 C428.74 475.12, 458.07 441.39, 543.09 343.58 M404.4 509.22 C459.46 445.89, 514.51 382.55, 543.49 349.22 M404.4 509.22 C436.77 471.99, 469.13 434.76, 543.49 349.22 M409.39 509.58 C459.85 451.53, 510.31 393.49, 543.23 355.62 M409.39 509.58 C460.34 450.97, 511.29 392.36, 543.23 355.62 M415.03 509.19 C450.29 468.62, 485.55 428.06, 543.62 361.26 M415.03 509.19 C448.02 471.24, 481 433.3, 543.62 361.26 M420.02 509.55 C458.88 464.85, 497.73 420.15, 543.36 367.66 M420.02 509.55 C456.4 467.7, 492.77 425.85, 543.36 367.66 M425.66 509.15 C464.29 464.72, 502.91 420.29, 543.1 374.06 M425.66 509.15 C455.12 475.27, 484.57 441.39, 543.1 374.06 M430.65 509.51 C470.51 463.66, 510.36 417.82, 543.49 379.7 M430.65 509.51 C463.7 471.49, 496.75 433.48, 543.49 379.7 M436.29 509.12 C461.92 479.64, 487.54 450.17, 543.23 386.1 M436.29 509.12 C468.11 472.52, 499.93 435.92, 543.23 386.1 M441.28 509.48 C467.92 478.83, 494.56 448.18, 543.63 391.74 M441.28 509.48 C476.33 469.16, 511.38 428.84, 543.63 391.74 M446.92 509.08 C477.23 474.22, 507.53 439.36, 543.37 398.14 M446.92 509.08 C466.26 486.84, 485.6 464.59, 543.37 398.14 M451.91 509.44 C482.31 474.48, 512.7 439.51, 543.1 404.54 M451.91 509.44 C473.2 484.95, 494.49 460.46, 543.1 404.54 M457.55 509.05 C482.37 480.5, 507.19 451.95, 543.5 410.18 M457.55 509.05 C482.1 480.82, 506.64 452.58, 543.5 410.18 M462.54 509.41 C494.6 472.53, 526.66 435.65, 543.24 416.58 M462.54 509.41 C493.01 474.36, 523.47 439.31, 543.24 416.58 M468.18 509.01 C492.88 480.61, 517.57 452.2, 543.63 422.22 M468.18 509.01 C483.29 491.64, 498.4 474.26, 543.63 422.22 M473.17 509.37 C487.59 492.79, 502 476.21, 543.37 428.62 M473.17 509.37 C487.79 492.55, 502.41 475.74, 543.37 428.62 M478.81 508.98 C493.09 492.55, 507.37 476.13, 543.11 435.02 M478.81 508.98 C499 485.75, 519.19 462.53, 543.11 435.02 M483.8 509.34 C498.06 492.94, 512.32 476.54, 543.5 440.66 M483.8 509.34 C506.55 483.17, 529.3 457, 543.5 440.66 M489.45 508.94 C510.61 484.59, 531.78 460.24, 543.24 447.06 M489.45 508.94 C506.57 489.25, 523.69 469.55, 543.24 447.06 M494.43 509.3 C509.54 491.92, 524.65 474.54, 543.64 452.7 M494.43 509.3 C512.8 488.18, 531.16 467.05, 543.64 452.7 M500.08 508.91 C512.63 494.47, 525.19 480.02, 543.38 459.1 M500.08 508.91 C509.87 497.64, 519.66 486.37, 543.38 459.1 M505.06 509.27 C518.3 494.05, 531.53 478.82, 543.11 465.5 M505.06 509.27 C515.86 496.84, 526.67 484.42, 543.11 465.5 M511.36 508.12 C523.84 493.77, 536.32 479.41, 543.51 471.14 M511.36 508.12 C523.35 494.33, 535.34 480.53, 543.51 471.14 M517 507.73 C523.1 500.72, 529.19 493.71, 543.9 476.78 M517 507.73 C523.3 500.48, 529.6 493.24, 543.9 476.78 M520.68 509.6 C529.44 499.52, 538.2 489.44, 542.99 483.94 M520.68 509.6 C525.49 504.06, 530.29 498.53, 542.99 483.94 M530.91 503.92 C534.67 499.59, 538.43 495.27, 542.07 491.09 M530.91 503.92 C535.01 499.21, 539.1 494.5, 542.07 491.09" stroke="#ced4da" stroke-width="0.5" fill="none"></path><path d="M32 0 M32 0 C145.38 0, 258.76 0, 511 0 M32 0 C191.38 0, 350.77 0, 511 0 M511 0 C532.33 0, 543 10.67, 543 32 M511 0 C532.33 0, 543 10.67, 543 32 M543 32 C543 136.21, 543 240.43, 543 476 M543 32 C543 190.91, 543 349.81, 543 476 M543 476 C543 497.33, 532.33 508, 511 508 M543 476 C543 497.33, 532.33 508, 511 508 M511 508 C361.45 508, 211.91 508, 32 508 M511 508 C342.55 508, 174.1 508, 32 508 M32 508 C10.67 508, 0 497.33, 0 476 M32 508 C10.67 508, 0 497.33, 0 476 M0 476 C0 341.78, 0 207.56, 0 32 M0 476 C0 309.86, 0 143.72, 0 32 M0 32 C0 10.67, 10.67 0, 32 0 M0 32 C0 10.67, 10.67 0, 32 0" stroke="#000000" stroke-width="1" fill="none"></path></g><g transform="translate(230 35.5) rotate(0 37.5 18)"><text x="37.5" y="25" font-family="Virgil, Segoe UI Emoji" font-size="28px" fill="#000000" text-anchor="middle" style="white-space: pre;" direction="ltr">Input</text></g><g stroke-linecap="round" transform="translate(58 168) rotate(0 218 47.5)"><path d="M23.75 0 M23.75 0 C113.65 0, 203.55 0, 412.25 0 M23.75 0 C155.3 0, 286.86 0, 412.25 0 M412.25 0 C428.08 0, 436 7.92, 436 23.75 M412.25 0 C428.08 0, 436 7.92, 436 23.75 M436 23.75 C436 37.06, 436 50.37, 436 71.25 M436 23.75 C436 35.8, 436 47.85, 436 71.25 M436 71.25 C436 87.08, 428.08 95, 412.25 95 M436 71.25 C436 87.08, 428.08 95, 412.25 95 M412.25 95 C301.04 95, 189.83 95, 23.75 95 M412.25 95 C319.72 95, 227.2 95, 23.75 95 M23.75 95 C7.92 95, 0 87.08, 0 71.25 M23.75 95 C7.92 95, 0 87.08, 0 71.25 M0 71.25 C0 52.54, 0 33.84, 0 23.75 M0 71.25 C0 57.45, 0 43.65, 0 23.75 M0 23.75 C0 7.92, 7.92 0, 23.75 0 M0 23.75 C0 7.92, 7.92 0, 23.75 0" stroke="#e67700" stroke-width="1" fill="none"></path></g><g transform="translate(131 422) rotate(0 143 26)"><text x="143" y="18" font-family="Virgil, Segoe UI Emoji" font-size="20px" fill="#c92a2a" text-anchor="middle" style="white-space: pre;" direction="ltr">Interventions of the deputy </text><text x="143" y="44" font-family="Virgil, Segoe UI Emoji" font-size="20px" fill="#c92a2a" text-anchor="middle" style="white-space: pre;" direction="ltr">during the session</text></g><g stroke-linecap="round" transform="translate(57 401.5) rotate(0 218 47.5)"><path d="M23.75 0 M23.75 0 C159.89 0, 296.04 0, 412.25 0 M23.75 0 C137.74 0, 251.73 0, 412.25 0 M412.25 0 C428.08 0, 436 7.92, 436 23.75 M412.25 0 C428.08 0, 436 7.92, 436 23.75 M436 23.75 C436 33.55, 436 43.34, 436 71.25 M436 23.75 C436 37.58, 436 51.4, 436 71.25 M436 71.25 C436 87.08, 428.08 95, 412.25 95 M436 71.25 C436 87.08, 428.08 95, 412.25 95 M412.25 95 C305.57 95, 198.88 95, 23.75 95 M412.25 95 C294.47 95, 176.69 95, 23.75 95 M23.75 95 C7.92 95, 0 87.08, 0 71.25 M23.75 95 C7.92 95, 0 87.08, 0 71.25 M0 71.25 C0 54.77, 0 38.29, 0 23.75 M0 71.25 C0 58.05, 0 44.86, 0 23.75 M0 23.75 C0 7.92, 7.92 0, 23.75 0 M0 23.75 C0 7.92, 7.92 0, 23.75 0" stroke="#c92a2a" stroke-width="1" fill="none"></path></g><g stroke-linecap="round" transform="translate(57 284.5) rotate(0 218 47.5)"><path d="M23.75 0 M23.75 0 C154.63 0, 285.51 0, 412.25 0 M23.75 0 C129.21 0, 234.67 0, 412.25 0 M412.25 0 C428.08 0, 436 7.92, 436 23.75 M412.25 0 C428.08 0, 436 7.92, 436 23.75 M436 23.75 C436 38.61, 436 53.48, 436 71.25 M436 23.75 C436 36.16, 436 48.57, 436 71.25 M436 71.25 C436 87.08, 428.08 95, 412.25 95 M436 71.25 C436 87.08, 428.08 95, 412.25 95 M412.25 95 C272.09 95, 131.93 95, 23.75 95 M412.25 95 C264.31 95, 116.37 95, 23.75 95 M23.75 95 C7.92 95, 0 87.08, 0 71.25 M23.75 95 C7.92 95, 0 87.08, 0 71.25 M0 71.25 C0 53.27, 0 35.3, 0 23.75 M0 71.25 C0 52.82, 0 34.4, 0 23.75 M0 23.75 C0 7.92, 7.92 0, 23.75 0 M0 23.75 C0 7.92, 7.92 0, 23.75 0" stroke="#087f5b" stroke-width="1" fill="none"></path></g><g transform="translate(135 317) rotate(0 131 13)"><text x="131" y="18" font-family="Virgil, Segoe UI Emoji" font-size="20px" fill="#087f5b" text-anchor="middle" style="white-space: pre;" direction="ltr">Description of the subject</text></g><g transform="translate(66 83) rotate(0 206 26)"><text x="0" y="18" font-family="Virgil, Segoe UI Emoji" font-size="20px" fill="#495057" text-anchor="start" style="white-space: pre;" direction="ltr">= All the interventions of a deputy on a </text><text x="0" y="44" font-family="Virgil, Segoe UI Emoji" font-size="20px" fill="#495057" text-anchor="start" style="white-space: pre;" direction="ltr">specific topic during a session </text></g><g transform="translate(135 190) rotate(0 148 26)"><text x="148" y="18" font-family="Virgil, Segoe UI Emoji" font-size="20px" fill="#e67700" text-anchor="middle" style="white-space: pre;" direction="ltr">Description of the profession </text><text x="148" y="44" font-family="Virgil, Segoe UI Emoji" font-size="20px" fill="#e67700" text-anchor="middle" style="white-space: pre;" direction="ltr">of the deputy</text></g><g stroke-linecap="round" transform="translate(662.3888888888889 168.83333333333331) rotate(0 226.875 85.62499999999997)"><path d="M7.86 8.16 C7.86 8.16, 7.86 8.16, 7.86 8.16 M7.86 8.16 C7.86 8.16, 7.86 8.16, 7.86 8.16 M3.66 19.09 C7.93 14.17, 12.2 9.26, 18.1 2.48 M3.66 19.09 C6.99 15.25, 10.32 11.42, 18.1 2.48 M2.75 26.24 C7.22 21.09, 11.69 15.95, 25.05 0.58 M2.75 26.24 C11.19 16.53, 19.62 6.82, 25.05 0.58 M2.48 32.64 C10.95 22.9, 19.42 13.15, 30.7 0.18 M2.48 32.64 C8.5 25.72, 14.51 18.8, 30.7 0.18 M2.88 38.28 C11.89 27.91, 20.9 17.55, 34.37 2.05 M2.88 38.28 C12.39 27.34, 21.89 16.41, 34.37 2.05 M2.62 44.68 C12.99 32.74, 23.37 20.81, 39.36 2.41 M2.62 44.68 C13.87 31.73, 25.13 18.78, 39.36 2.41 M2.36 51.07 C16.83 34.42, 31.31 17.77, 45 2.02 M2.36 51.07 C19 31.92, 35.65 12.77, 45 2.02 M2.75 56.72 C18.23 38.91, 33.71 21.1, 49.99 2.38 M2.75 56.72 C13.42 44.45, 24.09 32.17, 49.99 2.38 M2.49 63.11 C14.79 48.96, 27.1 34.81, 55.63 1.98 M2.49 63.11 C23.67 38.74, 44.86 14.37, 55.63 1.98 M2.23 69.51 C16.42 53.19, 30.6 36.87, 60.62 2.34 M2.23 69.51 C14.81 55.04, 27.39 40.57, 60.62 2.34 M2.62 75.16 C18.87 56.46, 35.13 37.77, 66.26 1.95 M2.62 75.16 C22.32 52.5, 42.01 29.84, 66.26 1.95 M2.36 81.55 C26.97 53.25, 51.57 24.95, 71.25 2.31 M2.36 81.55 C19.38 61.97, 36.41 42.39, 71.25 2.31 M2.1 87.95 C26.46 59.93, 50.82 31.91, 76.89 1.91 M2.1 87.95 C27.07 59.22, 52.04 30.5, 76.89 1.91 M2.49 93.59 C27.97 64.29, 53.45 34.98, 81.88 2.27 M2.49 93.59 C20.03 73.42, 37.57 53.25, 81.88 2.27 M2.23 99.99 C34.57 62.79, 66.92 25.58, 87.52 1.88 M2.23 99.99 C28.76 69.48, 55.28 38.97, 87.52 1.88 M1.97 106.39 C29.76 74.42, 57.55 42.46, 92.51 2.24 M1.97 106.39 C35.01 68.38, 68.06 30.37, 92.51 2.24 M2.37 112.03 C38.23 70.78, 74.09 29.52, 98.15 1.85 M2.37 112.03 C31.87 78.1, 61.36 44.16, 98.15 1.85 M2.1 118.43 C23.28 94.07, 44.46 69.71, 103.14 2.21 M2.1 118.43 C25.91 91.05, 49.71 63.66, 103.14 2.21 M2.5 124.07 C33.51 88.4, 64.52 52.73, 108.78 1.81 M2.5 124.07 C25.91 97.15, 49.32 70.22, 108.78 1.81 M2.24 130.47 C29.6 99, 56.96 67.52, 113.77 2.17 M2.24 130.47 C37.62 89.77, 73.01 49.06, 113.77 2.17 M1.98 136.87 C41.15 91.81, 80.32 46.75, 119.41 1.78 M1.98 136.87 C45.58 86.71, 89.18 36.55, 119.41 1.78 M3.03 141.76 C45.79 92.56, 88.55 43.37, 124.4 2.14 M3.03 141.76 C30.03 110.7, 57.03 79.63, 124.4 2.14 M2.77 148.16 C43.99 100.73, 85.22 53.3, 130.04 1.74 M2.77 148.16 C42.57 102.37, 82.37 56.59, 130.04 1.74 M3.16 153.8 C54.69 94.53, 106.21 35.25, 135.03 2.1 M3.16 153.8 C41.65 109.52, 80.15 65.24, 135.03 2.1 M4.87 157.93 C46.83 109.66, 88.79 61.4, 140.67 1.71 M4.87 157.93 C35.32 122.9, 65.77 87.87, 140.67 1.71 M7.23 161.31 C54.64 106.77, 102.05 52.23, 145.66 2.07 M7.23 161.31 C61.82 98.51, 116.41 35.71, 145.66 2.07 M9.59 164.69 C59.89 106.83, 110.18 48.98, 150.65 2.43 M9.59 164.69 C53.85 113.78, 98.1 62.87, 150.65 2.43 M12.61 167.31 C57.37 115.83, 102.12 64.34, 156.29 2.03 M12.61 167.31 C59.56 113.3, 106.51 59.29, 156.29 2.03 M16.94 168.43 C68.4 109.23, 119.86 50.04, 161.28 2.39 M16.94 168.43 C48.29 132.37, 79.64 96.3, 161.28 2.39 M19.96 171.05 C67.5 116.37, 115.03 61.69, 166.92 2 M19.96 171.05 C51.44 134.84, 82.92 98.63, 166.92 2 M24.95 171.41 C57.35 134.13, 89.76 96.85, 171.91 2.36 M24.95 171.41 C83.55 104.01, 142.14 36.6, 171.91 2.36 M29.94 171.77 C78.06 116.42, 126.18 61.06, 177.55 1.96 M29.94 171.77 C75.66 119.17, 121.39 66.56, 177.55 1.96 M34.27 172.89 C76.09 124.78, 117.92 76.66, 182.54 2.32 M34.27 172.89 C86.25 113.09, 138.23 53.3, 182.54 2.32 M39.25 173.25 C97.12 106.68, 154.99 40.11, 188.18 1.93 M39.25 173.25 C98.06 105.6, 156.86 37.96, 188.18 1.93 M44.9 172.85 C88.88 122.26, 132.86 71.66, 193.17 2.29 M44.9 172.85 C103.18 105.81, 161.46 38.76, 193.17 2.29 M49.88 173.21 C94.94 121.38, 140 69.54, 198.81 1.9 M49.88 173.21 C106.3 108.32, 162.71 43.42, 198.81 1.9 M55.53 172.82 C91.33 131.63, 127.14 90.44, 203.8 2.26 M55.53 172.82 C96.26 125.96, 137 79.1, 203.8 2.26 M60.51 173.18 C117.28 107.87, 174.06 42.56, 209.44 1.86 M60.51 173.18 C105.07 121.92, 149.63 70.66, 209.44 1.86 M66.16 172.79 C112.98 118.92, 159.81 65.05, 214.43 2.22 M66.16 172.79 C121.34 109.31, 176.52 45.83, 214.43 2.22 M71.14 173.15 C109.8 128.67, 148.46 84.2, 220.07 1.83 M71.14 173.15 C119.06 118.03, 166.97 62.91, 220.07 1.83 M76.79 172.75 C127.29 114.65, 177.8 56.55, 225.06 2.19 M76.79 172.75 C119.8 123.27, 162.81 73.79, 225.06 2.19 M81.77 173.11 C125.66 122.62, 169.55 72.13, 230.7 1.79 M81.77 173.11 C132.43 114.84, 183.09 56.56, 230.7 1.79 M87.42 172.72 C140.63 111.5, 193.84 50.29, 235.69 2.15 M87.42 172.72 C126.17 128.13, 164.93 83.54, 235.69 2.15 M92.4 173.08 C146.82 110.48, 201.24 47.87, 241.33 1.76 M92.4 173.08 C148.46 108.59, 204.52 44.1, 241.33 1.76 M97.39 173.44 C132.44 133.12, 167.49 92.8, 246.32 2.12 M97.39 173.44 C149.07 113.98, 200.76 54.52, 246.32 2.12 M103.03 173.04 C143.61 126.37, 184.18 79.7, 251.96 1.72 M103.03 173.04 C159.71 107.84, 216.39 42.64, 251.96 1.72 M108.02 173.4 C146.25 129.42, 184.48 85.44, 256.95 2.08 M108.02 173.4 C143.19 132.94, 178.36 92.49, 256.95 2.08 M113.66 173.01 C164.06 115.04, 214.45 57.07, 262.59 1.69 M113.66 173.01 C148.04 133.46, 182.42 93.92, 262.59 1.69 M118.65 173.37 C168.02 116.57, 217.39 59.78, 267.58 2.05 M118.65 173.37 C155.28 131.23, 191.91 89.09, 267.58 2.05 M124.29 172.97 C155.1 137.54, 185.9 102.11, 272.56 2.41 M124.29 172.97 C173.73 116.1, 223.17 59.23, 272.56 2.41 M129.28 173.33 C187.38 106.49, 245.49 39.65, 278.21 2.01 M129.28 173.33 C177.21 118.2, 225.14 63.06, 278.21 2.01 M134.92 172.94 C171.53 130.83, 208.13 88.72, 283.19 2.37 M134.92 172.94 C167.96 134.94, 200.99 96.93, 283.19 2.37 M139.91 173.3 C197.24 107.35, 254.57 41.4, 288.84 1.98 M139.91 173.3 C175.24 132.66, 210.57 92.01, 288.84 1.98 M145.55 172.9 C196.56 114.23, 247.57 55.55, 293.82 2.34 M145.55 172.9 C199.16 111.24, 252.76 49.58, 293.82 2.34 M150.54 173.26 C193.74 123.57, 236.94 73.88, 299.47 1.94 M150.54 173.26 C209.19 105.8, 267.83 38.33, 299.47 1.94 M156.18 172.87 C202.04 120.12, 247.89 67.37, 304.45 2.3 M156.18 172.87 C206.63 114.84, 257.08 56.8, 304.45 2.3 M161.17 173.23 C206.08 121.57, 250.99 69.91, 310.1 1.91 M161.17 173.23 C194.12 135.32, 227.07 97.42, 310.1 1.91 M166.81 172.83 C207.53 126, 248.24 79.17, 315.08 2.27 M166.81 172.83 C208 125.46, 249.19 78.08, 315.08 2.27 M171.8 173.19 C207.14 132.54, 242.49 91.88, 320.73 1.88 M171.8 173.19 C228.02 108.53, 284.23 43.86, 320.73 1.88 M177.44 172.8 C221.02 122.68, 264.59 72.55, 325.71 2.24 M177.44 172.8 C210.22 135.1, 242.99 97.4, 325.71 2.24 M182.43 173.16 C232.64 115.4, 282.86 57.63, 331.36 1.84 M182.43 173.16 C234.32 113.47, 286.21 53.78, 331.36 1.84 M188.07 172.77 C238.9 114.29, 289.74 55.82, 336.34 2.2 M188.07 172.77 C239.24 113.91, 290.41 55.05, 336.34 2.2 M193.06 173.13 C232.19 128.11, 271.33 83.09, 341.99 1.81 M193.06 173.13 C230.03 130.6, 267 88.07, 341.99 1.81 M198.7 172.73 C246.01 118.31, 293.32 63.89, 346.97 2.17 M198.7 172.73 C251.06 112.51, 303.41 52.28, 346.97 2.17 M203.69 173.09 C248.02 122.1, 292.35 71.1, 352.62 1.77 M203.69 173.09 C236.33 135.55, 268.96 98.01, 352.62 1.77 M208.68 173.45 C244.73 131.98, 280.79 90.5, 357.6 2.13 M208.68 173.45 C249.83 126.11, 290.99 78.77, 357.6 2.13 M214.32 173.06 C266.04 113.56, 317.76 54.07, 363.25 1.74 M214.32 173.06 C248.79 133.4, 283.27 93.75, 363.25 1.74 M219.31 173.42 C257.02 130.03, 294.74 86.65, 368.23 2.1 M219.31 173.42 C260.15 126.43, 301 79.44, 368.23 2.1 M224.95 173.02 C275.42 114.96, 325.89 56.9, 373.88 1.7 M224.95 173.02 C267.21 124.41, 309.47 75.8, 373.88 1.7 M229.94 173.38 C262.07 136.42, 294.2 99.46, 378.86 2.06 M229.94 173.38 C264.85 133.22, 299.76 93.06, 378.86 2.06 M235.58 172.99 C268.45 135.17, 301.32 97.36, 383.85 2.42 M235.58 172.99 C265.62 138.43, 295.65 103.88, 383.85 2.42 M240.57 173.35 C287.44 119.43, 334.31 65.51, 389.49 2.03 M240.57 173.35 C296.04 109.53, 351.51 45.72, 389.49 2.03 M246.21 172.95 C300.58 110.4, 354.96 47.86, 394.48 2.39 M246.21 172.95 C282.2 131.56, 318.18 90.16, 394.48 2.39 M251.2 173.31 C289.5 129.26, 327.79 85.2, 400.12 1.99 M251.2 173.31 C285.79 133.53, 320.37 93.74, 400.12 1.99 M256.84 172.92 C311.24 110.34, 365.64 47.76, 405.11 2.35 M256.84 172.92 C299.39 123.98, 341.93 75.03, 405.11 2.35 M261.83 173.28 C302.32 126.7, 342.81 80.12, 410.75 1.96 M261.83 173.28 C304.37 124.35, 346.9 75.41, 410.75 1.96 M267.47 172.88 C302.61 132.46, 337.75 92.04, 415.74 2.32 M267.47 172.88 C304 130.87, 340.52 88.85, 415.74 2.32 M272.46 173.24 C318.98 119.73, 365.5 66.21, 422.7 0.42 M272.46 173.24 C322.44 115.75, 372.42 58.25, 422.7 0.42 M278.1 172.85 C310.07 136.08, 342.04 99.3, 427.68 0.78 M278.1 172.85 C316.99 128.12, 355.88 83.38, 427.68 0.78 M283.09 173.21 C319.13 131.75, 355.17 90.29, 431.36 2.65 M283.09 173.21 C327.8 121.77, 372.52 70.34, 431.36 2.65 M288.73 172.82 C341.22 112.43, 393.71 52.05, 436.35 3.01 M288.73 172.82 C332.29 122.71, 375.85 72.6, 436.35 3.01 M293.72 173.18 C332.9 128.1, 372.09 83.03, 440.68 4.12 M293.72 173.18 C330.25 131.15, 366.79 89.12, 440.68 4.12 M299.36 172.78 C348.87 115.83, 398.38 58.87, 443.7 6.74 M299.36 172.78 C349.45 115.16, 399.54 57.54, 443.7 6.74 M304.35 173.14 C346.58 124.56, 388.82 75.97, 446.71 9.37 M304.35 173.14 C355.35 114.48, 406.34 55.81, 446.71 9.37 M309.99 172.75 C348.71 128.21, 387.42 83.68, 449.08 12.75 M309.99 172.75 C343.28 134.46, 376.56 96.17, 449.08 12.75 M314.98 173.11 C365.42 115.08, 415.86 57.05, 450.78 16.88 M314.98 173.11 C361.55 119.53, 408.12 65.96, 450.78 16.88 M320.62 172.71 C358.67 128.94, 396.72 85.17, 453.8 19.51 M320.62 172.71 C350.39 138.47, 380.16 104.22, 453.8 19.51 M325.61 173.07 C357.89 135.94, 390.16 98.81, 454.2 25.15 M325.61 173.07 C356.91 137.06, 388.22 101.05, 454.2 25.15 M330.6 173.43 C368.97 129.29, 407.35 85.14, 453.94 31.55 M330.6 173.43 C377.39 119.6, 424.19 65.77, 453.94 31.55 M336.24 173.04 C361.91 143.5, 387.59 113.97, 454.33 37.19 M336.24 173.04 C363.23 141.99, 390.22 110.94, 454.33 37.19 M341.23 173.4 C377.63 131.52, 414.03 89.65, 454.07 43.59 M341.23 173.4 C365.47 145.51, 389.71 117.62, 454.07 43.59 M346.87 173 C376.4 139.03, 405.93 105.06, 454.46 49.23 M346.87 173 C389.39 124.09, 431.91 75.18, 454.46 49.23 M351.86 173.36 C383.56 136.89, 415.27 100.41, 454.2 55.63 M351.86 173.36 C379.06 142.07, 406.26 110.78, 454.2 55.63 M357.5 172.97 C391.28 134.11, 425.07 95.24, 454.6 61.27 M357.5 172.97 C393.27 131.82, 429.03 90.68, 454.6 61.27 M362.49 173.33 C388.62 143.27, 414.75 113.2, 454.34 67.67 M362.49 173.33 C389.71 142.02, 416.93 110.7, 454.34 67.67 M368.13 172.93 C392.66 144.72, 417.19 116.5, 454.07 74.07 M368.13 172.93 C394.02 143.15, 419.91 113.36, 454.07 74.07 M373.12 173.29 C395.91 147.07, 418.71 120.84, 454.47 79.71 M373.12 173.29 C397.43 145.33, 421.73 117.37, 454.47 79.71 M378.76 172.9 C398.1 150.65, 417.44 128.4, 454.21 86.11 M378.76 172.9 C399.52 149.01, 420.29 125.13, 454.21 86.11 M383.75 173.26 C408.72 144.54, 433.68 115.81, 454.6 91.75 M383.75 173.26 C404.54 149.34, 425.34 125.42, 454.6 91.75 M389.39 172.87 C412.26 146.55, 435.14 120.24, 454.34 98.15 M389.39 172.87 C408.85 150.48, 428.31 128.09, 454.34 98.15 M394.38 173.23 C417.21 146.96, 440.04 120.69, 454.73 103.79 M394.38 173.23 C414.23 150.39, 434.08 127.55, 454.73 103.79 M400.02 172.83 C421.04 148.65, 442.06 124.47, 454.47 110.19 M400.02 172.83 C417.01 153.28, 434 133.74, 454.47 110.19 M405.01 173.19 C417.66 158.64, 430.3 144.09, 454.21 116.59 M405.01 173.19 C418.86 157.25, 432.72 141.31, 454.21 116.59 M410.65 172.8 C423.53 157.97, 436.42 143.15, 454.61 122.23 M410.65 172.8 C427.27 153.68, 443.89 134.55, 454.61 122.23 M415.64 173.16 C427.63 159.36, 439.62 145.57, 454.34 128.63 M415.64 173.16 C425.56 161.74, 435.49 150.32, 454.34 128.63 M421.94 172.01 C432.77 159.54, 443.61 147.08, 454.74 134.27 M421.94 172.01 C431.51 161, 441.08 149.99, 454.74 134.27 M427.58 171.61 C435.28 162.76, 442.98 153.9, 455.13 139.91 M427.58 171.61 C438.22 159.37, 448.86 147.13, 455.13 139.91 M431.91 172.73 C438.08 165.63, 444.25 158.53, 454.22 147.07 M431.91 172.73 C440.27 163.11, 448.63 153.5, 454.22 147.07 M442.15 167.05 C444.53 164.3, 446.92 161.56, 449.36 158.75 M442.15 167.05 C443.82 165.13, 445.49 163.2, 449.36 158.75" stroke="#4c6ef5" stroke-width="0.5" fill="none"></path><path d="M32 0 M32 0 C122.67 0, 213.34 0, 421.75 0 M32 0 C140.01 0, 248.03 0, 421.75 0 M421.75 0 C443.08 0, 453.75 10.67, 453.75 32 M421.75 0 C443.08 0, 453.75 10.67, 453.75 32 M453.75 32 C453.75 65.04, 453.75 98.08, 453.75 139.25 M453.75 32 C453.75 67.26, 453.75 102.52, 453.75 139.25 M453.75 139.25 C453.75 160.58, 443.08 171.25, 421.75 171.25 M453.75 139.25 C453.75 160.58, 443.08 171.25, 421.75 171.25 M421.75 171.25 C336.09 171.25, 250.44 171.25, 32 171.25 M421.75 171.25 C321.51 171.25, 221.27 171.25, 32 171.25 M32 171.25 C10.67 171.25, 0 160.58, 0 139.25 M32 171.25 C10.67 171.25, 0 160.58, 0 139.25 M0 139.25 C0 96.58, 0 53.92, 0 32 M0 139.25 C0 112.1, 0 84.94, 0 32 M0 32 C0 10.67, 10.67 0, 32 0 M0 32 C0 10.67, 10.67 0, 32 0" stroke="#000000" stroke-width="1" fill="none"></path></g><g transform="translate(827.3888888888889 228.58333333333331) rotate(0 52.5 23)"><text x="52.5" y="32" font-family="Virgil, Segoe UI Emoji" font-size="36px" fill="#000000" text-anchor="middle" style="white-space: pre;" direction="ltr">BERT</text></g><g stroke-linecap="round" transform="translate(1279.263888888889 165.70833333333343) rotate(0 226.875 85.62499999999997)"><path d="M7.86 8.16 C7.86 8.16, 7.86 8.16, 7.86 8.16 M7.86 8.16 C7.86 8.16, 7.86 8.16, 7.86 8.16 M3.66 19.09 C8.83 13.14, 14 7.19, 18.1 2.48 M3.66 19.09 C9.01 12.94, 14.35 6.8, 18.1 2.48 M2.75 26.24 C7.34 20.95, 11.93 15.67, 25.05 0.58 M2.75 26.24 C11.54 16.12, 20.34 5.99, 25.05 0.58 M2.48 32.64 C12.14 21.53, 21.8 10.42, 30.7 0.18 M2.48 32.64 C8.39 25.84, 14.3 19.05, 30.7 0.18 M2.88 38.28 C14.91 24.44, 26.93 10.61, 34.37 2.05 M2.88 38.28 C9.87 30.23, 16.87 22.18, 34.37 2.05 M2.62 44.68 C12.62 33.17, 22.63 21.66, 39.36 2.41 M2.62 44.68 C14.7 30.78, 26.78 16.89, 39.36 2.41 M2.36 51.07 C15.17 36.34, 27.98 21.6, 45 2.02 M2.36 51.07 C11.23 40.87, 20.1 30.67, 45 2.02 M2.75 56.72 C16.85 40.5, 30.95 24.28, 49.99 2.38 M2.75 56.72 C12.9 45.04, 23.06 33.36, 49.99 2.38 M2.49 63.11 C15.8 47.8, 29.11 32.49, 55.63 1.98 M2.49 63.11 C17.09 46.32, 31.69 29.53, 55.63 1.98 M2.23 69.51 C19.67 49.45, 37.11 29.38, 60.62 2.34 M2.23 69.51 C24.21 44.23, 46.18 18.95, 60.62 2.34 M2.62 75.16 C24.86 49.58, 47.1 24, 66.26 1.95 M2.62 75.16 C19.59 55.63, 36.56 36.11, 66.26 1.95 M2.36 81.55 C21.61 59.41, 40.87 37.26, 71.25 2.31 M2.36 81.55 C26.03 54.33, 49.7 27.1, 71.25 2.31 M2.1 87.95 C27.72 58.48, 53.33 29.01, 76.89 1.91 M2.1 87.95 C28.3 57.81, 54.5 27.68, 76.89 1.91 M2.49 93.59 C32.28 59.33, 62.06 25.07, 81.88 2.27 M2.49 93.59 C23.83 69.05, 45.17 44.5, 81.88 2.27 M2.23 99.99 C19.57 80.05, 36.91 60.1, 87.52 1.88 M2.23 99.99 C20.47 79.02, 38.7 58.04, 87.52 1.88 M1.97 106.39 C24.45 80.53, 46.93 54.67, 92.51 2.24 M1.97 106.39 C31.51 72.41, 61.04 38.44, 92.51 2.24 M2.37 112.03 C34.3 75.3, 66.22 38.57, 98.15 1.85 M2.37 112.03 C27.96 82.59, 53.56 53.14, 98.15 1.85 M2.1 118.43 C31.36 84.77, 60.62 51.12, 103.14 2.21 M2.1 118.43 C33.61 82.18, 65.12 45.94, 103.14 2.21 M2.5 124.07 C41.02 79.76, 79.54 35.45, 108.78 1.81 M2.5 124.07 C28.29 94.4, 54.09 64.73, 108.78 1.81 M2.24 130.47 C26.53 102.53, 50.82 74.59, 113.77 2.17 M2.24 130.47 C29.42 99.21, 56.59 67.94, 113.77 2.17 M1.98 136.87 C42.89 89.81, 83.8 42.75, 119.41 1.78 M1.98 136.87 C48.24 83.65, 94.5 30.43, 119.41 1.78 M3.03 141.76 C36.99 102.69, 70.96 63.61, 124.4 2.14 M3.03 141.76 C46.9 91.29, 90.77 40.82, 124.4 2.14 M2.77 148.16 C50.77 92.93, 98.78 37.71, 130.04 1.74 M2.77 148.16 C40.54 104.7, 78.31 61.25, 130.04 1.74 M3.16 153.8 C36.24 115.75, 69.31 77.7, 135.03 2.1 M3.16 153.8 C46.26 104.22, 89.36 54.63, 135.03 2.1 M4.87 157.93 C54.16 101.23, 103.45 44.52, 140.67 1.71 M4.87 157.93 C38.65 119.07, 72.43 80.21, 140.67 1.71 M7.23 161.31 C39.6 124.07, 71.98 86.83, 145.66 2.07 M7.23 161.31 C38.16 125.73, 69.08 90.16, 145.66 2.07 M9.59 164.69 C44.57 124.45, 79.55 84.21, 150.65 2.43 M9.59 164.69 C47.59 120.98, 85.59 77.27, 150.65 2.43 M12.61 167.31 C50.01 124.29, 87.41 81.27, 156.29 2.03 M12.61 167.31 C63.84 108.38, 115.07 49.45, 156.29 2.03 M16.94 168.43 C46.18 134.8, 75.41 101.16, 161.28 2.39 M16.94 168.43 C60.24 118.62, 103.55 68.8, 161.28 2.39 M19.96 171.05 C62.51 122.11, 105.06 73.16, 166.92 2 M19.96 171.05 C57.23 128.18, 94.5 85.31, 166.92 2 M24.95 171.41 C58.04 133.34, 91.14 95.27, 171.91 2.36 M24.95 171.41 C54.91 136.95, 84.87 102.48, 171.91 2.36 M29.94 171.77 C60.8 136.27, 91.67 100.76, 177.55 1.96 M29.94 171.77 C68.86 126.99, 107.79 82.22, 177.55 1.96 M34.27 172.89 C85.05 114.47, 135.84 56.05, 182.54 2.32 M34.27 172.89 C88.55 110.45, 142.82 48.01, 182.54 2.32 M39.25 173.25 C74.21 133.04, 109.16 92.83, 188.18 1.93 M39.25 173.25 C92.55 111.93, 145.85 50.62, 188.18 1.93 M44.9 172.85 C75.92 137.17, 106.94 101.48, 193.17 2.29 M44.9 172.85 C88.43 122.77, 131.97 72.69, 193.17 2.29 M49.88 173.21 C96.07 120.08, 142.26 66.95, 198.81 1.9 M49.88 173.21 C98.9 116.83, 147.91 60.45, 198.81 1.9 M55.53 172.82 C101.23 120.25, 146.93 67.67, 203.8 2.26 M55.53 172.82 C87.45 136.09, 119.38 99.36, 203.8 2.26 M60.51 173.18 C106.28 120.53, 152.05 67.88, 209.44 1.86 M60.51 173.18 C118.91 106, 177.31 38.82, 209.44 1.86 M66.16 172.79 C118.12 113.01, 170.09 53.23, 214.43 2.22 M66.16 172.79 C107.96 124.69, 149.77 76.6, 214.43 2.22 M71.14 173.15 C104.84 134.38, 138.55 95.61, 220.07 1.83 M71.14 173.15 C128.28 107.42, 185.41 41.69, 220.07 1.83 M76.79 172.75 C117.58 125.83, 158.36 78.91, 225.06 2.19 M76.79 172.75 C131.07 110.3, 185.36 47.86, 225.06 2.19 M81.77 173.11 C140.63 105.4, 199.5 37.69, 230.7 1.79 M81.77 173.11 C135.71 111.06, 189.65 49.01, 230.7 1.79 M87.42 172.72 C124.38 130.19, 161.35 87.67, 235.69 2.15 M87.42 172.72 C126.3 127.98, 165.19 83.25, 235.69 2.15 M92.4 173.08 C132.68 126.74, 172.96 80.41, 241.33 1.76 M92.4 173.08 C123.41 137.41, 154.41 101.75, 241.33 1.76 M97.39 173.44 C137.38 127.44, 177.37 81.44, 246.32 2.12 M97.39 173.44 C140.1 124.3, 182.81 75.17, 246.32 2.12 M103.03 173.04 C138.23 132.55, 173.43 92.06, 251.96 1.72 M103.03 173.04 C136.38 134.68, 169.73 96.32, 251.96 1.72 M108.02 173.4 C161.06 112.39, 214.1 51.37, 256.95 2.08 M108.02 173.4 C149.41 125.79, 190.8 78.18, 256.95 2.08 M113.66 173.01 C144.27 137.8, 174.87 102.59, 262.59 1.69 M113.66 173.01 C163.34 115.86, 213.02 58.72, 262.59 1.69 M118.65 173.37 C172.84 111.03, 227.02 48.7, 267.58 2.05 M118.65 173.37 C177.59 105.57, 236.52 37.77, 267.58 2.05 M124.29 172.97 C156.7 135.69, 189.11 98.41, 272.56 2.41 M124.29 172.97 C166.28 124.67, 208.26 76.38, 272.56 2.41 M129.28 173.33 C184.58 109.71, 239.89 46.09, 278.21 2.01 M129.28 173.33 C177.27 118.13, 225.26 62.92, 278.21 2.01 M134.92 172.94 C171.15 131.26, 207.38 89.58, 283.19 2.37 M134.92 172.94 C170.61 131.89, 206.29 90.84, 283.19 2.37 M139.91 173.3 C182.58 124.21, 225.25 75.13, 288.84 1.98 M139.91 173.3 C178.82 128.54, 217.73 83.78, 288.84 1.98 M145.55 172.9 C201.86 108.13, 258.17 43.35, 293.82 2.34 M145.55 172.9 C204.24 105.39, 262.93 37.88, 293.82 2.34 M150.54 173.26 C187.08 131.24, 223.61 89.21, 299.47 1.94 M150.54 173.26 C200.97 115.26, 251.39 57.25, 299.47 1.94 M156.18 172.87 C193.23 130.25, 230.28 87.63, 304.45 2.3 M156.18 172.87 C209.61 111.41, 263.03 49.95, 304.45 2.3 M161.17 173.23 C192.73 136.93, 224.28 100.63, 310.1 1.91 M161.17 173.23 C191.22 138.66, 221.28 104.09, 310.1 1.91 M166.81 172.83 C197.63 137.39, 228.44 101.94, 315.08 2.27 M166.81 172.83 C221.33 110.12, 275.85 47.4, 315.08 2.27 M171.8 173.19 C228.16 108.36, 284.52 43.53, 320.73 1.88 M171.8 173.19 C204.62 135.44, 237.44 97.69, 320.73 1.88 M177.44 172.8 C227.11 115.67, 276.77 58.54, 325.71 2.24 M177.44 172.8 C217.98 126.17, 258.52 79.53, 325.71 2.24 M182.43 173.16 C236.84 110.57, 291.25 47.97, 331.36 1.84 M182.43 173.16 C224.97 124.22, 267.51 75.29, 331.36 1.84 M188.07 172.77 C223.76 131.72, 259.44 90.67, 336.34 2.2 M188.07 172.77 C240.67 112.26, 293.26 51.76, 336.34 2.2 M193.06 173.13 C225.99 135.24, 258.92 97.36, 341.99 1.81 M193.06 173.13 C224.47 137, 255.87 100.87, 341.99 1.81 M198.7 172.73 C237.63 127.96, 276.55 83.18, 346.97 2.17 M198.7 172.73 C244.79 119.72, 290.87 66.71, 346.97 2.17 M203.69 173.09 C236.8 135, 269.91 96.91, 352.62 1.77 M203.69 173.09 C253.01 116.35, 302.34 59.61, 352.62 1.77 M208.68 173.45 C248.32 127.85, 287.95 82.26, 357.6 2.13 M208.68 173.45 C247.8 128.45, 286.92 83.44, 357.6 2.13 M214.32 173.06 C255.09 126.16, 295.86 79.26, 363.25 1.74 M214.32 173.06 C259.53 121.06, 304.73 69.06, 363.25 1.74 M219.31 173.42 C255.86 131.38, 292.4 89.33, 368.23 2.1 M219.31 173.42 C271.93 112.89, 324.55 52.36, 368.23 2.1 M224.95 173.02 C270.85 120.22, 316.75 67.42, 373.88 1.7 M224.95 173.02 C270.64 120.47, 316.33 67.91, 373.88 1.7 M229.94 173.38 C277.92 118.19, 325.9 62.99, 378.86 2.06 M229.94 173.38 C281.69 113.85, 333.44 54.32, 378.86 2.06 M235.58 172.99 C278.09 124.09, 320.6 75.19, 383.85 2.42 M235.58 172.99 C271.41 131.77, 307.24 90.55, 383.85 2.42 M240.57 173.35 C292.18 113.98, 343.79 54.61, 389.49 2.03 M240.57 173.35 C275.1 133.63, 309.63 93.9, 389.49 2.03 M246.21 172.95 C305.27 105.01, 364.33 37.07, 394.48 2.39 M246.21 172.95 C295.26 116.53, 344.3 60.11, 394.48 2.39 M251.2 173.31 C295.38 122.49, 339.56 71.67, 400.12 1.99 M251.2 173.31 C283.21 136.48, 315.23 99.65, 400.12 1.99 M256.84 172.92 C295.44 128.51, 334.05 84.1, 405.11 2.35 M256.84 172.92 C304.08 118.57, 351.33 64.23, 405.11 2.35 M261.83 173.28 C303.35 125.51, 344.87 77.75, 410.75 1.96 M261.83 173.28 C310.57 117.21, 359.3 61.15, 410.75 1.96 M267.47 172.88 C314.64 118.62, 361.81 64.36, 415.74 2.32 M267.47 172.88 C307.73 126.57, 348 80.25, 415.74 2.32 M272.46 173.24 C321.65 116.65, 370.85 60.06, 422.7 0.42 M272.46 173.24 C305.66 135.05, 338.87 96.85, 422.7 0.42 M278.1 172.85 C314.77 130.67, 351.44 88.49, 427.68 0.78 M278.1 172.85 C334.61 107.84, 391.12 42.83, 427.68 0.78 M283.09 173.21 C313.5 138.23, 343.91 103.25, 431.36 2.65 M283.09 173.21 C338.01 110.03, 392.93 46.86, 431.36 2.65 M288.73 172.82 C339.36 114.57, 389.99 56.33, 436.35 3.01 M288.73 172.82 C340.02 113.81, 391.31 54.81, 436.35 3.01 M293.72 173.18 C323.47 138.95, 353.22 104.73, 440.68 4.12 M293.72 173.18 C333.61 127.28, 373.5 81.39, 440.68 4.12 M299.36 172.78 C348.64 116.09, 397.92 59.41, 443.7 6.74 M299.36 172.78 C330.04 137.5, 360.71 102.21, 443.7 6.74 M304.35 173.14 C352.51 117.74, 400.67 62.33, 446.71 9.37 M304.35 173.14 C338.82 133.49, 373.29 93.84, 446.71 9.37 M309.99 172.75 C365.39 109.02, 420.78 45.3, 449.08 12.75 M309.99 172.75 C355.45 120.45, 400.91 68.16, 449.08 12.75 M314.98 173.11 C363.81 116.93, 412.64 60.76, 450.78 16.88 M314.98 173.11 C345.15 138.4, 375.32 103.69, 450.78 16.88 M320.62 172.71 C360.52 126.81, 400.42 80.91, 453.8 19.51 M320.62 172.71 C369.39 116.61, 418.15 60.52, 453.8 19.51 M325.61 173.07 C369.5 122.59, 413.38 72.1, 454.2 25.15 M325.61 173.07 C373.61 117.86, 421.61 62.64, 454.2 25.15 M330.6 173.43 C362.59 136.62, 394.59 99.81, 453.94 31.55 M330.6 173.43 C371.06 126.88, 411.53 80.33, 453.94 31.55 M336.24 173.04 C370.09 134.09, 403.95 95.15, 454.33 37.19 M336.24 173.04 C369.19 135.14, 402.13 97.24, 454.33 37.19 M341.23 173.4 C377.34 131.85, 413.46 90.31, 454.07 43.59 M341.23 173.4 C378.7 130.29, 416.17 87.18, 454.07 43.59 M346.87 173 C382.05 132.53, 417.24 92.06, 454.46 49.23 M346.87 173 C383.96 130.33, 421.05 87.66, 454.46 49.23 M351.86 173.36 C387.86 131.94, 423.87 90.53, 454.2 55.63 M351.86 173.36 C374.32 147.52, 396.79 121.67, 454.2 55.63 M357.5 172.97 C388.73 137.04, 419.97 101.11, 454.6 61.27 M357.5 172.97 C396.13 128.53, 434.75 84.1, 454.6 61.27 M362.49 173.33 C385.74 146.58, 408.99 119.83, 454.34 67.67 M362.49 173.33 C394.97 135.96, 427.45 98.6, 454.34 67.67 M368.13 172.93 C390.33 147.4, 412.53 121.86, 454.07 74.07 M368.13 172.93 C392.83 144.52, 417.53 116.11, 454.07 74.07 M373.12 173.29 C401.65 140.47, 430.19 107.64, 454.47 79.71 M373.12 173.29 C390.98 152.75, 408.83 132.21, 454.47 79.71 M378.76 172.9 C397.81 150.99, 416.86 129.08, 454.21 86.11 M378.76 172.9 C400.22 148.21, 421.68 123.52, 454.21 86.11 M383.75 173.26 C412.04 140.71, 440.34 108.16, 454.6 91.75 M383.75 173.26 C399.63 154.99, 415.52 136.71, 454.6 91.75 M389.39 172.87 C412 146.86, 434.6 120.86, 454.34 98.15 M389.39 172.87 C407.71 151.79, 426.03 130.72, 454.34 98.15 M394.38 173.23 C417.42 146.72, 440.46 120.21, 454.73 103.79 M394.38 173.23 C412.27 152.64, 430.16 132.06, 454.73 103.79 M400.02 172.83 C417.28 152.98, 434.53 133.13, 454.47 110.19 M400.02 172.83 C421.52 148.1, 443.02 123.37, 454.47 110.19 M405.01 173.19 C420.21 155.7, 435.42 138.21, 454.21 116.59 M405.01 173.19 C419.13 156.94, 433.26 140.69, 454.21 116.59 M410.65 172.8 C422.04 159.69, 433.43 146.59, 454.61 122.23 M410.65 172.8 C426.46 154.61, 442.26 136.43, 454.61 122.23 M415.64 173.16 C424.16 163.35, 432.68 153.55, 454.34 128.63 M415.64 173.16 C429.91 156.74, 444.18 140.32, 454.34 128.63 M421.94 172.01 C428.59 164.35, 435.25 156.69, 454.74 134.27 M421.94 172.01 C432.92 159.37, 443.9 146.74, 454.74 134.27 M427.58 171.61 C438.12 159.49, 448.66 147.36, 455.13 139.91 M427.58 171.61 C434.07 164.14, 440.57 156.67, 455.13 139.91 M431.91 172.73 C438.7 164.91, 445.5 157.1, 454.22 147.07 M431.91 172.73 C438.62 165.01, 445.33 157.29, 454.22 147.07 M442.15 167.05 C444.25 164.63, 446.35 162.21, 449.36 158.75 M442.15 167.05 C444.34 164.52, 446.54 161.99, 449.36 158.75" stroke="#4c6ef5" stroke-width="0.5" fill="none"></path><path d="M32 0 M32 0 C128.81 0, 225.63 0, 421.75 0 M32 0 C133.38 0, 234.75 0, 421.75 0 M421.75 0 C443.08 0, 453.75 10.67, 453.75 32 M421.75 0 C443.08 0, 453.75 10.67, 453.75 32 M453.75 32 C453.75 61.86, 453.75 91.72, 453.75 139.25 M453.75 32 C453.75 72.3, 453.75 112.6, 453.75 139.25 M453.75 139.25 C453.75 160.58, 443.08 171.25, 421.75 171.25 M453.75 139.25 C453.75 160.58, 443.08 171.25, 421.75 171.25 M421.75 171.25 C335.79 171.25, 249.83 171.25, 32 171.25 M421.75 171.25 C330.1 171.25, 238.46 171.25, 32 171.25 M32 171.25 C10.67 171.25, 0 160.58, 0 139.25 M32 171.25 C10.67 171.25, 0 160.58, 0 139.25 M0 139.25 C0 109.14, 0 79.03, 0 32 M0 139.25 C0 106.02, 0 72.78, 0 32 M0 32 C0 10.67, 10.67 0, 32 0 M0 32 C0 10.67, 10.67 0, 32 0" stroke="#000000" stroke-width="1" fill="none"></path></g><g transform="translate(1423.638888888889 228.33333333333337) rotate(0 82.5 23)"><text x="82.5" y="32" font-family="Virgil, Segoe UI Emoji" font-size="36px" fill="#000000" text-anchor="middle" style="white-space: pre;" direction="ltr">Classifier</text></g><g stroke-linecap="round"><g transform="translate(556.1388888888889 198.83333333333331) rotate(0 51.875 31.875)"><path d="M0 0 C17.29 10.63, 86.46 53.13, 103.75 63.75 M0 0 C17.29 10.63, 86.46 53.13, 103.75 63.75" stroke="#000000" stroke-width="1" fill="none"></path></g></g><mask></mask><g stroke-linecap="round"><g transform="translate(552.3888888888889 322.58333333333326) rotate(0 55 -28.74999999999997)"><path d="M0 0 C18.33 -9.58, 91.67 -47.92, 110 -57.5 M0 0 C18.33 -9.58, 91.67 -47.92, 110 -57.5" stroke="#000000" stroke-width="1" fill="none"></path></g></g><mask></mask><g stroke-linecap="round"><g transform="translate(552.3888888888889 437.58333333333326) rotate(0 55 -84.37499999999997)"><path d="M0 0 C18.33 -28.12, 91.67 -140.62, 110 -168.75 M0 0 C18.33 -28.12, 91.67 -140.62, 110 -168.75" stroke="#000000" stroke-width="1" fill="none"></path></g></g><mask></mask><g stroke-linecap="round"><g transform="translate(1116.138888888889 255.08333333333331) rotate(0 81.875 -1.25)"><path d="M0 0 C27.29 -0.42, 136.46 -2.08, 163.75 -2.5 M0 0 C27.29 -0.42, 136.46 -2.08, 163.75 -2.5" stroke="#000000" stroke-width="1" fill="none"></path></g></g><mask></mask><g stroke-linecap="round"><g transform="translate(1734.888888888889 246.33333333333331) rotate(0 45.624999999999886 -38.75)"><path d="M0 0 C15.21 -12.92, 76.04 -64.58, 91.25 -77.5 M0 0 C15.21 -12.92, 76.04 -64.58, 91.25 -77.5" stroke="#000000" stroke-width="1" fill="none"></path></g></g><mask></mask><g stroke-linecap="round"><g transform="translate(1734.0555555555552 250.70833333333331) rotate(0 44.375 0.625)"><path d="M0 0 C14.79 0.21, 73.96 1.04, 88.75 1.25 M0 0 C14.79 0.21, 73.96 1.04, 88.75 1.25" stroke="#000000" stroke-width="1" fill="none"></path></g></g><mask></mask><g stroke-linecap="round"><g transform="translate(1732.8055555555552 256.9583333333333) rotate(0 51.25 44.99999999999997)"><path d="M0 0 C17.08 15, 85.42 75, 102.5 90 M0 0 C17.08 15, 85.42 75, 102.5 90" stroke="#000000" stroke-width="1" fill="none"></path></g></g><mask></mask><g transform="translate(1842.8055555555552 149.70833333333331) rotate(0 35 18)"><text x="35" y="25" font-family="Virgil, Segoe UI Emoji" font-size="28px" fill="#000000" text-anchor="middle" style="white-space: pre;" direction="ltr">Right</text></g><g transform="translate(1844.8055555555552 237.95833333333331) rotate(0 45.5 18)"><text x="45.5" y="25" font-family="Virgil, Segoe UI Emoji" font-size="28px" fill="#000000" text-anchor="middle" style="white-space: pre;" direction="ltr">Center</text></g><g transform="translate(1848.8055555555552 332.95833333333326) rotate(0 31.5 18)"><text x="31.5" y="25" font-family="Virgil, Segoe UI Emoji" font-size="28px" fill="#000000" text-anchor="middle" style="white-space: pre;" direction="ltr">Left</text></g></svg>
