<?xml version="1.0" encoding="UTF-8" standalone="no"?>
<!DOCTYPE svg PUBLIC "-//W3C//DTD SVG 1.1//EN"
 "http://www.w3.org/Graphics/SVG/1.1/DTD/svg11.dtd">
<!-- Generated by graphviz version 2.50.0 (0)
 -->
<!-- Title: model Pages: 1 -->
<svg width="1222pt" height="1362pt"
 viewBox="0.00 0.00 1222.00 1362.00" xmlns="http://www.w3.org/2000/svg" xmlns:xlink="http://www.w3.org/1999/xlink">
<g id="graph0" class="graph" transform="scale(1 1) rotate(0) translate(4 1358)">
<title>model</title>
<polygon fill="white" stroke="transparent" points="-4,4 -4,-1358 1218,-1358 1218,4 -4,4"/>
<g id="clust1" class="cluster">
<title>cluster_2</title>
<polygon fill="none" stroke="black" stroke-dasharray="5,2" points="8,-1120 8,-1314 1206,-1314 1206,-1120 8,-1120"/>
<text text-anchor="middle" x="44" y="-1300.4" font-family="Times New Roman,serif" font-size="12.00">BertLinears</text>
</g>
<g id="clust4" class="cluster">
<title>cluster_5</title>
<polygon fill="none" stroke="black" stroke-dasharray="5,2" points="812,-1128 812,-1285 1198,-1285 1198,-1128 812,-1128"/>
<text text-anchor="middle" x="846" y="-1271.4" font-family="Times New Roman,serif" font-size="12.00">BertLinear</text>
</g>
<g id="clust3" class="cluster">
<title>cluster_4</title>
<polygon fill="none" stroke="black" stroke-dasharray="5,2" points="418,-1128 418,-1285 804,-1285 804,-1128 418,-1128"/>
<text text-anchor="middle" x="452" y="-1271.4" font-family="Times New Roman,serif" font-size="12.00">BertLinear</text>
</g>
<g id="clust2" class="cluster">
<title>cluster_3</title>
<polygon fill="none" stroke="black" stroke-dasharray="5,2" points="16,-1128 16,-1285 410,-1285 410,-1128 16,-1128"/>
<text text-anchor="middle" x="50" y="-1271.4" font-family="Times New Roman,serif" font-size="12.00">BertLinear</text>
</g>
<g id="clust5" class="cluster">
<title>cluster_6</title>
<polygon fill="none" stroke="black" stroke-dasharray="5,2" points="474,-8 474,-1050 748,-1050 748,-8 474,-8"/>
<text text-anchor="middle" x="508.5" y="-1036.4" font-family="Times New Roman,serif" font-size="12.00">MLPLayer</text>
</g>
<g id="clust6" class="cluster">
<title>cluster_7</title>
<polygon fill="none" stroke="black" stroke-dasharray="5,2" points="482,-16 482,-1021 740,-1021 740,-16 482,-16"/>
<text text-anchor="middle" x="515" y="-1007.4" font-family="Times New Roman,serif" font-size="12.00">Sequential</text>
</g>
<!-- 0 -->
<g id="node1" class="node">
<title>0</title>
<polygon fill="lightyellow" stroke="transparent" points="219,-1354 47,-1354 47,-1322 219,-1322 219,-1354"/>
<polygon fill="none" stroke="black" points="47,-1322 47,-1354 148,-1354 148,-1322 47,-1322"/>
<text text-anchor="start" x="52" y="-1341" font-family="Linux libertine" font-size="10.00">input&#45;tensor</text>
<text text-anchor="start" x="71" y="-1330" font-family="Linux libertine" font-size="10.00">depth:0</text>
<polygon fill="none" stroke="black" points="148,-1322 148,-1354 219,-1354 219,-1322 148,-1322"/>
<text text-anchor="start" x="153" y="-1335.5" font-family="Linux libertine" font-size="10.00">(4, 512)</text>
</g>
<!-- 6 -->
<g id="node7" class="node">
<title>6</title>
<polygon fill="#c1ffc1" stroke="transparent" points="402,-1256 24,-1256 24,-1214 402,-1214 402,-1256"/>
<polygon fill="none" stroke="black" points="24,-1214 24,-1256 140,-1256 140,-1214 24,-1214"/>
<text text-anchor="start" x="29" y="-1238" font-family="Linux libertine" font-size="10.00">CamembertModel</text>
<text text-anchor="start" x="55.5" y="-1227" font-family="Linux libertine" font-size="10.00">depth:3</text>
<polygon fill="none" stroke="black" points="140,-1235 140,-1256 211,-1256 211,-1235 140,-1235"/>
<text text-anchor="start" x="152.5" y="-1243" font-family="Linux libertine" font-size="10.00">input:</text>
<polygon fill="none" stroke="black" points="211,-1235 211,-1256 402,-1256 402,-1235 211,-1235"/>
<text text-anchor="start" x="257.5" y="-1243" font-family="Linux libertine" font-size="10.00">2 x (4, 512) </text>
<polygon fill="none" stroke="black" points="140,-1214 140,-1235 211,-1235 211,-1214 140,-1214"/>
<text text-anchor="start" x="145" y="-1222" font-family="Linux libertine" font-size="10.00">output: </text>
<polygon fill="none" stroke="black" points="211,-1214 211,-1235 402,-1235 402,-1214 211,-1214"/>
<text text-anchor="start" x="216" y="-1222" font-family="Linux libertine" font-size="10.00">(4, 512, 768), (4, 768) </text>
</g>
<!-- 0&#45;&gt;6 -->
<g id="edge1" class="edge">
<title>0&#45;&gt;6</title>
<path fill="none" stroke="black" d="M145.15,-1321.66C157.26,-1306.37 176.13,-1282.55 190.89,-1263.91"/>
<polygon fill="black" stroke="black" points="193.68,-1266.03 197.15,-1256.02 188.19,-1261.68 193.68,-1266.03"/>
</g>
<!-- 1 -->
<g id="node2" class="node">
<title>1</title>
<polygon fill="lightyellow" stroke="transparent" points="409,-1354 237,-1354 237,-1322 409,-1322 409,-1354"/>
<polygon fill="none" stroke="black" points="237,-1322 237,-1354 338,-1354 338,-1322 237,-1322"/>
<text text-anchor="start" x="242" y="-1341" font-family="Linux libertine" font-size="10.00">input&#45;tensor</text>
<text text-anchor="start" x="261" y="-1330" font-family="Linux libertine" font-size="10.00">depth:0</text>
<polygon fill="none" stroke="black" points="338,-1322 338,-1354 409,-1354 409,-1322 338,-1322"/>
<text text-anchor="start" x="343" y="-1335.5" font-family="Linux libertine" font-size="10.00">(4, 512)</text>
</g>
<!-- 1&#45;&gt;6 -->
<g id="edge2" class="edge">
<title>1&#45;&gt;6</title>
<path fill="none" stroke="black" d="M306.29,-1321.66C289.35,-1306.1 262.77,-1281.7 242.31,-1262.91"/>
<polygon fill="black" stroke="black" points="244.53,-1260.2 234.8,-1256.02 239.8,-1265.36 244.53,-1260.2"/>
</g>
<!-- 2 -->
<g id="node3" class="node">
<title>2</title>
<polygon fill="lightyellow" stroke="transparent" points="602,-1354 438,-1354 438,-1322 602,-1322 602,-1354"/>
<polygon fill="none" stroke="black" points="438,-1322 438,-1354 539,-1354 539,-1322 438,-1322"/>
<text text-anchor="start" x="443" y="-1341" font-family="Linux libertine" font-size="10.00">input&#45;tensor</text>
<text text-anchor="start" x="462" y="-1330" font-family="Linux libertine" font-size="10.00">depth:0</text>
<polygon fill="none" stroke="black" points="539,-1322 539,-1354 602,-1354 602,-1322 539,-1322"/>
<text text-anchor="start" x="544" y="-1335.5" font-family="Linux libertine" font-size="10.00">(4, 64)</text>
</g>
<!-- 8 -->
<g id="node9" class="node">
<title>8</title>
<polygon fill="#c1ffc1" stroke="transparent" points="796,-1256 426,-1256 426,-1214 796,-1214 796,-1256"/>
<polygon fill="none" stroke="black" points="426,-1214 426,-1256 542,-1256 542,-1214 426,-1214"/>
<text text-anchor="start" x="431" y="-1238" font-family="Linux libertine" font-size="10.00">CamembertModel</text>
<text text-anchor="start" x="457.5" y="-1227" font-family="Linux libertine" font-size="10.00">depth:3</text>
<polygon fill="none" stroke="black" points="542,-1235 542,-1256 613,-1256 613,-1235 542,-1235"/>
<text text-anchor="start" x="554.5" y="-1243" font-family="Linux libertine" font-size="10.00">input:</text>
<polygon fill="none" stroke="black" points="613,-1235 613,-1256 796,-1256 796,-1235 613,-1235"/>
<text text-anchor="start" x="659" y="-1243" font-family="Linux libertine" font-size="10.00">2 x (4, 64) </text>
<polygon fill="none" stroke="black" points="542,-1214 542,-1235 613,-1235 613,-1214 542,-1214"/>
<text text-anchor="start" x="547" y="-1222" font-family="Linux libertine" font-size="10.00">output: </text>
<polygon fill="none" stroke="black" points="613,-1214 613,-1235 796,-1235 796,-1214 613,-1214"/>
<text text-anchor="start" x="618" y="-1222" font-family="Linux libertine" font-size="10.00">(4, 64, 768), (4, 768) </text>
</g>
<!-- 2&#45;&gt;8 -->
<g id="edge5" class="edge">
<title>2&#45;&gt;8</title>
<path fill="none" stroke="black" d="M533.82,-1321.66C547.66,-1306.31 569.25,-1282.34 586.08,-1263.66"/>
<polygon fill="black" stroke="black" points="588.87,-1265.79 592.97,-1256.02 583.67,-1261.1 588.87,-1265.79"/>
</g>
<!-- 3 -->
<g id="node4" class="node">
<title>3</title>
<polygon fill="lightyellow" stroke="transparent" points="784,-1354 620,-1354 620,-1322 784,-1322 784,-1354"/>
<polygon fill="none" stroke="black" points="620,-1322 620,-1354 721,-1354 721,-1322 620,-1322"/>
<text text-anchor="start" x="625" y="-1341" font-family="Linux libertine" font-size="10.00">input&#45;tensor</text>
<text text-anchor="start" x="644" y="-1330" font-family="Linux libertine" font-size="10.00">depth:0</text>
<polygon fill="none" stroke="black" points="721,-1322 721,-1354 784,-1354 784,-1322 721,-1322"/>
<text text-anchor="start" x="726" y="-1335.5" font-family="Linux libertine" font-size="10.00">(4, 64)</text>
</g>
<!-- 3&#45;&gt;8 -->
<g id="edge6" class="edge">
<title>3&#45;&gt;8</title>
<path fill="none" stroke="black" d="M688.18,-1321.66C674.34,-1306.31 652.75,-1282.34 635.92,-1263.66"/>
<polygon fill="black" stroke="black" points="638.33,-1261.1 629.03,-1256.02 633.13,-1265.79 638.33,-1261.1"/>
</g>
<!-- 4 -->
<g id="node5" class="node">
<title>4</title>
<polygon fill="lightyellow" stroke="transparent" points="986,-1354 822,-1354 822,-1322 986,-1322 986,-1354"/>
<polygon fill="none" stroke="black" points="822,-1322 822,-1354 923,-1354 923,-1322 822,-1322"/>
<text text-anchor="start" x="827" y="-1341" font-family="Linux libertine" font-size="10.00">input&#45;tensor</text>
<text text-anchor="start" x="846" y="-1330" font-family="Linux libertine" font-size="10.00">depth:0</text>
<polygon fill="none" stroke="black" points="923,-1322 923,-1354 986,-1354 986,-1322 923,-1322"/>
<text text-anchor="start" x="928" y="-1335.5" font-family="Linux libertine" font-size="10.00">(4, 16)</text>
</g>
<!-- 10 -->
<g id="node11" class="node">
<title>10</title>
<polygon fill="#c1ffc1" stroke="transparent" points="1190,-1256 820,-1256 820,-1214 1190,-1214 1190,-1256"/>
<polygon fill="none" stroke="black" points="820,-1214 820,-1256 936,-1256 936,-1214 820,-1214"/>
<text text-anchor="start" x="825" y="-1238" font-family="Linux libertine" font-size="10.00">CamembertModel</text>
<text text-anchor="start" x="851.5" y="-1227" font-family="Linux libertine" font-size="10.00">depth:3</text>
<polygon fill="none" stroke="black" points="936,-1235 936,-1256 1007,-1256 1007,-1235 936,-1235"/>
<text text-anchor="start" x="948.5" y="-1243" font-family="Linux libertine" font-size="10.00">input:</text>
<polygon fill="none" stroke="black" points="1007,-1235 1007,-1256 1190,-1256 1190,-1235 1007,-1235"/>
<text text-anchor="start" x="1053" y="-1243" font-family="Linux libertine" font-size="10.00">2 x (4, 16) </text>
<polygon fill="none" stroke="black" points="936,-1214 936,-1235 1007,-1235 1007,-1214 936,-1214"/>
<text text-anchor="start" x="941" y="-1222" font-family="Linux libertine" font-size="10.00">output: </text>
<polygon fill="none" stroke="black" points="1007,-1214 1007,-1235 1190,-1235 1190,-1214 1007,-1214"/>
<text text-anchor="start" x="1012" y="-1222" font-family="Linux libertine" font-size="10.00">(4, 16, 768), (4, 768) </text>
</g>
<!-- 4&#45;&gt;10 -->
<g id="edge9" class="edge">
<title>4&#45;&gt;10</title>
<path fill="none" stroke="black" d="M919.34,-1321.66C934.83,-1306.17 959.09,-1281.91 977.84,-1263.16"/>
<polygon fill="black" stroke="black" points="980.39,-1265.56 984.98,-1256.02 975.44,-1260.61 980.39,-1265.56"/>
</g>
<!-- 5 -->
<g id="node6" class="node">
<title>5</title>
<polygon fill="lightyellow" stroke="transparent" points="1168,-1354 1004,-1354 1004,-1322 1168,-1322 1168,-1354"/>
<polygon fill="none" stroke="black" points="1004,-1322 1004,-1354 1105,-1354 1105,-1322 1004,-1322"/>
<text text-anchor="start" x="1009" y="-1341" font-family="Linux libertine" font-size="10.00">input&#45;tensor</text>
<text text-anchor="start" x="1028" y="-1330" font-family="Linux libertine" font-size="10.00">depth:0</text>
<polygon fill="none" stroke="black" points="1105,-1322 1105,-1354 1168,-1354 1168,-1322 1105,-1322"/>
<text text-anchor="start" x="1110" y="-1335.5" font-family="Linux libertine" font-size="10.00">(4, 16)</text>
</g>
<!-- 5&#45;&gt;10 -->
<g id="edge10" class="edge">
<title>5&#45;&gt;10</title>
<path fill="none" stroke="black" d="M1073.7,-1321.66C1061.44,-1306.37 1042.34,-1282.55 1027.38,-1263.91"/>
<polygon fill="black" stroke="black" points="1030.04,-1261.63 1021.05,-1256.02 1024.58,-1266.01 1030.04,-1261.63"/>
</g>
<!-- 7 -->
<g id="node8" class="node">
<title>7</title>
<polygon fill="#c1ffc1" stroke="transparent" points="360,-1178 148,-1178 148,-1136 360,-1136 360,-1178"/>
<polygon fill="none" stroke="black" points="148,-1136 148,-1178 211,-1178 211,-1136 148,-1136"/>
<text text-anchor="start" x="156.5" y="-1160" font-family="Linux libertine" font-size="10.00">Linear</text>
<text text-anchor="start" x="153" y="-1149" font-family="Linux libertine" font-size="10.00">depth:3</text>
<polygon fill="none" stroke="black" points="211,-1157 211,-1178 282,-1178 282,-1157 211,-1157"/>
<text text-anchor="start" x="223.5" y="-1165" font-family="Linux libertine" font-size="10.00">input:</text>
<polygon fill="none" stroke="black" points="282,-1157 282,-1178 360,-1178 360,-1157 282,-1157"/>
<text text-anchor="start" x="287" y="-1165" font-family="Linux libertine" font-size="10.00">(4, 768) </text>
<polygon fill="none" stroke="black" points="211,-1136 211,-1157 282,-1157 282,-1136 211,-1136"/>
<text text-anchor="start" x="216" y="-1144" font-family="Linux libertine" font-size="10.00">output: </text>
<polygon fill="none" stroke="black" points="282,-1136 282,-1157 360,-1157 360,-1136 282,-1136"/>
<text text-anchor="start" x="287" y="-1144" font-family="Linux libertine" font-size="10.00">(4, 256) </text>
</g>
<!-- 6&#45;&gt;7 -->
<g id="edge3" class="edge">
<title>6&#45;&gt;7</title>
<path fill="none" stroke="black" d="M223.99,-1213.63C228.39,-1205.48 233.54,-1195.92 238.32,-1187.06"/>
<polygon fill="black" stroke="black" points="241.46,-1188.62 243.12,-1178.16 235.3,-1185.3 241.46,-1188.62"/>
</g>
<!-- 12 -->
<g id="node13" class="node">
<title>12</title>
<polygon fill="#c1ffc1" stroke="transparent" points="769.5,-1100 452.5,-1100 452.5,-1058 769.5,-1058 769.5,-1100"/>
<polygon fill="none" stroke="black" points="453,-1058 453,-1100 591,-1100 591,-1058 453,-1058"/>
<text text-anchor="start" x="458" y="-1082" font-family="Linux libertine" font-size="10.00">BertLinearsPooler</text>
<text text-anchor="start" x="495.5" y="-1071" font-family="Linux libertine" font-size="10.00">depth:1</text>
<polygon fill="none" stroke="black" points="591,-1079 591,-1100 662,-1100 662,-1079 591,-1079"/>
<text text-anchor="start" x="603.5" y="-1087" font-family="Linux libertine" font-size="10.00">input:</text>
<polygon fill="none" stroke="black" points="662,-1079 662,-1100 770,-1100 770,-1079 662,-1079"/>
<text text-anchor="start" x="667" y="-1087" font-family="Linux libertine" font-size="10.00">3 x (4, 256) </text>
<polygon fill="none" stroke="black" points="591,-1058 591,-1079 662,-1079 662,-1058 591,-1058"/>
<text text-anchor="start" x="596" y="-1066" font-family="Linux libertine" font-size="10.00">output: </text>
<polygon fill="none" stroke="black" points="662,-1058 662,-1079 770,-1079 770,-1058 662,-1058"/>
<text text-anchor="start" x="682" y="-1066" font-family="Linux libertine" font-size="10.00">(4, 256) </text>
</g>
<!-- 7&#45;&gt;12 -->
<g id="edge4" class="edge">
<title>7&#45;&gt;12</title>
<path fill="none" stroke="black" d="M341.54,-1135.96C365.05,-1130.67 390.47,-1125.03 414,-1120 441.93,-1114.02 472.14,-1107.78 500.32,-1102.05"/>
<polygon fill="black" stroke="black" points="501.09,-1105.46 510.19,-1100.05 499.69,-1098.6 501.09,-1105.46"/>
</g>
<!-- 9 -->
<g id="node10" class="node">
<title>9</title>
<polygon fill="#c1ffc1" stroke="transparent" points="717,-1178 505,-1178 505,-1136 717,-1136 717,-1178"/>
<polygon fill="none" stroke="black" points="505,-1136 505,-1178 568,-1178 568,-1136 505,-1136"/>
<text text-anchor="start" x="513.5" y="-1160" font-family="Linux libertine" font-size="10.00">Linear</text>
<text text-anchor="start" x="510" y="-1149" font-family="Linux libertine" font-size="10.00">depth:3</text>
<polygon fill="none" stroke="black" points="568,-1157 568,-1178 639,-1178 639,-1157 568,-1157"/>
<text text-anchor="start" x="580.5" y="-1165" font-family="Linux libertine" font-size="10.00">input:</text>
<polygon fill="none" stroke="black" points="639,-1157 639,-1178 717,-1178 717,-1157 639,-1157"/>
<text text-anchor="start" x="644" y="-1165" font-family="Linux libertine" font-size="10.00">(4, 768) </text>
<polygon fill="none" stroke="black" points="568,-1136 568,-1157 639,-1157 639,-1136 568,-1136"/>
<text text-anchor="start" x="573" y="-1144" font-family="Linux libertine" font-size="10.00">output: </text>
<polygon fill="none" stroke="black" points="639,-1136 639,-1157 717,-1157 717,-1136 639,-1136"/>
<text text-anchor="start" x="644" y="-1144" font-family="Linux libertine" font-size="10.00">(4, 256) </text>
</g>
<!-- 8&#45;&gt;9 -->
<g id="edge7" class="edge">
<title>8&#45;&gt;9</title>
<path fill="none" stroke="black" d="M611,-1213.63C611,-1205.82 611,-1196.73 611,-1188.18"/>
<polygon fill="black" stroke="black" points="614.5,-1188.16 611,-1178.16 607.5,-1188.16 614.5,-1188.16"/>
</g>
<!-- 9&#45;&gt;12 -->
<g id="edge8" class="edge">
<title>9&#45;&gt;12</title>
<path fill="none" stroke="black" d="M611,-1135.63C611,-1127.82 611,-1118.73 611,-1110.18"/>
<polygon fill="black" stroke="black" points="614.5,-1110.16 611,-1100.16 607.5,-1110.16 614.5,-1110.16"/>
</g>
<!-- 11 -->
<g id="node12" class="node">
<title>11</title>
<polygon fill="#c1ffc1" stroke="transparent" points="1071,-1178 859,-1178 859,-1136 1071,-1136 1071,-1178"/>
<polygon fill="none" stroke="black" points="859,-1136 859,-1178 922,-1178 922,-1136 859,-1136"/>
<text text-anchor="start" x="867.5" y="-1160" font-family="Linux libertine" font-size="10.00">Linear</text>
<text text-anchor="start" x="864" y="-1149" font-family="Linux libertine" font-size="10.00">depth:3</text>
<polygon fill="none" stroke="black" points="922,-1157 922,-1178 993,-1178 993,-1157 922,-1157"/>
<text text-anchor="start" x="934.5" y="-1165" font-family="Linux libertine" font-size="10.00">input:</text>
<polygon fill="none" stroke="black" points="993,-1157 993,-1178 1071,-1178 1071,-1157 993,-1157"/>
<text text-anchor="start" x="998" y="-1165" font-family="Linux libertine" font-size="10.00">(4, 768) </text>
<polygon fill="none" stroke="black" points="922,-1136 922,-1157 993,-1157 993,-1136 922,-1136"/>
<text text-anchor="start" x="927" y="-1144" font-family="Linux libertine" font-size="10.00">output: </text>
<polygon fill="none" stroke="black" points="993,-1136 993,-1157 1071,-1157 1071,-1136 993,-1136"/>
<text text-anchor="start" x="998" y="-1144" font-family="Linux libertine" font-size="10.00">(4, 256) </text>
</g>
<!-- 10&#45;&gt;11 -->
<g id="edge11" class="edge">
<title>10&#45;&gt;11</title>
<path fill="none" stroke="black" d="M994.28,-1213.63C989.99,-1205.48 984.96,-1195.92 980.29,-1187.06"/>
<polygon fill="black" stroke="black" points="983.36,-1185.38 975.61,-1178.16 977.17,-1188.64 983.36,-1185.38"/>
</g>
<!-- 11&#45;&gt;12 -->
<g id="edge12" class="edge">
<title>11&#45;&gt;12</title>
<path fill="none" stroke="black" d="M879.53,-1135.99C856.35,-1130.68 831.23,-1125.02 808,-1120 780.16,-1113.98 750.04,-1107.73 721.93,-1102.02"/>
<polygon fill="black" stroke="black" points="722.58,-1098.58 712.08,-1100.02 721.18,-1105.44 722.58,-1098.58"/>
</g>
<!-- 13 -->
<g id="node14" class="node">
<title>13</title>
<polygon fill="#c1ffc1" stroke="transparent" points="717,-992 505,-992 505,-950 717,-950 717,-992"/>
<polygon fill="none" stroke="black" points="505,-950 505,-992 568,-992 568,-950 505,-950"/>
<text text-anchor="start" x="510" y="-974" font-family="Linux libertine" font-size="10.00">Dropout</text>
<text text-anchor="start" x="510" y="-963" font-family="Linux libertine" font-size="10.00">depth:3</text>
<polygon fill="none" stroke="black" points="568,-971 568,-992 639,-992 639,-971 568,-971"/>
<text text-anchor="start" x="580.5" y="-979" font-family="Linux libertine" font-size="10.00">input:</text>
<polygon fill="none" stroke="black" points="639,-971 639,-992 717,-992 717,-971 639,-971"/>
<text text-anchor="start" x="644" y="-979" font-family="Linux libertine" font-size="10.00">(4, 256) </text>
<polygon fill="none" stroke="black" points="568,-950 568,-971 639,-971 639,-950 568,-950"/>
<text text-anchor="start" x="573" y="-958" font-family="Linux libertine" font-size="10.00">output: </text>
<polygon fill="none" stroke="black" points="639,-950 639,-971 717,-971 717,-950 639,-950"/>
<text text-anchor="start" x="644" y="-958" font-family="Linux libertine" font-size="10.00">(4, 256) </text>
</g>
<!-- 12&#45;&gt;13 -->
<g id="edge13" class="edge">
<title>12&#45;&gt;13</title>
<path fill="none" stroke="black" d="M611,-1057.56C611,-1041.92 611,-1020.1 611,-1002.4"/>
<polygon fill="black" stroke="black" points="614.5,-1002.02 611,-992.02 607.5,-1002.02 614.5,-1002.02"/>
</g>
<!-- 14 -->
<g id="node15" class="node">
<title>14</title>
<polygon fill="#c1ffc1" stroke="transparent" points="732,-914 490,-914 490,-872 732,-872 732,-914"/>
<polygon fill="none" stroke="black" points="490,-872 490,-914 583,-914 583,-872 490,-872"/>
<text text-anchor="start" x="495" y="-896" font-family="Linux libertine" font-size="10.00">BatchNorm1d</text>
<text text-anchor="start" x="510" y="-885" font-family="Linux libertine" font-size="10.00">depth:3</text>
<polygon fill="none" stroke="black" points="583,-893 583,-914 654,-914 654,-893 583,-893"/>
<text text-anchor="start" x="595.5" y="-901" font-family="Linux libertine" font-size="10.00">input:</text>
<polygon fill="none" stroke="black" points="654,-893 654,-914 732,-914 732,-893 654,-893"/>
<text text-anchor="start" x="659" y="-901" font-family="Linux libertine" font-size="10.00">(4, 256) </text>
<polygon fill="none" stroke="black" points="583,-872 583,-893 654,-893 654,-872 583,-872"/>
<text text-anchor="start" x="588" y="-880" font-family="Linux libertine" font-size="10.00">output: </text>
<polygon fill="none" stroke="black" points="654,-872 654,-893 732,-893 732,-872 654,-872"/>
<text text-anchor="start" x="659" y="-880" font-family="Linux libertine" font-size="10.00">(4, 256) </text>
</g>
<!-- 13&#45;&gt;14 -->
<g id="edge14" class="edge">
<title>13&#45;&gt;14</title>
<path fill="none" stroke="black" d="M611,-949.63C611,-941.82 611,-932.73 611,-924.18"/>
<polygon fill="black" stroke="black" points="614.5,-924.16 611,-914.16 607.5,-924.16 614.5,-924.16"/>
</g>
<!-- 15 -->
<g id="node16" class="node">
<title>15</title>
<polygon fill="#c1ffc1" stroke="transparent" points="724.5,-836 497.5,-836 497.5,-794 724.5,-794 724.5,-836"/>
<polygon fill="none" stroke="black" points="498,-794 498,-836 576,-836 576,-794 498,-794"/>
<text text-anchor="start" x="503" y="-818" font-family="Linux libertine" font-size="10.00">LeakyReLU</text>
<text text-anchor="start" x="510.5" y="-807" font-family="Linux libertine" font-size="10.00">depth:3</text>
<polygon fill="none" stroke="black" points="576,-815 576,-836 647,-836 647,-815 576,-815"/>
<text text-anchor="start" x="588.5" y="-823" font-family="Linux libertine" font-size="10.00">input:</text>
<polygon fill="none" stroke="black" points="647,-815 647,-836 725,-836 725,-815 647,-815"/>
<text text-anchor="start" x="652" y="-823" font-family="Linux libertine" font-size="10.00">(4, 256) </text>
<polygon fill="none" stroke="black" points="576,-794 576,-815 647,-815 647,-794 576,-794"/>
<text text-anchor="start" x="581" y="-802" font-family="Linux libertine" font-size="10.00">output: </text>
<polygon fill="none" stroke="black" points="647,-794 647,-815 725,-815 725,-794 647,-794"/>
<text text-anchor="start" x="652" y="-802" font-family="Linux libertine" font-size="10.00">(4, 256) </text>
</g>
<!-- 14&#45;&gt;15 -->
<g id="edge15" class="edge">
<title>14&#45;&gt;15</title>
<path fill="none" stroke="black" d="M611,-871.63C611,-863.82 611,-854.73 611,-846.18"/>
<polygon fill="black" stroke="black" points="614.5,-846.16 611,-836.16 607.5,-846.16 614.5,-846.16"/>
</g>
<!-- 16 -->
<g id="node17" class="node">
<title>16</title>
<polygon fill="#c1ffc1" stroke="transparent" points="717,-758 505,-758 505,-716 717,-716 717,-758"/>
<polygon fill="none" stroke="black" points="505,-716 505,-758 568,-758 568,-716 505,-716"/>
<text text-anchor="start" x="513.5" y="-740" font-family="Linux libertine" font-size="10.00">Linear</text>
<text text-anchor="start" x="510" y="-729" font-family="Linux libertine" font-size="10.00">depth:3</text>
<polygon fill="none" stroke="black" points="568,-737 568,-758 639,-758 639,-737 568,-737"/>
<text text-anchor="start" x="580.5" y="-745" font-family="Linux libertine" font-size="10.00">input:</text>
<polygon fill="none" stroke="black" points="639,-737 639,-758 717,-758 717,-737 639,-737"/>
<text text-anchor="start" x="644" y="-745" font-family="Linux libertine" font-size="10.00">(4, 256) </text>
<polygon fill="none" stroke="black" points="568,-716 568,-737 639,-737 639,-716 568,-716"/>
<text text-anchor="start" x="573" y="-724" font-family="Linux libertine" font-size="10.00">output: </text>
<polygon fill="none" stroke="black" points="639,-716 639,-737 717,-737 717,-716 639,-716"/>
<text text-anchor="start" x="644" y="-724" font-family="Linux libertine" font-size="10.00">(4, 128) </text>
</g>
<!-- 15&#45;&gt;16 -->
<g id="edge16" class="edge">
<title>15&#45;&gt;16</title>
<path fill="none" stroke="black" d="M611,-793.63C611,-785.82 611,-776.73 611,-768.18"/>
<polygon fill="black" stroke="black" points="614.5,-768.16 611,-758.16 607.5,-768.16 614.5,-768.16"/>
</g>
<!-- 17 -->
<g id="node18" class="node">
<title>17</title>
<polygon fill="#c1ffc1" stroke="transparent" points="717,-680 505,-680 505,-638 717,-638 717,-680"/>
<polygon fill="none" stroke="black" points="505,-638 505,-680 568,-680 568,-638 505,-638"/>
<text text-anchor="start" x="510" y="-662" font-family="Linux libertine" font-size="10.00">Dropout</text>
<text text-anchor="start" x="510" y="-651" font-family="Linux libertine" font-size="10.00">depth:3</text>
<polygon fill="none" stroke="black" points="568,-659 568,-680 639,-680 639,-659 568,-659"/>
<text text-anchor="start" x="580.5" y="-667" font-family="Linux libertine" font-size="10.00">input:</text>
<polygon fill="none" stroke="black" points="639,-659 639,-680 717,-680 717,-659 639,-659"/>
<text text-anchor="start" x="644" y="-667" font-family="Linux libertine" font-size="10.00">(4, 128) </text>
<polygon fill="none" stroke="black" points="568,-638 568,-659 639,-659 639,-638 568,-638"/>
<text text-anchor="start" x="573" y="-646" font-family="Linux libertine" font-size="10.00">output: </text>
<polygon fill="none" stroke="black" points="639,-638 639,-659 717,-659 717,-638 639,-638"/>
<text text-anchor="start" x="644" y="-646" font-family="Linux libertine" font-size="10.00">(4, 128) </text>
</g>
<!-- 16&#45;&gt;17 -->
<g id="edge17" class="edge">
<title>16&#45;&gt;17</title>
<path fill="none" stroke="black" d="M611,-715.63C611,-707.82 611,-698.73 611,-690.18"/>
<polygon fill="black" stroke="black" points="614.5,-690.16 611,-680.16 607.5,-690.16 614.5,-690.16"/>
</g>
<!-- 18 -->
<g id="node19" class="node">
<title>18</title>
<polygon fill="#c1ffc1" stroke="transparent" points="732,-602 490,-602 490,-560 732,-560 732,-602"/>
<polygon fill="none" stroke="black" points="490,-560 490,-602 583,-602 583,-560 490,-560"/>
<text text-anchor="start" x="495" y="-584" font-family="Linux libertine" font-size="10.00">BatchNorm1d</text>
<text text-anchor="start" x="510" y="-573" font-family="Linux libertine" font-size="10.00">depth:3</text>
<polygon fill="none" stroke="black" points="583,-581 583,-602 654,-602 654,-581 583,-581"/>
<text text-anchor="start" x="595.5" y="-589" font-family="Linux libertine" font-size="10.00">input:</text>
<polygon fill="none" stroke="black" points="654,-581 654,-602 732,-602 732,-581 654,-581"/>
<text text-anchor="start" x="659" y="-589" font-family="Linux libertine" font-size="10.00">(4, 128) </text>
<polygon fill="none" stroke="black" points="583,-560 583,-581 654,-581 654,-560 583,-560"/>
<text text-anchor="start" x="588" y="-568" font-family="Linux libertine" font-size="10.00">output: </text>
<polygon fill="none" stroke="black" points="654,-560 654,-581 732,-581 732,-560 654,-560"/>
<text text-anchor="start" x="659" y="-568" font-family="Linux libertine" font-size="10.00">(4, 128) </text>
</g>
<!-- 17&#45;&gt;18 -->
<g id="edge18" class="edge">
<title>17&#45;&gt;18</title>
<path fill="none" stroke="black" d="M611,-637.63C611,-629.82 611,-620.73 611,-612.18"/>
<polygon fill="black" stroke="black" points="614.5,-612.16 611,-602.16 607.5,-612.16 614.5,-612.16"/>
</g>
<!-- 19 -->
<g id="node20" class="node">
<title>19</title>
<polygon fill="#c1ffc1" stroke="transparent" points="724.5,-524 497.5,-524 497.5,-482 724.5,-482 724.5,-524"/>
<polygon fill="none" stroke="black" points="498,-482 498,-524 576,-524 576,-482 498,-482"/>
<text text-anchor="start" x="503" y="-506" font-family="Linux libertine" font-size="10.00">LeakyReLU</text>
<text text-anchor="start" x="510.5" y="-495" font-family="Linux libertine" font-size="10.00">depth:3</text>
<polygon fill="none" stroke="black" points="576,-503 576,-524 647,-524 647,-503 576,-503"/>
<text text-anchor="start" x="588.5" y="-511" font-family="Linux libertine" font-size="10.00">input:</text>
<polygon fill="none" stroke="black" points="647,-503 647,-524 725,-524 725,-503 647,-503"/>
<text text-anchor="start" x="652" y="-511" font-family="Linux libertine" font-size="10.00">(4, 128) </text>
<polygon fill="none" stroke="black" points="576,-482 576,-503 647,-503 647,-482 576,-482"/>
<text text-anchor="start" x="581" y="-490" font-family="Linux libertine" font-size="10.00">output: </text>
<polygon fill="none" stroke="black" points="647,-482 647,-503 725,-503 725,-482 647,-482"/>
<text text-anchor="start" x="652" y="-490" font-family="Linux libertine" font-size="10.00">(4, 128) </text>
</g>
<!-- 18&#45;&gt;19 -->
<g id="edge19" class="edge">
<title>18&#45;&gt;19</title>
<path fill="none" stroke="black" d="M611,-559.63C611,-551.82 611,-542.73 611,-534.18"/>
<polygon fill="black" stroke="black" points="614.5,-534.16 611,-524.16 607.5,-534.16 614.5,-534.16"/>
</g>
<!-- 20 -->
<g id="node21" class="node">
<title>20</title>
<polygon fill="#c1ffc1" stroke="transparent" points="717,-446 505,-446 505,-404 717,-404 717,-446"/>
<polygon fill="none" stroke="black" points="505,-404 505,-446 568,-446 568,-404 505,-404"/>
<text text-anchor="start" x="513.5" y="-428" font-family="Linux libertine" font-size="10.00">Linear</text>
<text text-anchor="start" x="510" y="-417" font-family="Linux libertine" font-size="10.00">depth:3</text>
<polygon fill="none" stroke="black" points="568,-425 568,-446 639,-446 639,-425 568,-425"/>
<text text-anchor="start" x="580.5" y="-433" font-family="Linux libertine" font-size="10.00">input:</text>
<polygon fill="none" stroke="black" points="639,-425 639,-446 717,-446 717,-425 639,-425"/>
<text text-anchor="start" x="644" y="-433" font-family="Linux libertine" font-size="10.00">(4, 128) </text>
<polygon fill="none" stroke="black" points="568,-404 568,-425 639,-425 639,-404 568,-404"/>
<text text-anchor="start" x="573" y="-412" font-family="Linux libertine" font-size="10.00">output: </text>
<polygon fill="none" stroke="black" points="639,-404 639,-425 717,-425 717,-404 639,-404"/>
<text text-anchor="start" x="647.5" y="-412" font-family="Linux libertine" font-size="10.00">(4, 64) </text>
</g>
<!-- 19&#45;&gt;20 -->
<g id="edge20" class="edge">
<title>19&#45;&gt;20</title>
<path fill="none" stroke="black" d="M611,-481.63C611,-473.82 611,-464.73 611,-456.18"/>
<polygon fill="black" stroke="black" points="614.5,-456.16 611,-446.16 607.5,-456.16 614.5,-456.16"/>
</g>
<!-- 21 -->
<g id="node22" class="node">
<title>21</title>
<polygon fill="#c1ffc1" stroke="transparent" points="713.5,-368 508.5,-368 508.5,-326 713.5,-326 713.5,-368"/>
<polygon fill="none" stroke="black" points="509,-326 509,-368 572,-368 572,-326 509,-326"/>
<text text-anchor="start" x="514" y="-350" font-family="Linux libertine" font-size="10.00">Dropout</text>
<text text-anchor="start" x="514" y="-339" font-family="Linux libertine" font-size="10.00">depth:3</text>
<polygon fill="none" stroke="black" points="572,-347 572,-368 643,-368 643,-347 572,-347"/>
<text text-anchor="start" x="584.5" y="-355" font-family="Linux libertine" font-size="10.00">input:</text>
<polygon fill="none" stroke="black" points="643,-347 643,-368 714,-368 714,-347 643,-347"/>
<text text-anchor="start" x="648" y="-355" font-family="Linux libertine" font-size="10.00">(4, 64) </text>
<polygon fill="none" stroke="black" points="572,-326 572,-347 643,-347 643,-326 572,-326"/>
<text text-anchor="start" x="577" y="-334" font-family="Linux libertine" font-size="10.00">output: </text>
<polygon fill="none" stroke="black" points="643,-326 643,-347 714,-347 714,-326 643,-326"/>
<text text-anchor="start" x="648" y="-334" font-family="Linux libertine" font-size="10.00">(4, 64) </text>
</g>
<!-- 20&#45;&gt;21 -->
<g id="edge21" class="edge">
<title>20&#45;&gt;21</title>
<path fill="none" stroke="black" d="M611,-403.63C611,-395.82 611,-386.73 611,-378.18"/>
<polygon fill="black" stroke="black" points="614.5,-378.16 611,-368.16 607.5,-378.16 614.5,-378.16"/>
</g>
<!-- 22 -->
<g id="node23" class="node">
<title>22</title>
<polygon fill="#c1ffc1" stroke="transparent" points="728.5,-290 493.5,-290 493.5,-248 728.5,-248 728.5,-290"/>
<polygon fill="none" stroke="black" points="494,-248 494,-290 587,-290 587,-248 494,-248"/>
<text text-anchor="start" x="499" y="-272" font-family="Linux libertine" font-size="10.00">BatchNorm1d</text>
<text text-anchor="start" x="514" y="-261" font-family="Linux libertine" font-size="10.00">depth:3</text>
<polygon fill="none" stroke="black" points="587,-269 587,-290 658,-290 658,-269 587,-269"/>
<text text-anchor="start" x="599.5" y="-277" font-family="Linux libertine" font-size="10.00">input:</text>
<polygon fill="none" stroke="black" points="658,-269 658,-290 729,-290 729,-269 658,-269"/>
<text text-anchor="start" x="663" y="-277" font-family="Linux libertine" font-size="10.00">(4, 64) </text>
<polygon fill="none" stroke="black" points="587,-248 587,-269 658,-269 658,-248 587,-248"/>
<text text-anchor="start" x="592" y="-256" font-family="Linux libertine" font-size="10.00">output: </text>
<polygon fill="none" stroke="black" points="658,-248 658,-269 729,-269 729,-248 658,-248"/>
<text text-anchor="start" x="663" y="-256" font-family="Linux libertine" font-size="10.00">(4, 64) </text>
</g>
<!-- 21&#45;&gt;22 -->
<g id="edge22" class="edge">
<title>21&#45;&gt;22</title>
<path fill="none" stroke="black" d="M611,-325.63C611,-317.82 611,-308.73 611,-300.18"/>
<polygon fill="black" stroke="black" points="614.5,-300.16 611,-290.16 607.5,-300.16 614.5,-300.16"/>
</g>
<!-- 23 -->
<g id="node24" class="node">
<title>23</title>
<polygon fill="#c1ffc1" stroke="transparent" points="721,-212 501,-212 501,-170 721,-170 721,-212"/>
<polygon fill="none" stroke="black" points="501,-170 501,-212 579,-212 579,-170 501,-170"/>
<text text-anchor="start" x="506" y="-194" font-family="Linux libertine" font-size="10.00">LeakyReLU</text>
<text text-anchor="start" x="513.5" y="-183" font-family="Linux libertine" font-size="10.00">depth:3</text>
<polygon fill="none" stroke="black" points="579,-191 579,-212 650,-212 650,-191 579,-191"/>
<text text-anchor="start" x="591.5" y="-199" font-family="Linux libertine" font-size="10.00">input:</text>
<polygon fill="none" stroke="black" points="650,-191 650,-212 721,-212 721,-191 650,-191"/>
<text text-anchor="start" x="655" y="-199" font-family="Linux libertine" font-size="10.00">(4, 64) </text>
<polygon fill="none" stroke="black" points="579,-170 579,-191 650,-191 650,-170 579,-170"/>
<text text-anchor="start" x="584" y="-178" font-family="Linux libertine" font-size="10.00">output: </text>
<polygon fill="none" stroke="black" points="650,-170 650,-191 721,-191 721,-170 650,-170"/>
<text text-anchor="start" x="655" y="-178" font-family="Linux libertine" font-size="10.00">(4, 64) </text>
</g>
<!-- 22&#45;&gt;23 -->
<g id="edge23" class="edge">
<title>22&#45;&gt;23</title>
<path fill="none" stroke="black" d="M611,-247.63C611,-239.82 611,-230.73 611,-222.18"/>
<polygon fill="black" stroke="black" points="614.5,-222.16 611,-212.16 607.5,-222.16 614.5,-222.16"/>
</g>
<!-- 24 -->
<g id="node25" class="node">
<title>24</title>
<polygon fill="#c1ffc1" stroke="transparent" points="713.5,-134 508.5,-134 508.5,-92 713.5,-92 713.5,-134"/>
<polygon fill="none" stroke="black" points="509,-92 509,-134 572,-134 572,-92 509,-92"/>
<text text-anchor="start" x="517.5" y="-116" font-family="Linux libertine" font-size="10.00">Linear</text>
<text text-anchor="start" x="514" y="-105" font-family="Linux libertine" font-size="10.00">depth:3</text>
<polygon fill="none" stroke="black" points="572,-113 572,-134 643,-134 643,-113 572,-113"/>
<text text-anchor="start" x="584.5" y="-121" font-family="Linux libertine" font-size="10.00">input:</text>
<polygon fill="none" stroke="black" points="643,-113 643,-134 714,-134 714,-113 643,-113"/>
<text text-anchor="start" x="648" y="-121" font-family="Linux libertine" font-size="10.00">(4, 64) </text>
<polygon fill="none" stroke="black" points="572,-92 572,-113 643,-113 643,-92 572,-92"/>
<text text-anchor="start" x="577" y="-100" font-family="Linux libertine" font-size="10.00">output: </text>
<polygon fill="none" stroke="black" points="643,-92 643,-113 714,-113 714,-92 643,-92"/>
<text text-anchor="start" x="652" y="-100" font-family="Linux libertine" font-size="10.00">(4, 3) </text>
</g>
<!-- 23&#45;&gt;24 -->
<g id="edge24" class="edge">
<title>23&#45;&gt;24</title>
<path fill="none" stroke="black" d="M611,-169.63C611,-161.82 611,-152.73 611,-144.18"/>
<polygon fill="black" stroke="black" points="614.5,-144.16 611,-134.16 607.5,-144.16 614.5,-144.16"/>
</g>
<!-- 25 -->
<g id="node26" class="node">
<title>25</title>
<polygon fill="lightyellow" stroke="transparent" points="693,-56 529,-56 529,-24 693,-24 693,-56"/>
<polygon fill="none" stroke="black" points="529,-24 529,-56 637,-56 637,-24 529,-24"/>
<text text-anchor="start" x="534" y="-43" font-family="Linux libertine" font-size="10.00">output&#45;tensor</text>
<text text-anchor="start" x="556.5" y="-32" font-family="Linux libertine" font-size="10.00">depth:0</text>
<polygon fill="none" stroke="black" points="637,-24 637,-56 693,-56 693,-24 637,-24"/>
<text text-anchor="start" x="642" y="-37.5" font-family="Linux libertine" font-size="10.00">(4, 3)</text>
</g>
<!-- 24&#45;&gt;25 -->
<g id="edge25" class="edge">
<title>24&#45;&gt;25</title>
<path fill="none" stroke="black" d="M611,-91.84C611,-83.89 611,-74.66 611,-66.26"/>
<polygon fill="black" stroke="black" points="614.5,-66.24 611,-56.24 607.5,-66.24 614.5,-66.24"/>
</g>
</g>
</svg>
